<?xml version="1.0" encoding="UTF-8"?>
<svg xmlns="http://www.w3.org/2000/svg" width="27" height="27" viewBox="0 0 27 27" fill="none">
  <mask id="path-1-outside-1_4795_64" maskUnits="userSpaceOnUse" x="-0.53125" y="-0.257812" width="28" height="28" fill="black">
    <rect fill="white" x="-0.53125" y="-0.257812" width="28" height="28"></rect>
    <path d="M25.906 26.7818C25.7073 26.5125 25.5242 26.2298 25.3058 25.9782C24.8589 25.4621 24.8338 24.9277 25.0101 24.2706C25.3695 22.9312 25.6991 21.5654 25.6374 20.167C25.5845 18.9681 25.4123 17.7745 25.2753 16.5803C25.1613 15.5881 25.0244 14.598 24.8908 13.6079C24.865 13.416 24.8162 13.2254 24.7612 13.0396C24.5822 12.4381 24.1529 12.1546 23.5222 12.0929C23.5616 12.472 23.6172 12.8375 23.6335 13.2051C23.6518 13.6188 23.6463 14.0345 23.6307 14.4488C23.6192 14.7513 23.4463 14.9079 23.1913 14.8896C22.9458 14.872 22.8007 14.6807 22.8244 14.3783C22.916 13.2207 22.7146 12.1004 22.4046 10.9936C22.368 10.8634 22.3205 10.7366 22.2697 10.6111C22.0208 10.0008 21.4261 9.69901 20.7425 9.85295C20.796 10.445 20.8517 11.0411 20.9032 11.6372C20.9737 12.4476 21.0443 13.258 21.1087 14.0684C21.129 14.3295 20.9764 14.5132 20.7459 14.5322C20.5072 14.5526 20.3315 14.4136 20.3064 14.1457C20.2203 13.2261 20.1471 12.3058 20.0664 11.3856C20.0141 10.7861 19.9653 10.1866 19.9009 9.58847C19.8656 9.25888 19.7673 8.93676 19.4201 8.8113C19.0118 8.66346 18.6002 8.69195 18.2326 8.94693C18.0475 9.0751 18.0244 9.28059 18.0353 9.49421C18.0963 10.6539 18.156 11.8128 18.2123 12.9725C18.2414 13.5652 18.2658 14.1579 18.2862 14.7506C18.297 15.0673 18.1424 15.2606 17.8915 15.266C17.6419 15.2714 17.4914 15.0842 17.4744 14.7655C17.3219 11.9227 17.1788 9.07917 17.0058 6.23702C16.9536 5.37644 16.8309 4.51857 16.7122 3.66341C16.6308 3.07477 16.3168 3.01103 15.8041 3.31959C15.7384 3.3596 15.6956 3.48777 15.6929 3.57661C15.6651 4.5084 15.6265 5.44018 15.6305 6.37197C15.6387 8.39763 15.697 10.4233 15.6827 12.4483C15.6726 13.9307 15.5797 15.4118 15.5227 16.8936C15.5159 17.0631 15.5119 17.2326 15.4949 17.4015C15.4712 17.6416 15.2955 17.7942 15.0711 17.782C14.8601 17.7704 14.6947 17.6097 14.694 17.3798C14.694 17.1174 14.7313 16.8549 14.7286 16.5931C14.7272 16.4982 14.6716 16.3931 14.6153 16.3104C14.3549 15.9286 14.0369 15.5779 13.8293 15.1704C13.2651 14.0636 12.3476 13.4377 11.1893 13.123C10.9974 13.0708 10.7641 13.0986 10.5674 13.1535C10.2385 13.2451 10.1348 13.5096 10.3036 13.8066C10.4494 14.0623 10.6122 14.3173 10.8109 14.5329C11.8254 15.6376 12.4893 16.9275 12.9911 18.336C13.2631 19.1003 13.7154 19.8029 14.1108 20.5197C14.4865 21.2012 14.9497 21.8394 15.2745 22.5426C15.657 23.37 16.2626 23.943 17.0099 24.4042C17.233 24.5418 17.4622 24.668 17.6894 24.7982C17.9491 24.9467 18.0366 25.1664 17.92 25.3834C17.8054 25.5977 17.5585 25.6635 17.3076 25.5102C16.818 25.2105 16.3263 24.9101 15.8597 24.5764C15.3722 24.2278 15.0148 23.7647 14.7286 23.2282C14.2783 22.3853 13.8002 21.5559 13.2963 20.7448C12.7843 19.9209 12.3571 19.0616 12.0519 18.1414C11.7115 17.1153 11.1866 16.1985 10.4759 15.3826C10.1876 15.0517 9.90689 14.7058 9.67767 14.3329C9.08157 13.3617 9.60782 12.352 10.7464 12.2835C11.0598 12.2645 11.3982 12.3004 11.6932 12.4028C12.9871 12.8531 14.0253 13.6194 14.6038 14.912C14.635 14.9812 14.675 15.0463 14.7103 15.1141C14.7218 15.1365 14.7313 15.1602 14.7415 15.1833C14.7611 15.1765 14.7808 15.1704 14.8011 15.1636C14.812 14.9669 14.8317 14.7703 14.8317 14.5743C14.8323 12.9053 14.8283 11.2364 14.8289 9.56745C14.8303 7.81305 14.8303 6.05866 14.8432 4.30427C14.8459 3.91569 14.8968 3.52778 14.9334 3.14056C14.9402 3.06867 14.9653 2.98187 15.0134 2.93236C15.421 2.51191 15.9072 2.23996 16.5067 2.34169C17.0838 2.43934 17.4032 2.84217 17.4805 3.40572C17.6148 4.37819 17.7267 5.35406 17.8305 6.32993C17.8929 6.91789 17.9213 7.50924 17.9661 8.11416C18.2136 8.05448 18.4367 7.98395 18.6653 7.94869C19.4825 7.82255 20.244 8.11687 20.5743 8.89811C20.598 8.95371 20.7092 8.99237 20.7845 9.00119C21.0768 9.03645 21.3786 9.02424 21.6634 9.08799C22.267 9.22294 22.7227 9.57016 22.9621 10.1554C23.1052 10.5067 23.2211 10.8702 23.3541 11.2405C23.565 11.271 23.8016 11.2852 24.0275 11.3422C24.9898 11.5843 25.4774 12.2685 25.6428 13.1949C25.7778 13.9524 25.8503 14.7208 25.95 15.485C26.0979 16.6182 26.2457 17.7521 26.3929 18.8853C26.42 19.0928 26.4403 19.3017 26.4641 19.5099V20.934C26.4539 20.9571 26.4363 20.9795 26.4342 21.0039C26.3034 22.3263 26.026 23.6216 25.7113 24.9101C25.691 24.9942 25.7262 25.1115 25.7737 25.1895C25.9968 25.5557 26.2328 25.9137 26.4641 26.2745V26.7831H25.906V26.7818Z"></path>
    <path d="M9.35775 26.7804C9.03698 26.7098 8.70401 26.6746 8.39884 26.5634C7.45077 26.2168 6.84586 25.4614 6.59087 24.339H6.3013C4.55844 24.339 2.81557 24.339 1.07271 24.339C0.996759 24.339 0.919449 24.3438 0.844174 24.3349C0.623773 24.3078 0.464406 24.1322 0.477291 23.9219C0.490854 23.6975 0.619704 23.5659 0.839427 23.5306C0.914024 23.5184 0.991334 23.5259 1.06729 23.5259C2.81015 23.5259 4.55301 23.5259 6.29587 23.5259H6.59019C6.74617 22.7087 7.14289 22.0529 7.83054 21.5904C8.3378 21.2493 8.89932 21.0839 9.50898 21.115C10.8999 21.1856 11.8737 22.0455 12.2277 23.5259C12.6583 23.5259 13.0964 23.5252 13.5345 23.5266C13.6186 23.5266 13.7074 23.5218 13.7854 23.5476C13.9855 23.6127 14.0886 23.7599 14.0737 23.9728C14.0587 24.1824 13.8919 24.3322 13.6573 24.337C13.2768 24.3444 12.8957 24.3397 12.5152 24.3397C12.423 24.3397 12.3315 24.3397 12.2881 24.3397C12.1097 24.7405 11.9883 25.1345 11.774 25.4688C11.2905 26.2243 10.5798 26.6474 9.68191 26.7397C9.60731 26.7471 9.53339 26.7668 9.45947 26.7804H9.35775ZM9.40861 21.8983C8.28423 21.901 7.37821 22.8111 7.37821 23.9382C7.37821 25.0579 8.29847 25.972 9.42082 25.9652C10.5323 25.9584 11.4356 25.0511 11.4383 23.9382C11.4404 22.8125 10.5276 21.8956 9.40861 21.8983Z"></path>
    <path d="M15.7042 0.742188C15.9239 0.800509 16.147 0.84798 16.3613 0.919865C16.6461 1.01548 16.7723 1.22843 16.6997 1.4529C16.6197 1.69907 16.3986 1.78587 16.0962 1.68957C15.0253 1.34846 13.981 1.82317 13.6073 2.83023C13.3469 3.53212 13.473 4.17773 13.9288 4.76366C13.9701 4.81723 14.021 4.86334 14.0617 4.91692C14.2068 5.10884 14.1899 5.34212 14.023 5.48793C13.8671 5.62356 13.6344 5.62085 13.471 5.46351C13.1224 5.12715 12.8925 4.71754 12.761 4.25165C12.7386 4.17163 12.7169 4.09092 12.6911 3.99734H12.3832C8.62016 3.99734 4.85707 3.99734 1.09398 3.99734C1.00921 3.99734 0.92376 4.00276 0.840347 3.99259C0.621302 3.96479 0.462614 3.78575 0.477533 3.5762C0.493809 3.35241 0.623337 3.22085 0.843738 3.18898C0.926473 3.17677 1.0126 3.18423 1.09737 3.18423C4.85232 3.18423 8.60659 3.18423 12.3615 3.18423H12.6647C12.7074 3.00926 12.7345 2.85058 12.7854 2.7007C13.1435 1.64956 13.8671 1.01142 14.9555 0.791015C15.003 0.781521 15.0484 0.759141 15.0945 0.742866C15.2973 0.742866 15.5014 0.742188 15.7042 0.742188Z"></path>
    <path d="M26.4691 3.73806C26.3253 3.94354 26.1287 3.99779 25.8805 3.99712C23.5632 3.98966 21.2466 3.99237 18.9294 3.99237C18.8534 3.99237 18.7754 3.99983 18.7015 3.98559C18.4838 3.94422 18.3509 3.80995 18.3516 3.5848C18.3516 3.35965 18.4838 3.22537 18.7022 3.18468C18.7761 3.17112 18.8541 3.17858 18.93 3.17858C21.2473 3.17858 23.5639 3.18129 25.8811 3.17383C26.1287 3.17316 26.326 3.22605 26.4691 3.43289V3.73806Z"></path>
    <path d="M6.14366 13.3542C6.72755 13.3542 7.31755 13.3542 7.90822 13.3542C7.99299 13.3542 8.07776 13.3508 8.16185 13.3556C8.42023 13.3685 8.59045 13.5332 8.58841 13.7638C8.58706 13.9937 8.41548 14.1633 8.15575 14.166C7.57254 14.1721 6.98864 14.168 6.40475 14.1687C6.3132 14.1687 6.22233 14.1687 6.1362 14.1687C5.73812 16.0879 4.1587 16.7314 3.0099 16.5931C1.55593 16.4174 0.479019 15.2347 0.468847 13.8215C0.457318 12.3309 1.47523 11.1543 2.96718 10.9332C4.4225 10.7175 5.64657 11.6432 6.14366 13.3542ZM5.3414 13.7686C5.34411 12.653 4.44352 11.7355 3.3388 11.7273C2.20086 11.7185 1.28263 12.6293 1.28196 13.7665C1.28128 14.8767 2.19069 15.7915 3.29812 15.7949C4.42385 15.7983 5.33801 14.8916 5.3414 13.7686Z"></path>
  </mask>
  <path d="M25.906 26.7818C25.7073 26.5125 25.5242 26.2298 25.3058 25.9782C24.8589 25.4621 24.8338 24.9277 25.0101 24.2706C25.3695 22.9312 25.6991 21.5654 25.6374 20.167C25.5845 18.9681 25.4123 17.7745 25.2753 16.5803C25.1613 15.5881 25.0244 14.598 24.8908 13.6079C24.865 13.416 24.8162 13.2254 24.7612 13.0396C24.5822 12.4381 24.1529 12.1546 23.5222 12.0929C23.5616 12.472 23.6172 12.8375 23.6335 13.2051C23.6518 13.6188 23.6463 14.0345 23.6307 14.4488C23.6192 14.7513 23.4463 14.9079 23.1913 14.8896C22.9458 14.872 22.8007 14.6807 22.8244 14.3783C22.916 13.2207 22.7146 12.1004 22.4046 10.9936C22.368 10.8634 22.3205 10.7366 22.2697 10.6111C22.0208 10.0008 21.4261 9.69901 20.7425 9.85295C20.796 10.445 20.8517 11.0411 20.9032 11.6372C20.9737 12.4476 21.0443 13.258 21.1087 14.0684C21.129 14.3295 20.9764 14.5132 20.7459 14.5322C20.5072 14.5526 20.3315 14.4136 20.3064 14.1457C20.2203 13.2261 20.1471 12.3058 20.0664 11.3856C20.0141 10.7861 19.9653 10.1866 19.9009 9.58847C19.8656 9.25888 19.7673 8.93676 19.4201 8.8113C19.0118 8.66346 18.6002 8.69195 18.2326 8.94693C18.0475 9.0751 18.0244 9.28059 18.0353 9.49421C18.0963 10.6539 18.156 11.8128 18.2123 12.9725C18.2414 13.5652 18.2658 14.1579 18.2862 14.7506C18.297 15.0673 18.1424 15.2606 17.8915 15.266C17.6419 15.2714 17.4914 15.0842 17.4744 14.7655C17.3219 11.9227 17.1788 9.07917 17.0058 6.23702C16.9536 5.37644 16.8309 4.51857 16.7122 3.66341C16.6308 3.07477 16.3168 3.01103 15.8041 3.31959C15.7384 3.3596 15.6956 3.48777 15.6929 3.57661C15.6651 4.5084 15.6265 5.44018 15.6305 6.37197C15.6387 8.39763 15.697 10.4233 15.6827 12.4483C15.6726 13.9307 15.5797 15.4118 15.5227 16.8936C15.5159 17.0631 15.5119 17.2326 15.4949 17.4015C15.4712 17.6416 15.2955 17.7942 15.0711 17.782C14.8601 17.7704 14.6947 17.6097 14.694 17.3798C14.694 17.1174 14.7313 16.8549 14.7286 16.5931C14.7272 16.4982 14.6716 16.3931 14.6153 16.3104C14.3549 15.9286 14.0369 15.5779 13.8293 15.1704C13.2651 14.0636 12.3476 13.4377 11.1893 13.123C10.9974 13.0708 10.7641 13.0986 10.5674 13.1535C10.2385 13.2451 10.1348 13.5096 10.3036 13.8066C10.4494 14.0623 10.6122 14.3173 10.8109 14.5329C11.8254 15.6376 12.4893 16.9275 12.9911 18.336C13.2631 19.1003 13.7154 19.8029 14.1108 20.5197C14.4865 21.2012 14.9497 21.8394 15.2745 22.5426C15.657 23.37 16.2626 23.943 17.0099 24.4042C17.233 24.5418 17.4622 24.668 17.6894 24.7982C17.9491 24.9467 18.0366 25.1664 17.92 25.3834C17.8054 25.5977 17.5585 25.6635 17.3076 25.5102C16.818 25.2105 16.3263 24.9101 15.8597 24.5764C15.3722 24.2278 15.0148 23.7647 14.7286 23.2282C14.2783 22.3853 13.8002 21.5559 13.2963 20.7448C12.7843 19.9209 12.3571 19.0616 12.0519 18.1414C11.7115 17.1153 11.1866 16.1985 10.4759 15.3826C10.1876 15.0517 9.90689 14.7058 9.67767 14.3329C9.08157 13.3617 9.60782 12.352 10.7464 12.2835C11.0598 12.2645 11.3982 12.3004 11.6932 12.4028C12.9871 12.8531 14.0253 13.6194 14.6038 14.912C14.635 14.9812 14.675 15.0463 14.7103 15.1141C14.7218 15.1365 14.7313 15.1602 14.7415 15.1833C14.7611 15.1765 14.7808 15.1704 14.8011 15.1636C14.812 14.9669 14.8317 14.7703 14.8317 14.5743C14.8323 12.9053 14.8283 11.2364 14.8289 9.56745C14.8303 7.81305 14.8303 6.05866 14.8432 4.30427C14.8459 3.91569 14.8968 3.52778 14.9334 3.14056C14.9402 3.06867 14.9653 2.98187 15.0134 2.93236C15.421 2.51191 15.9072 2.23996 16.5067 2.34169C17.0838 2.43934 17.4032 2.84217 17.4805 3.40572C17.6148 4.37819 17.7267 5.35406 17.8305 6.32993C17.8929 6.91789 17.9213 7.50924 17.9661 8.11416C18.2136 8.05448 18.4367 7.98395 18.6653 7.94869C19.4825 7.82255 20.244 8.11687 20.5743 8.89811C20.598 8.95371 20.7092 8.99237 20.7845 9.00119C21.0768 9.03645 21.3786 9.02424 21.6634 9.08799C22.267 9.22294 22.7227 9.57016 22.9621 10.1554C23.1052 10.5067 23.2211 10.8702 23.3541 11.2405C23.565 11.271 23.8016 11.2852 24.0275 11.3422C24.9898 11.5843 25.4774 12.2685 25.6428 13.1949C25.7778 13.9524 25.8503 14.7208 25.95 15.485C26.0979 16.6182 26.2457 17.7521 26.3929 18.8853C26.42 19.0928 26.4403 19.3017 26.4641 19.5099V20.934C26.4539 20.9571 26.4363 20.9795 26.4342 21.0039C26.3034 22.3263 26.026 23.6216 25.7113 24.9101C25.691 24.9942 25.7262 25.1115 25.7737 25.1895C25.9968 25.5557 26.2328 25.9137 26.4641 26.2745V26.7831H25.906V26.7818Z" fill="white"></path>
  <path d="M9.35775 26.7804C9.03698 26.7098 8.70401 26.6746 8.39884 26.5634C7.45077 26.2168 6.84586 25.4614 6.59087 24.339H6.3013C4.55844 24.339 2.81557 24.339 1.07271 24.339C0.996759 24.339 0.919449 24.3438 0.844174 24.3349C0.623773 24.3078 0.464406 24.1322 0.477291 23.9219C0.490854 23.6975 0.619704 23.5659 0.839427 23.5306C0.914024 23.5184 0.991334 23.5259 1.06729 23.5259C2.81015 23.5259 4.55301 23.5259 6.29587 23.5259H6.59019C6.74617 22.7087 7.14289 22.0529 7.83054 21.5904C8.3378 21.2493 8.89932 21.0839 9.50898 21.115C10.8999 21.1856 11.8737 22.0455 12.2277 23.5259C12.6583 23.5259 13.0964 23.5252 13.5345 23.5266C13.6186 23.5266 13.7074 23.5218 13.7854 23.5476C13.9855 23.6127 14.0886 23.7599 14.0737 23.9728C14.0587 24.1824 13.8919 24.3322 13.6573 24.337C13.2768 24.3444 12.8957 24.3397 12.5152 24.3397C12.423 24.3397 12.3315 24.3397 12.2881 24.3397C12.1097 24.7405 11.9883 25.1345 11.774 25.4688C11.2905 26.2243 10.5798 26.6474 9.68191 26.7397C9.60731 26.7471 9.53339 26.7668 9.45947 26.7804H9.35775ZM9.40861 21.8983C8.28423 21.901 7.37821 22.8111 7.37821 23.9382C7.37821 25.0579 8.29847 25.972 9.42082 25.9652C10.5323 25.9584 11.4356 25.0511 11.4383 23.9382C11.4404 22.8125 10.5276 21.8956 9.40861 21.8983Z" fill="white"></path>
  <path d="M15.7042 0.742188C15.9239 0.800509 16.147 0.84798 16.3613 0.919865C16.6461 1.01548 16.7723 1.22843 16.6997 1.4529C16.6197 1.69907 16.3986 1.78587 16.0962 1.68957C15.0253 1.34846 13.981 1.82317 13.6073 2.83023C13.3469 3.53212 13.473 4.17773 13.9288 4.76366C13.9701 4.81723 14.021 4.86334 14.0617 4.91692C14.2068 5.10884 14.1899 5.34212 14.023 5.48793C13.8671 5.62356 13.6344 5.62085 13.471 5.46351C13.1224 5.12715 12.8925 4.71754 12.761 4.25165C12.7386 4.17163 12.7169 4.09092 12.6911 3.99734H12.3832C8.62016 3.99734 4.85707 3.99734 1.09398 3.99734C1.00921 3.99734 0.92376 4.00276 0.840347 3.99259C0.621302 3.96479 0.462614 3.78575 0.477533 3.5762C0.493809 3.35241 0.623337 3.22085 0.843738 3.18898C0.926473 3.17677 1.0126 3.18423 1.09737 3.18423C4.85232 3.18423 8.60659 3.18423 12.3615 3.18423H12.6647C12.7074 3.00926 12.7345 2.85058 12.7854 2.7007C13.1435 1.64956 13.8671 1.01142 14.9555 0.791015C15.003 0.781521 15.0484 0.759141 15.0945 0.742866C15.2973 0.742866 15.5014 0.742188 15.7042 0.742188Z" fill="white"></path>
  <path d="M26.4691 3.73806C26.3253 3.94354 26.1287 3.99779 25.8805 3.99712C23.5632 3.98966 21.2466 3.99237 18.9294 3.99237C18.8534 3.99237 18.7754 3.99983 18.7015 3.98559C18.4838 3.94422 18.3509 3.80995 18.3516 3.5848C18.3516 3.35965 18.4838 3.22537 18.7022 3.18468C18.7761 3.17112 18.8541 3.17858 18.93 3.17858C21.2473 3.17858 23.5639 3.18129 25.8811 3.17383C26.1287 3.17316 26.326 3.22605 26.4691 3.43289V3.73806Z" fill="white"></path>
  <path d="M6.14366 13.3542C6.72755 13.3542 7.31755 13.3542 7.90822 13.3542C7.99299 13.3542 8.07776 13.3508 8.16185 13.3556C8.42023 13.3685 8.59045 13.5332 8.58841 13.7638C8.58706 13.9937 8.41548 14.1633 8.15575 14.166C7.57254 14.1721 6.98864 14.168 6.40475 14.1687C6.3132 14.1687 6.22233 14.1687 6.1362 14.1687C5.73812 16.0879 4.1587 16.7314 3.0099 16.5931C1.55593 16.4174 0.479019 15.2347 0.468847 13.8215C0.457318 12.3309 1.47523 11.1543 2.96718 10.9332C4.4225 10.7175 5.64657 11.6432 6.14366 13.3542ZM5.3414 13.7686C5.34411 12.653 4.44352 11.7355 3.3388 11.7273C2.20086 11.7185 1.28263 12.6293 1.28196 13.7665C1.28128 14.8767 2.19069 15.7915 3.29812 15.7949C4.42385 15.7983 5.33801 14.8916 5.3414 13.7686Z" fill="white"></path>
  <path d="M25.906 26.7818C25.7073 26.5125 25.5242 26.2298 25.3058 25.9782C24.8589 25.4621 24.8338 24.9277 25.0101 24.2706C25.3695 22.9312 25.6991 21.5654 25.6374 20.167C25.5845 18.9681 25.4123 17.7745 25.2753 16.5803C25.1613 15.5881 25.0244 14.598 24.8908 13.6079C24.865 13.416 24.8162 13.2254 24.7612 13.0396C24.5822 12.4381 24.1529 12.1546 23.5222 12.0929C23.5616 12.472 23.6172 12.8375 23.6335 13.2051C23.6518 13.6188 23.6463 14.0345 23.6307 14.4488C23.6192 14.7513 23.4463 14.9079 23.1913 14.8896C22.9458 14.872 22.8007 14.6807 22.8244 14.3783C22.916 13.2207 22.7146 12.1004 22.4046 10.9936C22.368 10.8634 22.3205 10.7366 22.2697 10.6111C22.0208 10.0008 21.4261 9.69901 20.7425 9.85295C20.796 10.445 20.8517 11.0411 20.9032 11.6372C20.9737 12.4476 21.0443 13.258 21.1087 14.0684C21.129 14.3295 20.9764 14.5132 20.7459 14.5322C20.5072 14.5526 20.3315 14.4136 20.3064 14.1457C20.2203 13.2261 20.1471 12.3058 20.0664 11.3856C20.0141 10.7861 19.9653 10.1866 19.9009 9.58847C19.8656 9.25888 19.7673 8.93676 19.4201 8.8113C19.0118 8.66346 18.6002 8.69195 18.2326 8.94693C18.0475 9.0751 18.0244 9.28059 18.0353 9.49421C18.0963 10.6539 18.156 11.8128 18.2123 12.9725C18.2414 13.5652 18.2658 14.1579 18.2862 14.7506C18.297 15.0673 18.1424 15.2606 17.8915 15.266C17.6419 15.2714 17.4914 15.0842 17.4744 14.7655C17.3219 11.9227 17.1788 9.07917 17.0058 6.23702C16.9536 5.37644 16.8309 4.51857 16.7122 3.66341C16.6308 3.07477 16.3168 3.01103 15.8041 3.31959C15.7384 3.3596 15.6956 3.48777 15.6929 3.57661C15.6651 4.5084 15.6265 5.44018 15.6305 6.37197C15.6387 8.39763 15.697 10.4233 15.6827 12.4483C15.6726 13.9307 15.5797 15.4118 15.5227 16.8936C15.5159 17.0631 15.5119 17.2326 15.4949 17.4015C15.4712 17.6416 15.2955 17.7942 15.0711 17.782C14.8601 17.7704 14.6947 17.6097 14.694 17.3798C14.694 17.1174 14.7313 16.8549 14.7286 16.5931C14.7272 16.4982 14.6716 16.3931 14.6153 16.3104C14.3549 15.9286 14.0369 15.5779 13.8293 15.1704C13.2651 14.0636 12.3476 13.4377 11.1893 13.123C10.9974 13.0708 10.7641 13.0986 10.5674 13.1535C10.2385 13.2451 10.1348 13.5096 10.3036 13.8066C10.4494 14.0623 10.6122 14.3173 10.8109 14.5329C11.8254 15.6376 12.4893 16.9275 12.9911 18.336C13.2631 19.1003 13.7154 19.8029 14.1108 20.5197C14.4865 21.2012 14.9497 21.8394 15.2745 22.5426C15.657 23.37 16.2626 23.943 17.0099 24.4042C17.233 24.5418 17.4622 24.668 17.6894 24.7982C17.9491 24.9467 18.0366 25.1664 17.92 25.3834C17.8054 25.5977 17.5585 25.6635 17.3076 25.5102C16.818 25.2105 16.3263 24.9101 15.8597 24.5764C15.3722 24.2278 15.0148 23.7647 14.7286 23.2282C14.2783 22.3853 13.8002 21.5559 13.2963 20.7448C12.7843 19.9209 12.3571 19.0616 12.0519 18.1414C11.7115 17.1153 11.1866 16.1985 10.4759 15.3826C10.1876 15.0517 9.90689 14.7058 9.67767 14.3329C9.08157 13.3617 9.60782 12.352 10.7464 12.2835C11.0598 12.2645 11.3982 12.3004 11.6932 12.4028C12.9871 12.8531 14.0253 13.6194 14.6038 14.912C14.635 14.9812 14.675 15.0463 14.7103 15.1141C14.7218 15.1365 14.7313 15.1602 14.7415 15.1833C14.7611 15.1765 14.7808 15.1704 14.8011 15.1636C14.812 14.9669 14.8317 14.7703 14.8317 14.5743C14.8323 12.9053 14.8283 11.2364 14.8289 9.56745C14.8303 7.81305 14.8303 6.05866 14.8432 4.30427C14.8459 3.91569 14.8968 3.52778 14.9334 3.14056C14.9402 3.06867 14.9653 2.98187 15.0134 2.93236C15.421 2.51191 15.9072 2.23996 16.5067 2.34169C17.0838 2.43934 17.4032 2.84217 17.4805 3.40572C17.6148 4.37819 17.7267 5.35406 17.8305 6.32993C17.8929 6.91789 17.9213 7.50924 17.9661 8.11416C18.2136 8.05448 18.4367 7.98395 18.6653 7.94869C19.4825 7.82255 20.244 8.11687 20.5743 8.89811C20.598 8.95371 20.7092 8.99237 20.7845 9.00119C21.0768 9.03645 21.3786 9.02424 21.6634 9.08799C22.267 9.22294 22.7227 9.57016 22.9621 10.1554C23.1052 10.5067 23.2211 10.8702 23.3541 11.2405C23.565 11.271 23.8016 11.2852 24.0275 11.3422C24.9898 11.5843 25.4774 12.2685 25.6428 13.1949C25.7778 13.9524 25.8503 14.7208 25.95 15.485C26.0979 16.6182 26.2457 17.7521 26.3929 18.8853C26.42 19.0928 26.4403 19.3017 26.4641 19.5099V20.934C26.4539 20.9571 26.4363 20.9795 26.4342 21.0039C26.3034 22.3263 26.026 23.6216 25.7113 24.9101C25.691 24.9942 25.7262 25.1115 25.7737 25.1895C25.9968 25.5557 26.2328 25.9137 26.4641 26.2745V26.7831H25.906V26.7818Z" stroke="white" stroke-width="0.342647" mask="url(#path-1-outside-1_4795_64)"></path>
  <path d="M9.35775 26.7804C9.03698 26.7098 8.70401 26.6746 8.39884 26.5634C7.45077 26.2168 6.84586 25.4614 6.59087 24.339H6.3013C4.55844 24.339 2.81557 24.339 1.07271 24.339C0.996759 24.339 0.919449 24.3438 0.844174 24.3349C0.623773 24.3078 0.464406 24.1322 0.477291 23.9219C0.490854 23.6975 0.619704 23.5659 0.839427 23.5306C0.914024 23.5184 0.991334 23.5259 1.06729 23.5259C2.81015 23.5259 4.55301 23.5259 6.29587 23.5259H6.59019C6.74617 22.7087 7.14289 22.0529 7.83054 21.5904C8.3378 21.2493 8.89932 21.0839 9.50898 21.115C10.8999 21.1856 11.8737 22.0455 12.2277 23.5259C12.6583 23.5259 13.0964 23.5252 13.5345 23.5266C13.6186 23.5266 13.7074 23.5218 13.7854 23.5476C13.9855 23.6127 14.0886 23.7599 14.0737 23.9728C14.0587 24.1824 13.8919 24.3322 13.6573 24.337C13.2768 24.3444 12.8957 24.3397 12.5152 24.3397C12.423 24.3397 12.3315 24.3397 12.2881 24.3397C12.1097 24.7405 11.9883 25.1345 11.774 25.4688C11.2905 26.2243 10.5798 26.6474 9.68191 26.7397C9.60731 26.7471 9.53339 26.7668 9.45947 26.7804H9.35775ZM9.40861 21.8983C8.28423 21.901 7.37821 22.8111 7.37821 23.9382C7.37821 25.0579 8.29847 25.972 9.42082 25.9652C10.5323 25.9584 11.4356 25.0511 11.4383 23.9382C11.4404 22.8125 10.5276 21.8956 9.40861 21.8983Z" stroke="white" stroke-width="0.342647" mask="url(#path-1-outside-1_4795_64)"></path>
  <path d="M15.7042 0.742188C15.9239 0.800509 16.147 0.84798 16.3613 0.919865C16.6461 1.01548 16.7723 1.22843 16.6997 1.4529C16.6197 1.69907 16.3986 1.78587 16.0962 1.68957C15.0253 1.34846 13.981 1.82317 13.6073 2.83023C13.3469 3.53212 13.473 4.17773 13.9288 4.76366C13.9701 4.81723 14.021 4.86334 14.0617 4.91692C14.2068 5.10884 14.1899 5.34212 14.023 5.48793C13.8671 5.62356 13.6344 5.62085 13.471 5.46351C13.1224 5.12715 12.8925 4.71754 12.761 4.25165C12.7386 4.17163 12.7169 4.09092 12.6911 3.99734H12.3832C8.62016 3.99734 4.85707 3.99734 1.09398 3.99734C1.00921 3.99734 0.92376 4.00276 0.840347 3.99259C0.621302 3.96479 0.462614 3.78575 0.477533 3.5762C0.493809 3.35241 0.623337 3.22085 0.843738 3.18898C0.926473 3.17677 1.0126 3.18423 1.09737 3.18423C4.85232 3.18423 8.60659 3.18423 12.3615 3.18423H12.6647C12.7074 3.00926 12.7345 2.85058 12.7854 2.7007C13.1435 1.64956 13.8671 1.01142 14.9555 0.791015C15.003 0.781521 15.0484 0.759141 15.0945 0.742866C15.2973 0.742866 15.5014 0.742188 15.7042 0.742188Z" stroke="white" stroke-width="0.342647" mask="url(#path-1-outside-1_4795_64)"></path>
  <path d="M26.4691 3.73806C26.3253 3.94354 26.1287 3.99779 25.8805 3.99712C23.5632 3.98966 21.2466 3.99237 18.9294 3.99237C18.8534 3.99237 18.7754 3.99983 18.7015 3.98559C18.4838 3.94422 18.3509 3.80995 18.3516 3.5848C18.3516 3.35965 18.4838 3.22537 18.7022 3.18468C18.7761 3.17112 18.8541 3.17858 18.93 3.17858C21.2473 3.17858 23.5639 3.18129 25.8811 3.17383C26.1287 3.17316 26.326 3.22605 26.4691 3.43289V3.73806Z" stroke="white" stroke-width="0.342647" mask="url(#path-1-outside-1_4795_64)"></path>
  <path d="M6.14366 13.3542C6.72755 13.3542 7.31755 13.3542 7.90822 13.3542C7.99299 13.3542 8.07776 13.3508 8.16185 13.3556C8.42023 13.3685 8.59045 13.5332 8.58841 13.7638C8.58706 13.9937 8.41548 14.1633 8.15575 14.166C7.57254 14.1721 6.98864 14.168 6.40475 14.1687C6.3132 14.1687 6.22233 14.1687 6.1362 14.1687C5.73812 16.0879 4.1587 16.7314 3.0099 16.5931C1.55593 16.4174 0.479019 15.2347 0.468847 13.8215C0.457318 12.3309 1.47523 11.1543 2.96718 10.9332C4.4225 10.7175 5.64657 11.6432 6.14366 13.3542ZM5.3414 13.7686C5.34411 12.653 4.44352 11.7355 3.3388 11.7273C2.20086 11.7185 1.28263 12.6293 1.28196 13.7665C1.28128 14.8767 2.19069 15.7915 3.29812 15.7949C4.42385 15.7983 5.33801 14.8916 5.3414 13.7686Z" stroke="white" stroke-width="0.342647" mask="url(#path-1-outside-1_4795_64)"></path>
</svg>
