<?xml version="1.0" encoding="UTF-8"?>
<svg xmlns="http://www.w3.org/2000/svg" width="39" height="38" viewBox="0 0 39 38" fill="none">
  <path d="M22.7347 5.18893C29.5129 5.2483 35.2025 9.78752 36.6132 16.2614C38.1955 23.5269 33.3429 30.9013 25.8689 32.4985C21.2417 33.4871 17.0868 32.449 13.4376 29.5C13.006 29.1517 12.8079 28.7242 12.9562 28.1908C13.1908 27.3457 14.1943 27.0884 14.9448 27.6258C15.738 28.1938 16.5251 28.7964 17.3945 29.2338C24.3962 32.7627 33.029 28.5075 34.2945 20.9283C35.3193 14.7909 31.3015 9.03841 25.0401 7.8044C21.33 7.0731 17.9856 7.95877 15.0667 10.3189C14.7173 10.601 14.3527 10.7939 13.8896 10.6989C13.4001 10.598 13.069 10.3041 12.9481 9.83304C12.8283 9.36596 12.9674 8.95627 13.3452 8.63169C14.4472 7.68664 15.67 6.92664 17.0136 6.35268C18.8103 5.58476 20.8578 5.17211 22.7347 5.18794V5.18893Z" fill="white"></path>
  <path d="M23.2667 14.8571C23.2667 15.7587 23.2748 16.6592 23.2626 17.5607C23.2596 17.8002 23.3286 17.9714 23.5064 18.1426C25.0004 19.5854 26.4832 21.0381 27.9721 22.4849C28.2402 22.7461 28.4464 23.0262 28.4514 23.4161C28.4575 23.9237 28.2351 24.3017 27.77 24.5204C27.3048 24.7391 26.8529 24.6788 26.4588 24.3532C26.2282 24.1622 26.0221 23.9415 25.8068 23.7317C24.3199 22.283 22.8381 20.8283 21.3421 19.3884C20.9836 19.0431 20.8251 18.6581 20.8282 18.1683C20.8414 16.1683 20.8292 14.1684 20.8353 12.1684C20.8383 11.2669 21.6112 10.689 22.4359 10.9562C22.9305 11.1155 23.2586 11.547 23.2626 12.0804C23.2707 13.0066 23.2647 13.9319 23.2657 14.8581L23.2667 14.8571Z" fill="white"></path>
  <path d="M9.71915 20.2149C8.14798 20.2149 6.57681 20.2159 5.00564 20.2149C4.19822 20.2149 3.64368 19.732 3.64064 19.0354C3.63759 18.3328 4.18704 17.8459 4.99243 17.8449C8.14697 17.8439 11.3025 17.8429 14.457 17.8449C15.2563 17.8449 15.8109 18.3427 15.8038 19.0423C15.7967 19.7271 15.2482 20.214 14.4702 20.2149C12.8869 20.2179 11.3025 20.2149 9.71915 20.2149Z" fill="white"></path>
  <path d="M8.10099 14.6766C6.48005 14.6766 4.8581 14.6816 3.23716 14.6736C2.68567 14.6707 2.24692 14.3461 2.08544 13.8661C1.92802 13.3981 2.07224 12.8488 2.49677 12.5787C2.72833 12.4312 3.032 12.3204 3.30419 12.3184C6.50849 12.3006 9.7138 12.3026 12.9181 12.3105C13.6554 12.3125 14.2029 12.8518 14.1927 13.5119C14.1825 14.1808 13.6433 14.6726 12.8897 14.6756C11.2941 14.6816 9.69755 14.6776 8.102 14.6776L8.10099 14.6766Z" fill="white"></path>
  <path d="M11.3591 23.3849C12.9557 23.3849 14.5512 23.379 16.1478 23.3869C16.9491 23.3909 17.4732 23.9391 17.4133 24.6813C17.3645 25.285 16.8587 25.7491 16.1732 25.751C12.9557 25.7609 9.73818 25.7609 6.52068 25.751C5.7874 25.7491 5.23998 25.1959 5.25826 24.5388C5.27654 23.8778 5.80162 23.3909 6.53185 23.3869C8.1406 23.379 9.74935 23.3849 11.3581 23.3849H11.3591Z" fill="white"></path>
</svg>
