<?xml version="1.0" encoding="UTF-8"?>
<svg xmlns="http://www.w3.org/2000/svg" width="27" height="27" viewBox="0 0 27 27" fill="none">
  <g clip-path="url(#clip0_4042_1434)">
    <path d="M25.2411 26.0343L25.241 26.0342C25.0077 25.7648 24.8821 25.4872 24.8394 25.1894C24.7971 24.8933 24.8376 24.5829 24.9274 24.2484C25.2868 22.9088 25.6129 21.5546 25.5518 20.1708C25.5111 19.2482 25.3996 18.3297 25.2876 17.4077C25.2546 17.1355 25.2215 16.863 25.1902 16.59C25.0908 15.7247 24.9739 14.8609 24.8568 13.9964C24.8398 13.8707 24.8228 13.745 24.8059 13.6194L24.8059 13.6193C24.7809 13.4338 24.7335 13.2481 24.6791 13.064C24.5942 12.7786 24.4518 12.574 24.2603 12.4328C24.0903 12.3074 23.8765 12.2282 23.619 12.1909C23.6278 12.2705 23.6372 12.35 23.6467 12.4296C23.6772 12.6875 23.7077 12.9449 23.719 13.2013C23.7375 13.6181 23.732 14.0364 23.7163 14.452L23.7163 14.4521C23.71 14.6185 23.6587 14.7566 23.5621 14.8508C23.4647 14.9459 23.332 14.9856 23.1852 14.9751C23.0401 14.9646 22.9181 14.9016 22.8377 14.7912C22.7584 14.6825 22.726 14.537 22.739 14.3716L22.739 14.3715C22.8295 13.2281 22.6307 12.1187 22.3221 11.0167C22.2868 10.891 22.2407 10.7676 22.1904 10.6435C21.9671 10.096 21.4483 9.8132 20.8347 9.92175C20.848 10.0679 20.8614 10.2143 20.8747 10.361C20.9133 10.7828 20.9519 11.2063 20.9885 11.6298C21.0591 12.4401 21.1296 13.2508 21.1941 14.0616L21.1941 14.0617C21.2057 14.2105 21.1683 14.3441 21.0884 14.4444C21.0083 14.5451 20.8902 14.6062 20.7531 14.6176C20.7531 14.6176 20.753 14.6176 20.7529 14.6176L20.7459 14.5322C20.5072 14.5526 20.3315 14.4136 20.3064 14.1457C20.2518 13.5623 20.2023 12.9787 20.1529 12.395C20.1244 12.0586 20.0959 11.7221 20.0664 11.3856L25.2411 26.0343ZM25.2411 26.0343C25.39 26.2058 25.5207 26.3901 25.6542 26.5783C25.7086 26.655 25.7635 26.7324 25.8203 26.8099M25.2411 26.0343L25.8203 26.8099M13.8293 15.1704C13.2651 14.0636 12.3476 13.4377 11.1893 13.123C10.9974 13.0708 10.7641 13.0986 10.5674 13.1535L15.3523 22.5067C15.1876 22.1503 14.9885 21.8114 14.7848 21.4783C14.7398 21.4047 14.6946 21.3314 14.6495 21.2582C14.4898 20.9993 14.3313 20.7423 14.1858 20.4783L14.1858 20.4783C14.0926 20.3093 13.9968 20.142 13.9014 19.9753C13.588 19.428 13.2779 18.8864 13.0719 18.3073L13.0718 18.3073C12.5676 16.8919 11.8987 15.5908 10.874 14.475L10.8739 14.4749C10.6817 14.2663 10.5227 14.0179 10.378 13.7642L10.3036 13.8066L10.3781 13.7643C10.3024 13.6312 10.2949 13.5185 10.3284 13.4349C10.3617 13.3516 10.4438 13.2769 10.5904 13.2361L10.5905 13.236C10.7805 13.183 10.9963 13.1593 11.1668 13.2057L11.1668 13.2057C12.3065 13.5153 13.2018 14.1281 13.753 15.2092M13.8293 15.1704L13.753 15.2092M13.8293 15.1704L13.753 15.2093C13.753 15.2093 13.753 15.2093 13.753 15.2092M13.8293 15.1704C13.9651 15.437 14.1481 15.6792 14.3314 15.9217C14.4283 16.05 14.5253 16.1783 14.6153 16.3104M13.753 15.2092C13.8601 15.4195 13.9949 15.6137 14.1337 15.801C14.1773 15.8599 14.221 15.9178 14.2645 15.9753C14.3608 16.1027 14.4557 16.2283 14.5446 16.3586M14.5446 16.3586C14.5445 16.3586 14.5445 16.3586 14.5445 16.3585L14.6153 16.3104M14.5446 16.3586C14.5996 16.4395 14.6419 16.5264 14.6429 16.5943M14.5446 16.3586L14.6153 16.3104M14.6153 16.3104C14.6716 16.3931 14.7272 16.4982 14.7286 16.5931M14.6429 16.5943C14.6442 16.7212 14.6358 16.849 14.6268 16.9804L14.6258 16.995C14.6172 17.1208 14.6083 17.2501 14.6083 17.3798L14.6083 17.3801C14.6092 17.6565 14.8113 17.8535 15.0664 17.8675L15.0664 17.8675C15.3394 17.8823 15.5521 17.6928 15.5801 17.4101C15.5801 17.41 15.5801 17.41 15.5801 17.4099L14.6429 16.5943ZM14.6429 16.5943C14.6429 16.5942 14.6429 16.5941 14.6429 16.594L14.7286 16.5931M15.7785 3.57917C15.7729 3.76834 15.7668 3.95736 15.7607 4.14627C15.7368 4.88917 15.713 5.63025 15.7162 6.3716L15.7162 6.37163C15.7195 7.1978 15.7312 8.02546 15.7429 8.85357C15.7599 10.0521 15.7768 11.2515 15.7684 12.4489L19.9009 9.58847C19.8656 9.25888 19.7673 8.93676 19.4201 8.8113C19.0118 8.66346 18.6002 8.69195 18.2326 8.94693C18.0475 9.0751 18.0244 9.28059 18.0353 9.49421M15.7785 3.57917C15.7785 3.57919 15.7785 3.57921 15.7785 3.57923L15.6929 3.57661L15.7785 3.57917ZM15.7785 3.57917C15.7796 3.54553 15.7886 3.50116 15.8044 3.46158C15.8215 3.41892 15.8398 3.39817 15.8487 3.39278L15.8041 3.31959L15.8483 3.39298C15.9727 3.31812 16.081 3.26837 16.1735 3.24297C16.2661 3.21757 16.3376 3.21791 16.3928 3.23631C16.4964 3.27087 16.5877 3.3882 16.6273 3.67515L16.6273 3.67519C16.6332 3.7172 16.639 3.7592 16.6448 3.8012C16.758 4.61512 16.8709 5.42763 16.9203 6.24221L16.9203 6.24222C17.0515 8.39727 17.1654 10.553 17.2794 12.709C17.3157 13.396 17.352 14.0831 17.3889 14.7701C17.398 14.9406 17.4432 15.0871 17.5297 15.1918C17.6185 15.2995 17.7443 15.3549 17.8934 15.3516C18.0422 15.3484 18.1688 15.2883 18.2547 15.1775C18.3391 15.0687 18.3777 14.9196 18.3718 14.7477C18.3514 14.1546 18.327 13.5615 18.2978 12.9683C18.2978 12.9683 18.2978 12.9683 18.2978 12.9683L18.2123 12.9725M18.2123 12.9725C18.156 11.8128 18.0963 10.6539 18.0353 9.49421M18.2123 12.9725C18.2414 13.5652 18.2658 14.1579 18.2862 14.7506C18.297 15.0673 18.1424 15.2606 17.8915 15.266C17.6419 15.2714 17.4914 15.0843 17.4744 14.7655L18.2123 12.9725ZM18.0353 9.49421L18.1208 9.48986C18.1208 9.48981 18.1208 9.48976 18.1208 9.4897L18.0353 9.49421ZM14.7286 16.5931C14.73 16.7285 14.7207 16.8641 14.7114 16.9998C14.7027 17.1264 14.694 17.2531 14.694 17.3798L14.6429 16.5944L14.7286 16.5931ZM25.8203 26.8099V26.8688H25.906H26.4641H26.5497V26.7831V26.2745V26.2494L26.5362 26.2283C26.4748 26.1326 26.4133 26.0372 26.3518 25.942C26.1808 25.6772 26.0105 25.4134 25.8469 25.1449C25.8277 25.1134 25.8104 25.0727 25.8003 25.0316C25.7899 24.9894 25.7888 24.954 25.7946 24.9302C26.1094 23.641 26.3878 22.3417 26.5193 21.0139C26.5197 21.0129 26.5206 21.0109 26.5223 21.0076C26.5239 21.0046 26.5253 21.0019 26.5273 20.9983C26.5283 20.9965 26.5294 20.9945 26.5306 20.9922C26.534 20.986 26.5384 20.9778 26.5425 20.9686L26.5497 20.9521V20.934V19.5099H26.5503L26.5492 19.5002C26.5414 19.4318 26.5339 19.3629 26.5264 19.2936C26.5113 19.1541 26.496 19.0135 26.4778 18.8743C26.3307 17.7411 26.1828 16.6072 26.035 15.474C26.0051 15.2448 25.9776 15.0144 25.95 14.7835C25.886 14.2485 25.8218 13.7108 25.7272 13.1799L25.7272 13.1798C25.6426 12.7062 25.4746 12.2886 25.1999 11.9573C24.9245 11.625 24.5457 11.3843 24.0484 11.2591C24.0484 11.2591 24.0484 11.2591 24.0484 11.2591L24.0275 11.3422C23.8705 11.3026 23.7082 11.2836 23.553 11.2655C23.485 11.2575 23.4183 11.2498 23.3541 11.2405M25.8203 26.8099L23.3129 10.8643C23.2262 10.6139 23.1399 10.3649 23.0414 10.1231L23.0414 10.123C22.7903 9.50915 22.3101 9.14482 21.6821 9.0044M23.3541 11.2405L23.4347 11.2115C23.4288 11.1952 23.423 11.179 23.4172 11.1627C23.3999 11.1604 23.383 11.1581 23.3663 11.1557L23.3541 11.2405ZM23.3541 11.2405C23.3118 11.1228 23.2713 11.0058 23.2311 10.8897C23.1447 10.6404 23.0597 10.3951 22.9621 10.1554C22.7227 9.57016 22.267 9.22294 21.6634 9.08799M21.6634 9.08799L21.6821 9.0044M21.6634 9.08799C21.488 9.04874 21.3063 9.03828 21.1242 9.02781C21.0106 9.02128 20.8968 9.01474 20.7845 9.00119L21.6821 9.00439L21.6634 9.08799ZM21.6821 9.0044C21.5328 8.97098 21.3806 8.95779 21.2322 8.94841C21.1969 8.94619 21.162 8.94418 21.1273 8.94218C21.0143 8.93568 20.9042 8.92934 20.7948 8.91614L20.7945 8.91611C20.7649 8.91264 20.7266 8.9029 20.6946 8.88881C20.6788 8.88183 20.6669 8.87481 20.659 8.86873C20.655 8.86559 20.653 8.86349 20.6523 8.86262C20.3023 8.03757 19.4965 7.7337 18.6522 7.86403C18.4924 7.88869 18.3322 7.93086 18.1701 7.97355C18.1283 7.98457 18.0863 7.99562 18.0442 8.00641C18.0333 7.85402 18.0232 7.70204 18.0132 7.55047C17.9859 7.13771 17.9588 6.72795 17.9157 6.32089L17.9157 6.32087C17.8119 5.34461 17.6999 4.36778 17.5654 3.39407C17.525 3.09951 17.4205 2.84102 17.2453 2.64234C17.0695 2.44293 16.8271 2.30903 16.521 2.25723L21.6821 9.0044ZM17.8305 6.32993C17.7267 5.35406 17.6148 4.37819 17.4805 3.40572L17.8305 6.32993ZM17.8305 6.32993C17.8735 6.73526 17.9004 7.1422 17.9276 7.55409C17.938 7.71112 17.9484 7.86888 17.9598 8.02754L17.8305 6.32993ZM17.263 25.5833L17.2629 25.5833L17.2447 25.5722C16.7615 25.2764 16.2736 24.9777 15.8099 24.6461C15.3087 24.2878 14.9435 23.8131 14.653 23.2686C14.2036 22.4272 13.7264 21.5995 13.2236 20.79C12.7087 19.9615 12.2783 19.0962 11.9706 18.1683C11.6338 17.1532 11.1146 16.2462 10.4113 15.4389L10.4113 15.4389C10.122 15.1068 9.83763 14.7567 9.60469 14.3777L9.60467 14.3777C9.29347 13.8707 9.27012 13.3433 9.48558 12.9301C9.70104 12.5168 10.147 12.2337 10.7413 12.198M17.263 25.5833L14.8432 4.30427L14.7575 4.30364C14.7575 4.30365 14.7575 4.30366 14.7575 4.30367C14.7459 5.89129 14.7448 7.47889 14.7437 9.06616C14.7435 9.23324 14.7434 9.40031 14.7433 9.56738V9.56741C14.7429 10.402 14.7438 11.2365 14.7446 12.0709V12.0711C14.7455 12.9055 14.7463 13.7399 14.746 14.5742V14.5743C14.746 14.7053 14.7371 14.8347 14.728 14.9675C14.7116 14.9377 14.6963 14.9087 14.6819 14.8769C14.0914 13.5575 13.0313 12.7778 11.7213 12.3219L11.7212 12.3219C11.4138 12.2152 11.0639 12.1784 10.7413 12.198M17.263 25.5833C17.4037 25.6693 17.5507 25.698 17.6837 25.6682C17.8172 25.6383 17.9274 25.5512 17.9955 25.4238L17.92 25.3834C18.0366 25.1664 17.9491 24.9467 17.6894 24.7982L17.732 24.7238C17.732 24.7238 17.732 24.7238 17.7319 24.7238C17.6725 24.6897 17.6132 24.6561 17.5541 24.6226C17.3857 24.527 17.2189 24.4324 17.0549 24.3313C16.3175 23.8763 15.7258 23.3147 15.3523 22.5067L17.263 25.5833ZM10.7413 12.198L10.7464 12.2835L10.7413 12.198C10.7413 12.198 10.7413 12.198 10.7413 12.198ZM10.8109 14.5329C11.8254 15.6376 12.4893 16.9275 12.9911 18.336C13.2 18.9231 13.5154 19.4737 13.8295 20.0224C13.9244 20.188 14.0191 20.3535 14.1108 20.5197L10.8109 14.5329ZM25.3058 25.9782C24.8589 25.4621 24.8338 24.9277 25.0101 24.2706C25.3695 22.9312 25.6991 21.5654 25.6374 20.167C25.5965 19.2408 25.4845 18.3179 25.3724 17.3953C25.3394 17.1236 25.3064 16.852 25.2753 16.5803C25.1758 15.714 25.0587 14.8493 24.9417 13.9848C24.9247 13.8591 24.9077 13.7335 24.8908 13.6079L25.3058 25.9782ZM16.521 2.25723C15.8828 2.14895 15.3699 2.44154 14.952 2.87269C14.8836 2.94303 14.8556 3.05348 14.8481 3.13249L16.521 2.25723ZM26.4641 19.5099V20.934L25.8646 14.7909C25.8922 15.0224 25.9199 15.2539 25.95 15.485C26.0979 16.6182 26.2457 17.7521 26.3929 18.8853C26.411 19.0237 26.426 19.1626 26.4411 19.3016C26.4486 19.371 26.4562 19.4405 26.4641 19.5099ZM14.6709 15.0414C14.6842 15.0655 14.6975 15.0896 14.7103 15.1141L14.6038 14.912C14.6237 14.9562 14.6473 14.9988 14.6709 15.0414Z" fill="white" stroke="white" stroke-width="0.171324"></path>
    <path d="M9.34844 26.8641L9.33936 26.8621C9.23906 26.84 9.13936 26.8218 9.03799 26.8033C8.97807 26.7923 8.91757 26.7813 8.85603 26.7692C8.69312 26.7374 8.52841 26.6998 8.36951 26.6419L8.36943 26.6419C7.40836 26.2906 6.79195 25.5317 6.523 24.4227H6.3013H6.29109H6.28087H6.27066H6.26045H6.25024H6.24003H6.22981H6.2196H6.20939H6.19918H6.18897H6.17875H6.16854H6.15833H6.14812H6.13791H6.12769H6.11748H6.10727H6.09706H6.08685H6.07663H6.06642H6.05621H6.046H6.03578H6.02557H6.01536H6.00515H5.99494H5.98472H5.97451H5.9643H5.95409H5.94388H5.93366H5.92345H5.91324H5.90303H5.89282H5.8826H5.87239H5.86218H5.85197H5.84176H5.83154H5.82133H5.81112H5.80091H5.79069H5.78048H5.77027H5.76006H5.74985H5.73963H5.72942H5.71921H5.709H5.69879H5.68857H5.67836H5.66815H5.65794H5.64773H5.63751H5.6273H5.61709H5.60688H5.59667H5.58645H5.57624H5.56603H5.55582H5.5456H5.53539H5.52518H5.51497H5.50476H5.49454H5.48433H5.47412H5.46391H5.4537H5.44348H5.43327H5.42306H5.41285H5.40264H5.39242H5.38221H5.372H5.36179H5.35158H5.34136H5.33115H5.32094H5.31073H5.30052H5.2903H5.28009H5.26988H5.25967H5.24945H5.23924H5.22903H5.21882H5.20861H5.19839H5.18818H5.17797H5.16776H5.15755H5.14733H5.13712H5.12691H5.1167H5.10649H5.09627H5.08606H5.07585H5.06564H5.05543H5.04521H5.035H5.02479H5.01458H5.00436H4.99415H4.98394H4.97373H4.96352H4.9533H4.94309H4.93288H4.92267H4.91246H4.90224H4.89203H4.88182H4.87161H4.8614H4.85118H4.84097H4.83076H4.82055H4.81034H4.80012H4.78991H4.7797H4.76949H4.75927H4.74906H4.73885H4.72864H4.71843H4.70821H4.698H4.68779H4.67758H4.66737H4.65715H4.64694H4.63673H4.62652H4.61631H4.60609H4.59588H4.58567H4.57546H4.56525H4.55503H4.54482H4.53461H4.5244H4.51418H4.50397H4.49376H4.48355H4.47334H4.46312H4.45291H4.4427H4.43249H4.42228H4.41206H4.40185H4.39164H4.38143H4.37122H4.361H4.35079H4.34058H4.33037H4.32015H4.30994H4.29973H4.28952H4.27931H4.26909H4.25888H4.24867H4.23846H4.22825H4.21803H4.20782H4.19761H4.1874H4.17719H4.16697H4.15676H4.14655H4.13634H4.12613H4.11591H4.1057H4.09549H4.08528H4.07507H4.06485H4.05464H4.04443H4.03422H4.024H4.01379H4.00358H3.99337H3.98316H3.97294H3.96273H3.95252H3.94231H3.9321H3.92188H3.91167H3.90146H3.89125H3.88104H3.87082H3.86061H3.8504H3.84019H3.82998H3.81976H3.80955H3.79934H3.78913H3.77891H3.7687H3.75849H3.74828H3.73807H3.72785H3.71764H3.70743H3.69722H3.68701H3.67679H3.66658H3.65637H3.64616H3.63595H3.62573H3.61552H3.60531H3.5951H3.58489H3.57467H3.56446H3.55425H3.54404H3.53382H3.52361H3.5134H3.50319H3.49298H3.48276H3.47255H3.46234H3.45213H3.44192H3.4317H3.42149H3.41128H3.40107H3.39086H3.38064H3.37043H3.36022H3.35001H3.3398H3.32958H3.31937H3.30916H3.29895H3.28873H3.27852H3.26831H3.2581H3.24789H3.23767H3.22746H3.21725H3.20704H3.19683H3.18661H3.1764H3.16619H3.15598H3.14577H3.13555H3.12534H3.11513H3.10492H3.09471H3.08449H3.07428H3.06407H3.05386H3.04364H3.03343H3.02322H3.01301H3.0028H2.99258H2.98237H2.97216H2.96195H2.95174H2.94152H2.93131H2.9211H2.91089H2.90068H2.89046H2.88025H2.87004H2.85983H2.84962H2.8394H2.82919H2.81898H2.80877H2.79855H2.78834H2.77813H2.76792H2.75771H2.74749H2.73728H2.72707H2.71686H2.70665H2.69643H2.68622H2.67601H2.6658H2.65559H2.64537H2.63516H2.62495H2.61474H2.60453H2.59431H2.5841H2.57389H2.56368H2.55346H2.54325H2.53304H2.52283H2.51262H2.5024H2.49219H2.48198H2.47177H2.46156H2.45134H2.44113H2.43092H2.42071H2.4105H2.40028H2.39007H2.37986H2.36965H2.35944H2.34922H2.33901H2.3288H2.31859H2.30837H2.29816H2.28795H2.27774H2.26753H2.25731H2.2471H2.23689H2.22668H2.21647H2.20625H2.19604H2.18583H2.17562H2.16541H2.15519H2.14498H2.13477H2.12456H2.11435H2.10413H2.09392H2.08371H2.0735H2.06328H2.05307H2.04286H2.03265H2.02244H2.01222H2.00201H1.9918H1.98159H1.97138H1.96116H1.95095H1.94074H1.93053H1.92032H1.9101H1.89989H1.88968H1.87947H1.86926H1.85904H1.84883H1.83862H1.82841H1.81819H1.80798H1.79777H1.78756H1.77735H1.76713H1.75692H1.74671H1.7365H1.72629H1.71607H1.70586H1.69565H1.68544H1.67523H1.66501H1.6548H1.64459H1.63438H1.62417H1.61395H1.60374H1.59353H1.58332H1.5731H1.56289H1.55268H1.54247H1.53226H1.52204H1.51183H1.50162H1.49141H1.4812H1.47098H1.46077H1.45056H1.44035H1.43014H1.41992H1.40971H1.3995H1.38929H1.37908H1.36886H1.35865H1.34844H1.33823H1.32801H1.3178H1.30759H1.29738H1.28717H1.27695H1.26674H1.25653H1.24632H1.23611H1.22589H1.21568H1.20547H1.19526H1.18505H1.17483H1.16462H1.15441H1.1442H1.13399H1.12377H1.11356H1.10335H1.09314H1.08292H1.07271C1.05601 24.4227 1.03819 24.423 1.0196 24.4233C0.961629 24.4243 0.896215 24.4253 0.83421 24.4181L0.83371 24.418C0.574073 24.386 0.375797 24.1757 0.39179 23.9147L0.477291 23.92M9.34844 26.8641L12.2277 23.5239C11.8737 22.0435 10.8999 21.1836 9.50898 21.1131L9.51336 21.0275C9.51335 21.0275 9.51333 21.0275 9.51332 21.0275C8.88419 20.9954 8.30453 21.1665 7.78274 21.5174L7.78273 21.5174C7.09384 21.9807 6.68882 22.6332 6.51999 23.4383H6.29587H6.28566H6.27545H6.26524H6.25503H6.24481H6.2346H6.22439H6.21418H6.20396H6.19375H6.18354H6.17333H6.16312H6.1529H6.14269H6.13248H6.12227H6.11206H6.10184H6.09163H6.08142H6.07121H6.061H6.05078H6.04057H6.03036H6.02015H6.00994H5.99972H5.98951H5.9793H5.96909H5.95887H5.94866H5.93845H5.92824H5.91803H5.90781H5.8976H5.88739H5.87718H5.86697H5.85675H5.84654H5.83633H5.82612H5.81591H5.80569H5.79548H5.78527H5.77506H5.76485H5.75463H5.74442H5.73421H5.724H5.71378H5.70357H5.69336H5.68315H5.67294H5.66272H5.65251H5.6423H5.63209H5.62188H5.61166H5.60145H5.59124H5.58103H5.57082H5.5606H5.55039H5.54018H5.52997H5.51976H5.50954H5.49933H5.48912H5.47891H5.46869H5.45848H5.44827H5.43806H5.42785H5.41763H5.40742H5.39721H5.387H5.37679H5.36657H5.35636H5.34615H5.33594H5.32573H5.31551H5.3053H5.29509H5.28488H5.27467H5.26445H5.25424H5.24403H5.23382H5.22361H5.21339H5.20318H5.19297H5.18276H5.17254H5.16233H5.15212H5.14191H5.1317H5.12148H5.11127H5.10106H5.09085H5.08064H5.07042H5.06021H5.05H5.03979H5.02958H5.01936H5.00915H4.99894H4.98873H4.97852H4.9683H4.95809H4.94788H4.93767H4.92745H4.91724H4.90703H4.89682H4.88661H4.87639H4.86618H4.85597H4.84576H4.83555H4.82533H4.81512H4.80491H4.7947H4.78449H4.77427H4.76406H4.75385H4.74364H4.73343H4.72321H4.713H4.70279H4.69258H4.68236H4.67215H4.66194H4.65173H4.64152H4.6313H4.62109H4.61088H4.60067H4.59046H4.58024H4.57003H4.55982H4.54961H4.5394H4.52918H4.51897H4.50876H4.49855H4.48834H4.47812H4.46791H4.4577H4.44749H4.43727H4.42706H4.41685H4.40664H4.39643H4.38621H4.376H4.36579H4.35558H4.34537H4.33515H4.32494H4.31473H4.30452H4.29431H4.28409H4.27388H4.26367H4.25346H4.24325H4.23303H4.22282H4.21261H4.2024H4.19218H4.18197H4.17176H4.16155H4.15134H4.14112H4.13091H4.1207H4.11049H4.10028H4.09006H4.07985H4.06964H4.05943H4.04922H4.039H4.02879H4.01858H4.00837H3.99816H3.98794H3.97773H3.96752H3.95731H3.94709H3.93688H3.92667H3.91646H3.90625H3.89603H3.88582H3.87561H3.8654H3.85519H3.84497H3.83476H3.82455H3.81434H3.80413H3.79391H3.7837H3.77349H3.76328H3.75307H3.74285H3.73264H3.72243H3.71222H3.702H3.69179H3.68158H3.67137H3.66116H3.65094H3.64073H3.63052H3.62031H3.6101H3.59988H3.58967H3.57946H3.56925H3.55904H3.54882H3.53861H3.5284H3.51819H3.50798H3.49776H3.48755H3.47734H3.46713H3.45691H3.4467H3.43649H3.42628H3.41607H3.40585H3.39564H3.38543H3.37522H3.36501H3.35479H3.34458H3.33437H3.32416H3.31395H3.30373H3.29352H3.28331H3.2731H3.26289H3.25267H3.24246H3.23225H3.22204H3.21182H3.20161H3.1914H3.18119H3.17098H3.16076H3.15055H3.14034H3.13013H3.11992H3.1097H3.09949H3.08928H3.07907H3.06886H3.05864H3.04843H3.03822H3.02801H3.0178H3.00758H2.99737H2.98716H2.97695H2.96673H2.95652H2.94631H2.9361H2.92589H2.91567H2.90546H2.89525H2.88504H2.87483H2.86461H2.8544H2.84419H2.83398H2.82377H2.81355H2.80334H2.79313H2.78292H2.77271H2.76249H2.75228H2.74207H2.73186H2.72164H2.71143H2.70122H2.69101H2.6808H2.67058H2.66037H2.65016H2.63995H2.62974H2.61952H2.60931H2.5991H2.58889H2.57868H2.56846H2.55825H2.54804H2.53783H2.52762H2.5174H2.50719H2.49698H2.48677H2.47655H2.46634H2.45613H2.44592H2.43571H2.42549H2.41528H2.40507H2.39486H2.38465H2.37443H2.36422H2.35401H2.3438H2.33359H2.32337H2.31316H2.30295H2.29274H2.28253H2.27231H2.2621H2.25189H2.24168H2.23146H2.22125H2.21104H2.20083H2.19062H2.1804H2.17019H2.15998H2.14977H2.13956H2.12934H2.11913H2.10892H2.09871H2.0885H2.07828H2.06807H2.05786H2.04765H2.03744H2.02722H2.01701H2.0068H1.99659H1.98637H1.97616H1.96595H1.95574H1.94553H1.93531H1.9251H1.91489H1.90468H1.89447H1.88425H1.87404H1.86383H1.85362H1.84341H1.83319H1.82298H1.81277H1.80256H1.79235H1.78213H1.77192H1.76171H1.7515H1.74128H1.73107H1.72086H1.71065H1.70044H1.69022H1.68001H1.6698H1.65959H1.64938H1.63916H1.62895H1.61874H1.60853H1.59832H1.5881H1.57789H1.56768H1.55747H1.54726H1.53704H1.52683H1.51662H1.50641H1.49619H1.48598H1.47577H1.46556H1.45535H1.44513H1.43492H1.42471H1.4145H1.40429H1.39407H1.38386H1.37365H1.36344H1.35323H1.34301H1.3328H1.32259H1.31238H1.30217H1.29195H1.28174H1.27153H1.26132H1.2511H1.24089H1.23068H1.22047H1.21026H1.20004H1.18983H1.17962H1.16941H1.1592H1.14898H1.13877H1.12856H1.11835H1.10814H1.09792H1.08771H1.0775H1.06729C1.05121 23.4383 1.03336 23.4378 1.01431 23.4373C0.956812 23.4357 0.888465 23.4339 0.825594 23.4442L0.839427 23.5287M9.34844 26.8641H9.35775H9.45947H9.46727L9.47493 26.8627C9.50443 26.8573 9.5312 26.8516 9.5566 26.8462C9.60303 26.8364 9.64488 26.8275 9.69043 26.823L9.69066 26.8229C10.6134 26.7282 11.348 26.2914 11.8461 25.5131C11.9574 25.3396 12.0436 25.152 12.1236 24.9602C12.1536 24.8883 12.1824 24.8166 12.2113 24.7446C12.254 24.6384 12.2969 24.5318 12.344 24.4234H12.3443H12.3447H12.3451H12.3455H12.3459H12.3463H12.3467H12.3471H12.3475H12.348H12.3484H12.3488H12.3492H12.3496H12.35H12.3505H12.3509H12.3513H12.3517H12.3522H12.3526H12.353H12.3534H12.3538H12.3543H12.3547H12.3551H12.3556H12.356H12.3564H12.3568H12.3573H12.3577H12.3581H12.3586H12.359H12.3594H12.3599H12.3603H12.3607H12.3612H12.3616H12.3621H12.3625H12.3629H12.3634H12.3638H12.3643H12.3647H12.3651H12.3656H12.366H12.3665H12.3669H12.3674H12.3678H12.3683H12.3687H12.3692H12.3696H12.37H12.3705H12.3709H12.3714H12.3719H12.3723H12.3728H12.3732H12.3737H12.3741H12.3746H12.375H12.3755H12.3759H12.3764H12.3769H12.3773H12.3778H12.3782H12.3787H12.3792H12.3796H12.3801H12.3806H12.381H12.3815H12.3819H12.3824H12.3829H12.3833H12.3838H12.3843H12.3847H12.3852H12.3857H12.3862H12.3866H12.3871H12.3876H12.388H12.3885H12.389H12.3895H12.3899H12.3904H12.3909H12.3914H12.3918H12.3923H12.3928H12.3933H12.3937H12.3942H12.3947H12.3952H12.3957H12.3961H12.3966H12.3971H12.3976H12.3981H12.3986H12.399H12.3995H12.4H12.4005H12.401H12.4015H12.402H12.4024H12.4029H12.4034H12.4039H12.4044H12.4049H12.4054H12.4059H12.4064H12.4069H12.4073H12.4078H12.4083H12.4088H12.4093H12.4098H12.4103H12.4108H12.4113H12.4118H12.4123H12.4128H12.4133H12.4138H12.4143H12.4148H12.4153H12.4158H12.4163H12.4168H12.4173H12.4178H12.4183H12.4188H12.4193H12.4198H12.4203H12.4208H12.4213H12.4218H12.4223H12.4228H12.4233H12.4238H12.4243H12.4248H12.4253H12.4258H12.4264H12.4269H12.4274H12.4279H12.4284H12.4289H12.4294H12.4299H12.4304H12.4309H12.4315H12.432H12.4325H12.433H12.4335H12.434H12.4345H12.435H12.4356H12.4361H12.4366H12.4371H12.4376H12.4381H12.4386H12.4392H12.4397H12.4402H12.4407H12.4412H12.4417H12.4423H12.4428H12.4433H12.4438H12.4443H12.4449H12.4454H12.4459H12.4464H12.4469H12.4475H12.448H12.4485H12.449H12.4496H12.4501H12.4506H12.4511H12.4516H12.4522H12.4527H12.4532H12.4537H12.4543H12.4548H12.4553H12.4558H12.4564H12.4569H12.4574H12.4579H12.4585H12.459H12.4595H12.4601H12.4606H12.4611H12.4616H12.4622H12.4627H12.4632H12.4638H12.4643H12.4648H12.4653H12.4659H12.4664H12.4669H12.4675H12.468H12.4685H12.4691H12.4696H12.4701H12.4706H12.4712H12.4717H12.4722H12.4728H12.4733H12.4738H12.4744H12.4749H12.4754H12.476H12.4765H12.477H12.4776H12.4781H12.4786H12.4792H12.4797H12.4803H12.4808H12.4813H12.4819H12.4824H12.4829H12.4835H12.484H12.4845H12.4851H12.4856H12.4861H12.4867H12.4872H12.4878H12.4883H12.4888H12.4894H12.4899H12.4904H12.491H12.4915H12.4921H12.4926H12.4931H12.4937H12.4942H12.4947H12.4953H12.4958H12.4964H12.4969H12.4974H12.498H12.4985H12.4991H12.4996H12.5001H12.5007H12.5012H12.5017H12.5023H12.5028H12.5034H12.5039H12.5044H12.505H12.5055H12.5061H12.5066H12.5071H12.5077H12.5082H12.5088H12.5093H12.5098H12.5104H12.5109H12.5115H12.512H12.5125H12.5131H12.5136H12.5142H12.5147H12.5152C12.6211 24.4234 12.7272 24.4238 12.8336 24.4241C13.1081 24.4251 13.3839 24.4261 13.6589 24.4207L13.659 24.4207C13.932 24.4151 14.1406 24.2363 14.1591 23.9769L14.1591 23.9768C14.1676 23.8549 14.1427 23.7448 14.0809 23.6545C14.0192 23.5643 13.9262 23.5014 13.8121 23.4642C13.73 23.4371 13.6383 23.438 13.566 23.4387C13.5551 23.4389 13.5446 23.439 13.5346 23.439C13.2057 23.4379 12.8767 23.4381 12.5511 23.4382C12.4654 23.4382 12.38 23.4383 12.2948 23.4383L9.34844 26.8641ZM0.477291 23.92L0.391785 23.9148C0.399516 23.7869 0.440868 23.6775 0.518604 23.5947C0.595998 23.5123 0.702213 23.464 0.825852 23.4441L0.839427 23.5287M0.477291 23.92C0.490854 23.6955 0.619704 23.564 0.839427 23.5287M0.477291 23.92C0.464406 24.1302 0.623773 24.3059 0.844174 24.333C0.899965 24.3395 0.956873 24.3386 1.01352 24.3377C1.0333 24.3374 1.05305 24.3371 1.07271 24.3371H6.3013H6.59087C6.84586 25.4594 7.45077 26.2149 8.39884 26.5614L6.59019 23.5239H6.29587H1.06729C1.04642 23.5239 1.02544 23.5234 1.00445 23.5228C0.949051 23.5213 0.893525 23.5198 0.839427 23.5287M9.40882 21.982L9.44421 21.9819L9.44457 21.9816C10.4995 21.998 11.3546 22.8691 11.3527 23.9361C11.3501 25.002 10.4847 25.8711 9.4203 25.8776C8.34536 25.8841 7.46387 25.0083 7.46387 23.9363C7.46387 22.8562 8.33184 21.9846 9.40882 21.982Z" fill="white" stroke="white" stroke-width="0.171324"></path>
    <path d="M0.843738 3.18898L0.831477 3.1042C0.707122 3.12218 0.600352 3.16961 0.522156 3.25144C0.443715 3.33353 0.401364 3.44257 0.392097 3.56999L0.392088 3.57012C0.373581 3.83005 0.570573 4.0447 0.82956 4.07757L0.829977 4.07762C0.898311 4.08596 0.970102 4.08476 1.03452 4.08368C1.05522 4.08333 1.07516 4.083 1.09398 4.083H1.11603H1.13808H1.16013H1.18217H1.20422H1.22627H1.24832H1.27037H1.29242H1.31447H1.33652H1.35857H1.38062H1.40267H1.42472H1.44677H1.46882H1.49087H1.51292H1.53496H1.55701H1.57906H1.60111H1.62316H1.64521H1.66726H1.68931H1.71136H1.73341H1.75546H1.77751H1.79956H1.82161H1.84366H1.86571H1.88775H1.9098H1.93185H1.9539H1.97595H1.998H2.02005H2.0421H2.06415H2.0862H2.10825H2.1303H2.15235H2.1744H2.19645H2.21849H2.24054H2.26259H2.28464H2.30669H2.32874H2.35079H2.37284H2.39489H2.41694H2.43899H2.46104H2.48309H2.50514H2.52719H2.54924H2.57128H2.59333H2.61538H2.63743H2.65948H2.68153H2.70358H2.72563H2.74768H2.76973H2.79178H2.81383H2.83588H2.85793H2.87998H2.90202H2.92407H2.94612H2.96817H2.99022H3.01227H3.03432H3.05637H3.07842H3.10047H3.12252H3.14457H3.16662H3.18867H3.21072H3.23277H3.25481H3.27686H3.29891H3.32096H3.34301H3.36506H3.38711H3.40916H3.43121H3.45326H3.47531H3.49736H3.51941H3.54146H3.56351H3.58555H3.6076H3.62965H3.6517H3.67375H3.6958H3.71785H3.7399H3.76195H3.784H3.80605H3.8281H3.85015H3.8722H3.89425H3.9163H3.93834H3.96039H3.98244H4.00449H4.02654H4.04859H4.07064H4.09269H4.11474H4.13679H4.15884H4.18089H4.20294H4.22499H4.24704H4.26908H4.29113H4.31318H4.33523H4.35728H4.37933H4.40138H4.42343H4.44548H4.46753H4.48958H4.51163H4.53368H4.55573H4.57778H4.59983H4.62187H4.64392H4.66597H4.68802H4.71007H4.73212H4.75417H4.77622H4.79827H4.82032H4.84237H4.86442H4.88647H4.90852H4.93057H4.95261H4.97466H4.99671H5.01876H5.04081H5.06286H5.08491H5.10696H5.12901H5.15106H5.17311H5.19516H5.21721H5.23926H5.26131H5.28336H5.3054H5.32745H5.3495H5.37155H5.3936H5.41565H5.4377H5.45975H5.4818H5.50385H5.5259H5.54795H5.57H5.59205H5.6141H5.63615H5.65819H5.68024H5.70229H5.72434H5.74639H5.76844H5.79049H5.81254H5.83459H5.85664H5.87869H5.90074H5.92279H5.94484H5.96689H5.98893H6.01098H6.03303H6.05508H6.07713H6.09918H6.12123H6.14328H6.16533H6.18738H6.20943H6.23148H6.25353H6.27558H6.29763H6.31967H6.34172H6.36377H6.38582H6.40787H6.42992H6.45197H6.47402H6.49607H6.51812H6.54017H6.56222H6.58427H6.60632H6.62837H6.65042H6.67246H6.69451H6.71656H6.73861H6.76066H6.78271H6.80476H6.82681H6.84886H6.87091H6.89296H6.91501H6.93706H6.95911H6.98116H7.0032H7.02525H7.0473H7.06935H7.0914H7.11345H7.1355H7.15755H7.1796H7.20165H7.2237H7.24575H7.2678H7.28985H7.3119H7.33395H7.35599H7.37804H7.40009H7.42214H7.44419H7.46624H7.48829H7.51034H7.53239H7.55444H7.57649H7.59854H7.62059H7.64264H7.66469H7.68674H7.70878H7.73083H7.75288H7.77493H7.79698H7.81903H7.84108H7.86313H7.88518H7.90723H7.92928H7.95133H7.97338H7.99543H8.01748H8.03952H8.06157H8.08362H8.10567H8.12772H8.14977H8.17182H8.19387H8.21592H8.23797H8.26002H8.28207H8.30412H8.32617H8.34822H8.37027H8.39231H8.41436H8.43641H8.45846H8.48051H8.50256H8.52461H8.54666H8.56871H8.59076H8.61281H8.63486H8.65691H8.67896H8.701H8.72305H8.7451H8.76715H8.7892H8.81125H8.8333H8.85535H8.8774H8.89945H8.9215H8.94355H8.9656H8.98765H9.0097H9.03175H9.05379H9.07584H9.09789H9.11994H9.14199H9.16404H9.18609H9.20814H9.23019H9.25224H9.27429H9.29634H9.31839H9.34044H9.36249H9.38454H9.40658H9.42863H9.45068H9.47273H9.49478H9.51683H9.53888H9.56093H9.58298H9.60503H9.62708H9.64913H9.67118H9.69323H9.71528H9.73732H9.75937H9.78142H9.80347H9.82552H9.84757H9.86962H9.89167H9.91372H9.93577H9.95782H9.97987H10.0019H10.024H10.046H10.0681H10.0901H10.1122H10.1342H10.1563H10.1783H10.2004H10.2224H10.2445H10.2665H10.2886H10.3106H10.3327H10.3547H10.3768H10.3988H10.4209H10.4429H10.465H10.487H10.5091H10.5311H10.5532H10.5752H10.5972H10.6193H10.6413H10.6634H10.6854H10.7075H10.7295H10.7516H10.7736H10.7957H10.8177H10.8398H10.8618H10.8839H10.9059H10.928H10.95H10.9721H10.9941H11.0162H11.0382H11.0603H11.0823H11.1044H11.1264H11.1485H11.1705H11.1926H11.2146H11.2367H11.2587H11.2808H11.3028H11.3249H11.3469H11.369H11.391H11.4131H11.4351H11.4572H11.4792H11.5013H11.5233H11.5454H11.5674H11.5895H11.6115H11.6336H11.6556H11.6777H11.6997H11.7218H11.7438H11.7659H11.7879H11.81H11.832H11.8541H11.8761H11.8982H11.9202H11.9423H11.9643H11.9864H12.0084H12.0305H12.0525H12.0746H12.0966H12.1187H12.1407H12.1628H12.1848H12.2069H12.2289H12.251H12.273H12.2951H12.3171H12.3391H12.3612H12.3832H12.6258C12.6296 4.09675 12.6333 4.11029 12.6369 4.12365C12.6512 4.17605 12.6648 4.22567 12.6785 4.27472L12.6785 4.27493C12.8138 4.75379 13.0509 5.17715 13.4115 5.52516L13.4116 5.52523C13.606 5.71233 13.8887 5.71825 14.0792 5.55257L14.0794 5.55243C14.2839 5.37366 14.299 5.08878 14.13 4.86525L14.1299 4.86511C14.1067 4.83457 14.0811 4.80675 14.0585 4.78223L14.0584 4.78215C14.0349 4.75668 14.0145 4.73457 13.9966 4.7113L13.9964 4.71106C13.5573 4.14656 13.4384 3.53183 13.6876 2.86003C14.044 1.89947 15.0392 1.44277 16.0702 1.77119L16.0702 1.7712C16.233 1.82305 16.3853 1.82934 16.5126 1.77941C16.6428 1.72834 16.7344 1.6233 16.7812 1.47938L16.7812 1.47924C16.8249 1.34399 16.8092 1.20831 16.7372 1.09278C16.6662 0.978759 16.545 0.891173 16.3886 0.838657L16.3886 0.83865C16.2363 0.787593 16.0777 0.748062 15.9229 0.709473C15.8564 0.692886 15.7905 0.676472 15.7262 0.659393L15.6785 0.646738L15.668 0.657204H15.6679H15.6667H15.6655H15.6643H15.6631H15.6619H15.6607H15.6595H15.6583H15.6572H15.656H15.6548H15.6536H15.6524H15.6512H15.65H15.6488H15.6476H15.6465H15.6453H15.6441H15.6429H15.6417H15.6405H15.6393H15.6381H15.6369H15.6358H15.6346H15.6334H15.6322H15.631H15.6298H15.6286H15.6274H15.6262H15.6251H15.6239H15.6227H15.6215H15.6203H15.6191H15.6179H15.6167H15.6155H15.6144H15.6132H15.612H15.6108H15.6096H15.6084H15.6072H15.606H15.6048H15.6037H15.6025H15.6013H15.6001H15.5989H15.5977H15.5965H15.5953H15.5941H15.5929H15.5918H15.5906H15.5894H15.5882H15.587H15.5858H15.5846H15.5834H15.5822H15.5811H15.5799H15.5787H15.5775H15.5763H15.5751H15.5739H15.5727H15.5715H15.5704H15.5692H15.568H15.5668H15.5656H15.5644H15.5632H15.562H15.5608H15.5596H15.5585H15.5573H15.5561H15.5549H15.5537H15.5525H15.5513H15.5501H15.5489H15.5478H15.5466H15.5454H15.5442H15.543H15.5418H15.5406H15.5394H15.5382H15.537H15.5359H15.5347H15.5335H15.5323H15.5311H15.5299H15.5287H15.5275H15.5263H15.5251H15.524H15.5228H15.5216H15.5204H15.5192H15.518H15.5168H15.5156H15.5144H15.5132H15.5121H15.5109H15.5097H15.5085H15.5073H15.5061H15.5049H15.5037H15.5025H15.5014H15.5002H15.499H15.4978H15.4966H15.4954H15.4942H15.493H15.4918H15.4906H15.4895H15.4883H15.4871H15.4859H15.4847H15.4835H15.4823H15.4811H15.4799H15.4787H15.4776H15.4764H15.4752H15.474H15.4728H15.4716H15.4704H15.4692H15.468H15.4668H15.4657H15.4645H15.4633H15.4621H15.4609H15.4597H15.4585H15.4573H15.4561H15.4549H15.4538H15.4526H15.4514H15.4502H15.449H15.4478H15.4466H15.4454H15.4442H15.443H15.4419H15.4407H15.4395H15.4383H15.4371H15.4359H15.4347H15.4335H15.4323H15.4311H15.43H15.4288H15.4276H15.4264H15.4252H15.424H15.4228H15.4216H15.4204H15.4192H15.4181H15.4169H15.4157H15.4145H15.4133H15.4121H15.4109H15.4097H15.4085H15.4073H15.4061H15.405H15.4038H15.4026H15.4014H15.4002H15.399H15.3978H15.3966H15.3954H15.3942H15.3931H15.3919H15.3907H15.3895H15.3883H15.3871H15.3859H15.3847H15.3835H15.3823H15.3812H15.38H15.3788H15.3776H15.3764H15.3752H15.374H15.3728H15.3716H15.3704H15.3693H15.3681H15.3669H15.3657H15.3645H15.3633H15.3621H15.3609H15.3597H15.3585H15.3574H15.3562H15.355H15.3538H15.3526H15.3514H15.3502H15.349H15.3478H15.3466H15.3455H15.3443H15.3431H15.3419H15.3407H15.3395H15.3383H15.3371H15.3359H15.3347H15.3336H15.3324H15.3312H15.33H15.3288H15.3276H15.3264H15.3252H15.324H15.3228H15.3217H15.3205H15.3193H15.3181H15.3169H15.3157H15.3145H15.3133H15.3121H15.3109H15.3098H15.3086H15.3074H15.3062H15.305H15.3038H15.3026H15.3014H15.3002H15.299H15.2979H15.2967H15.2955H15.2943H15.2931H15.2919H15.2907H15.2895H15.2883H15.2871H15.286H15.2848H15.2836H15.2824H15.2812H15.28H15.2788H15.2776H15.2764H15.2753H15.2741H15.2729H15.2717H15.2705H15.2693H15.2681H15.2669H15.2657H15.2645H15.2634H15.2622H15.261H15.2598H15.2586H15.2574H15.2562H15.255H15.2538H15.2526H15.2515H15.2503H15.2491H15.2479H15.2467H15.2455H15.2443H15.2431H15.2419H15.2408H15.2396H15.2384H15.2372H15.236H15.2348H15.2336H15.2324H15.2312H15.23H15.2289H15.2277H15.2265H15.2253H15.2241H15.2229H15.2217H15.2205H15.2193H15.2182H15.217H15.2158H15.2146H15.2134H15.2122H15.211H15.2098H15.2086H15.2074H15.2063H15.2051H15.2039H15.2027H15.2015H15.2003H15.1991H15.1979H15.1967H15.1956H15.1944H15.1932H15.192H15.1908H15.1896H15.1884H15.1872H15.186H15.1849H15.1837H15.1825H15.1813H15.1801H15.1789H15.1777H15.1765H15.1753H15.1742H15.173H15.1718H15.1706H15.1694H15.1682H15.167H15.1658H15.1646H15.1635H15.1623H15.1611H15.1599H15.1587H15.1575H15.1563H15.1551H15.1539H15.1528H15.1516H15.1504H15.1492H15.148H15.1468H15.1456H15.1444H15.1432H15.1421H15.1409H15.1397H15.1385H15.1373H15.1361H15.1349H15.1337H15.1325H15.1314H15.1302H15.129H15.1278H15.1266H15.1254H15.1242H15.123H15.1218H15.1207H15.1195H15.1183H15.1171H15.1159H15.1147H15.1135H15.1123H15.1112H15.11H15.1088H15.1076H15.1064H15.1052H15.104H15.1028H15.1016H15.1005H15.0993H15.0981H15.0969H15.0957H15.0945H15.0798L15.066 0.662087C15.05 0.667721 15.0322 0.674796 15.0165 0.681026C15.0086 0.684149 15.0012 0.68706 14.9949 0.689471C14.9733 0.697755 14.9553 0.70369 14.9387 0.707016L14.9385 0.707057C13.8201 0.933525 13.0722 1.5932 12.7043 2.67308L12.7043 2.67317C12.6681 2.77988 12.6427 2.89374 12.6171 3.009C12.6104 3.03879 12.6038 3.06868 12.5969 3.09857H12.3615H12.3395H12.3175H12.2955H12.2735H12.2515H12.2295H12.2075H12.1855H12.1635H12.1415H12.1195H12.0975H12.0755H12.0535H12.0315H12.0095H11.9875H11.9655H11.9435H11.9215H11.8995H11.8775H11.8555H11.8335H11.8115H11.7895H11.7675H11.7455H11.7235H11.7015H11.6795H11.6575H11.6355H11.6135H11.5915H11.5695H11.5475H11.5255H11.5035H11.4815H11.4595H11.4375H11.4155H11.3935H11.3715H11.3495H11.3275H11.3055H11.2835H11.2615H11.2395H11.2175H11.1955H11.1735H11.1515H11.1295H11.1075H11.0855H11.0635H11.0415H11.0195H10.9975H10.9755H10.9535H10.9315H10.9095H10.8875H10.8655H10.8435H10.8215H10.7995H10.7775H10.7555H10.7335H10.7115H10.6895H10.6675H10.6455H10.6235H10.6015H10.5795H10.5575H10.5355H10.5135H10.4915H10.4695H10.4475H10.4255H10.4035H10.3815H10.3595H10.3375H10.3154H10.2934H10.2714H10.2494H10.2274H10.2054H10.1834H10.1614H10.1394H10.1174H10.0954H10.0734H10.0514H10.0294H10.0074H9.98544H9.96344H9.94144H9.91944H9.89744H9.87544H9.85344H9.83144H9.80944H9.78744H9.76544H9.74344H9.72144H9.69944H9.67744H9.65544H9.63344H9.61144H9.58944H9.56744H9.54544H9.52344H9.50144H9.47944H9.45744H9.43544H9.41344H9.39144H9.36944H9.34744H9.32544H9.30344H9.28144H9.25944H9.23744H9.21544H9.19344H9.17144H9.14944H9.12744H9.10544H9.08344H9.06144H9.03944H9.01744H8.99544H8.97344H8.95144H8.92944H8.90744H8.88544H8.86344H8.84144H8.81944H8.79744H8.77544H8.75344H8.73144H8.70944H8.68744H8.66544H8.64344H8.62144H8.59944H8.57744H8.55544H8.53344H8.51144H8.48944H8.46744H8.44544H8.42344H8.40144H8.37944H8.35744H8.33544H8.31344H8.29144H8.26944H8.24744H8.22544H8.20344H8.18144H8.15944H8.13744H8.11544H8.09344H8.07144H8.04944H8.02744H8.00544H7.98344H7.96144H7.93944H7.91744H7.89544H7.87344H7.85144H7.82944H7.80744H7.78544H7.76344H7.74144H7.71944H7.69744H7.67544H7.65344H7.63144H7.60945H7.58745H7.56545H7.54345H7.52145H7.49945H7.47745H7.45545H7.43345H7.41145H7.38945H7.36745H7.34545H7.32345H7.30145H7.27945H7.25745H7.23545H7.21345H7.19145H7.16945H7.14745H7.12545H7.10345H7.08145H7.05945H7.03745H7.01545H6.99345H6.97145H6.94945H6.92745H6.90545H6.88346H6.86146H6.83946H6.81746H6.79546H6.77346H6.75146H6.72946H6.70746H6.68546H6.66346H6.64146H6.61946H6.59746H6.57546H6.55346H6.53146H6.50946H6.48746H6.46546H6.44346H6.42146H6.39946H6.37746H6.35546H6.33346H6.31146H6.28946H6.26746H6.24546H6.22346H6.20146H6.17947H6.15747H6.13547H6.11347H6.09147H6.06947H6.04747H6.02547H6.00347H5.98147H5.95947H5.93747H5.91547H5.89347H5.87147H5.84947H5.82747H5.80547H5.78347H5.76147H5.73947H5.71747H5.69547H5.67347H5.65147H5.62947H5.60747H5.58547H5.56347H5.54147H5.51947H5.49747H5.47547H5.45347H5.43147H5.40947H5.38747H5.36547H5.34347H5.32148H5.29948H5.27748H5.25548H5.23348H5.21148H5.18948H5.16748H5.14548H5.12348H5.10148H5.07948H5.05748H5.03548H5.01348H4.99148H4.96948H4.94748H4.92548H4.90348H4.88148H4.85948H4.83748H4.81548H4.79348H4.77148H4.74948H4.72748H4.70548H4.68348H4.66148H4.63948H4.61748H4.59548H4.57348H4.55148H4.52948H4.50748H4.48548H4.46348H4.44148H4.41948H4.39748H4.37548H4.35348H4.33148H4.30948H4.28748H4.26548H4.24348H4.22148H4.19948H4.17748H4.15548H4.13348H4.11148H4.08948H4.06748H4.04548H4.02348H4.00148H3.97948H3.95748H3.93548H3.91348H3.89148H3.86948H3.84748H3.82548H3.80348H3.78148H3.75947H3.73747H3.71547H3.69347H3.67147H3.64947H3.62747H3.60547H3.58347H3.56147H3.53947H3.51747H3.49547H3.47347H3.45147H3.42947H3.40747H3.38547H3.36347H3.34147H3.31947H3.29747H3.27547H3.25347H3.23147H3.20947H3.18747H3.16547H3.14346H3.12146H3.09946H3.07746H3.05546H3.03346H3.01146H2.98946H2.96746H2.94546H2.92346H2.90146H2.87946H2.85746H2.83546H2.81346H2.79146H2.76946H2.74745H2.72545H2.70345H2.68145H2.65945H2.63745H2.61545H2.59345H2.57145H2.54945H2.52745H2.50545H2.48345H2.46144H2.43944H2.41744H2.39544H2.37344H2.35144H2.32944H2.30744H2.28544H2.26344H2.24144H2.21943H2.19743H2.17543H2.15343H2.13143H2.10943H2.08743H2.06543H2.04343H2.02143H1.99942H1.97742H1.95542H1.93342H1.91142H1.88942H1.86742H1.84542H1.82342H1.80141H1.77941H1.75741H1.73541H1.71341H1.69141H1.66941H1.64741H1.6254H1.6034H1.5814H1.5594H1.5374H1.5154H1.4934H1.47139H1.44939H1.42739H1.40539H1.38339H1.36139H1.33939H1.31738H1.29538H1.27338H1.25138H1.22938H1.20738H1.18537H1.16337H1.14137H1.11937H1.09737C1.07846 3.09857 1.05786 3.09807 1.03617 3.09754C0.97239 3.09599 0.899121 3.09422 0.831234 3.10423L0.843738 3.18898ZM0.843738 3.18898C0.903725 3.18013 0.965494 3.18161 1.02724 3.1831C1.05065 3.18367 1.07406 3.18423 1.09737 3.18423H12.3615H12.6647L12.761 4.25165C12.7473 4.2028 12.7339 4.15369 12.7197 4.10155C12.7106 4.06829 12.7012 4.03379 12.6911 3.99734H12.3832H1.09398C1.0721 3.99734 1.05018 3.9977 1.02826 3.99806C0.965238 3.9991 0.902232 4.00014 0.840347 3.99259C0.621302 3.96479 0.462614 3.78575 0.477533 3.5762C0.493809 3.35241 0.623337 3.22085 0.843738 3.18898Z" fill="white" stroke="white" stroke-width="0.171324"></path>
    <path d="M18.7015 3.98363L18.6853 4.06775C18.7504 4.08029 18.8216 4.07846 18.8804 4.07695C18.898 4.0765 18.9145 4.07608 18.9294 4.07608C19.4173 4.07608 19.9051 4.07596 20.393 4.07584C22.2222 4.07539 24.051 4.07494 25.8802 4.08082L25.8802 4.08082C26.1425 4.08154 26.3728 4.02313 26.5393 3.78522L26.5548 3.7631V3.73611V3.43094V3.40419L26.5395 3.3822C26.3736 3.1423 26.142 3.0855 25.8809 3.08622L25.8809 3.08622C24.0516 3.09211 22.2228 3.09166 20.3936 3.09121C19.9058 3.09109 19.4179 3.09097 18.93 3.09097C18.9148 3.09097 18.8979 3.09052 18.8798 3.09005C18.8214 3.08853 18.751 3.08669 18.6867 3.09848L18.6867 3.09848L18.6865 3.09852C18.564 3.12133 18.4575 3.17198 18.3814 3.25619C18.3046 3.34121 18.2659 3.45262 18.2659 3.58271M18.7015 3.98363L18.6855 4.06779C18.5635 4.0446 18.4571 3.99377 18.381 3.90955C18.3043 3.82445 18.2655 3.71299 18.2659 3.58271M18.7015 3.98363C18.7565 3.99424 18.8138 3.99281 18.8709 3.99139C18.8904 3.9909 18.91 3.99042 18.9294 3.99042C19.4172 3.99042 19.9051 3.9903 20.3929 3.99018C22.2221 3.98972 24.0511 3.98927 25.8805 3.99516L18.7015 3.98363ZM18.2659 3.58271C18.2659 3.58276 18.2659 3.5828 18.2659 3.58284H18.3516L18.2659 3.58259C18.2659 3.58263 18.2659 3.58267 18.2659 3.58271Z" fill="white" stroke="white" stroke-width="0.171324"></path>
    <path d="M6.1362 14.1726C5.73812 16.0918 4.1587 16.7353 3.0099 16.597L0.383188 13.826C0.393706 15.2842 1.50473 16.5015 2.99963 16.682L2.99966 16.682C4.17166 16.8232 5.77376 16.1749 6.20531 14.2582M6.1362 14.1726V14.2582H6.1367H6.13721H6.13771H6.13822H6.13872H6.13923H6.13973H6.14024H6.14075H6.14125H6.14176H6.14226H6.14277H6.14328H6.14378H6.14429H6.14479H6.1453H6.14581H6.14631H6.14682H6.14733H6.14783H6.14834H6.14885H6.14936H6.14986H6.15037H6.15088H6.15139H6.15189H6.1524H6.15291H6.15342H6.15393H6.15444H6.15494H6.15545H6.15596H6.15647H6.15698H6.15749H6.158H6.15851H6.15902H6.15952H6.16003H6.16054H6.16105H6.16156H6.16207H6.16258H6.16309H6.1636H6.16411H6.16462H6.16513H6.16565H6.16616H6.16667H6.16718H6.16769H6.1682H6.16871H6.16922H6.16973H6.17025H6.17076H6.17127H6.17178H6.17229H6.1728H6.17332H6.17383H6.17434H6.17485H6.17537H6.17588H6.17639H6.1769H6.17742H6.17793H6.17844H6.17896H6.17947H6.17998H6.18049H6.18101H6.18152H6.18204H6.18255H6.18306H6.18358H6.18409H6.18461H6.18512H6.18563H6.18615H6.18666H6.18718H6.18769H6.18821H6.18872H6.18924H6.18975H6.19027H6.19078H6.1913H6.19181H6.19233H6.19284H6.19336H6.19387H6.19439H6.19491H6.19542H6.19594H6.19645H6.19697H6.19749H6.198H6.19852H6.19904H6.19955H6.20007H6.20059H6.2011H6.20162H6.20214H6.20265H6.20317H6.20369H6.20421H6.20472H6.20524H6.20531M6.1362 14.1726H6.40475L7.90822 13.3581C7.93317 13.3581 7.95812 13.3578 7.98305 13.3575C8.04283 13.3568 8.10251 13.3561 8.16185 13.3595M6.1362 14.1726L6.22008 14.19C6.21532 14.2129 6.2104 14.2357 6.20531 14.2582M6.20531 14.2582H6.20576H6.20628H6.2068H6.20731H6.20783H6.20835H6.20887H6.20939H6.2099H6.21042H6.21094H6.21146H6.21198H6.2125H6.21302H6.21353H6.21405H6.21457H6.21509H6.21561H6.21613H6.21665H6.21717H6.21769H6.21821H6.21873H6.21925H6.21977H6.22029H6.22081H6.22133H6.22185H6.22237H6.22289H6.22341H6.22393H6.22445H6.22497H6.22549H6.22601H6.22653H6.22706H6.22758H6.2281H6.22862H6.22914H6.22966H6.23018H6.2307H6.23123H6.23175H6.23227H6.23279H6.23331H6.23384H6.23436H6.23488H6.2354H6.23592H6.23645H6.23697H6.23749H6.23801H6.23854H6.23906H6.23958H6.2401H6.24063H6.24115H6.24167H6.2422H6.24272H6.24324H6.24377H6.24429H6.24481H6.24534H6.24586H6.24638H6.24691H6.24743H6.24796H6.24848H6.249H6.24953H6.25005H6.25058H6.2511H6.25163H6.25215H6.25267H6.2532H6.25372H6.25425H6.25477H6.2553H6.25582H6.25635H6.25687H6.2574H6.25792H6.25845H6.25897H6.2595H6.26002H6.26055H6.26108H6.2616H6.26213H6.26265H6.26318H6.2637H6.26423H6.26476H6.26528H6.26581H6.26633H6.26686H6.26739H6.26791H6.26844H6.26897H6.26949H6.27002H6.27055H6.27107H6.2716H6.27213H6.27265H6.27318H6.27371H6.27424H6.27476H6.27529H6.27582H6.27634H6.27687H6.2774H6.27793H6.27845H6.27898H6.27951H6.28004H6.28057H6.28109H6.28162H6.28215H6.28268H6.28321H6.28373H6.28426H6.28479H6.28532H6.28585H6.28638H6.2869H6.28743H6.28796H6.28849H6.28902H6.28955H6.29008H6.29061H6.29113H6.29166H6.29219H6.29272H6.29325H6.29378H6.29431H6.29484H6.29537H6.2959H6.29643H6.29696H6.29749H6.29802H6.29855H6.29908H6.29961H6.30014H6.30066H6.3012H6.30172H6.30226H6.30279H6.30332H6.30385H6.30438H6.30491H6.30544H6.30597H6.3065H6.30703H6.30756H6.30809H6.30862H6.30915H6.30968H6.31021H6.31074H6.31127H6.3118H6.31234H6.31287H6.3134H6.31393H6.31446H6.31499H6.31552H6.31605H6.31659H6.31712H6.31765H6.31818H6.31871H6.31924H6.31977H6.32031H6.32084H6.32137H6.3219H6.32243H6.32297H6.3235H6.32403H6.32456H6.32509H6.32563H6.32616H6.32669H6.32722H6.32775H6.32829H6.32882H6.32935H6.32988H6.33042H6.33095H6.33148H6.33201H6.33255H6.33308H6.33361H6.33415H6.33468H6.33521H6.33574H6.33628H6.33681H6.33734H6.33788H6.33841H6.33894H6.33948H6.34001H6.34054H6.34107H6.34161H6.34214H6.34268H6.34321H6.34374H6.34428H6.34481H6.34534H6.34588H6.34641H6.34694H6.34748H6.34801H6.34854H6.34908H6.34961H6.35015H6.35068H6.35121H6.35175H6.35228H6.35282H6.35335H6.35388H6.35442H6.35495H6.35549H6.35602H6.35656H6.35709H6.35762H6.35816H6.35869H6.35923H6.35976H6.3603H6.36083H6.36137H6.3619H6.36243H6.36297H6.3635H6.36404H6.36457H6.36511H6.36564H6.36618H6.36671H6.36725H6.36778H6.36832H6.36885H6.36939H6.36992H6.37046H6.37099H6.37153H6.37206H6.3726H6.37313H6.37367H6.3742H6.37474H6.37527H6.37581H6.37634H6.37688H6.37742H6.37795H6.37849H6.37902H6.37956H6.38009H6.38063H6.38116H6.3817H6.38224H6.38277H6.38331H6.38384H6.38438H6.38491H6.38545H6.38598H6.38652H6.38706H6.38759H6.38813H6.38866H6.3892H6.38974H6.39027H6.39081H6.39134H6.39188H6.39242H6.39295H6.39349H6.39402H6.39456H6.3951H6.39563H6.39617H6.3967H6.39724H6.39778H6.39831H6.39885H6.39939H6.39992H6.40046H6.40099H6.40153H6.40207H6.4026H6.40314H6.40368H6.40421H6.40475H6.40485C6.59018 14.258 6.77574 14.2583 6.9614 14.2586C7.35971 14.2591 7.75852 14.2597 8.15664 14.2555C8.30518 14.254 8.43463 14.2044 8.52785 14.1162C8.62131 14.0278 8.67327 13.9052 8.67407 13.7682L8.58841 13.7677C8.59045 13.5372 8.42023 13.3724 8.16185 13.3595M8.16185 13.3595L8.16668 13.2739C8.16659 13.2739 8.16649 13.2739 8.1664 13.2739C8.16631 13.2739 8.16621 13.2739 8.16612 13.2739L8.16185 13.3595ZM6.20804 13.2725C5.95284 12.4332 5.52108 11.7787 4.96695 11.3573C4.39811 10.9246 3.70481 10.7412 2.95462 10.8524C1.42122 11.0796 0.371344 12.2919 0.383187 13.826L6.20804 13.2725ZM5.25574 13.7723L5.25562 13.8229C5.2255 14.8749 4.36002 15.7163 3.29838 15.7131C2.23836 15.7099 1.36697 14.8336 1.36762 13.7705C1.36827 12.6808 2.24773 11.8084 3.33814 11.8169L3.33817 11.8169C4.39501 11.8247 5.25834 12.7031 5.25574 13.7723Z" fill="white" stroke="white" stroke-width="0.171324"></path>
  </g>
  <defs>
    <clipPath id="clip0_4042_1434">
      <rect width="26.0412" height="26.0412" fill="white" transform="translate(0.414062 0.742188)"></rect>
    </clipPath>
  </defs>
</svg>
