<?xml version="1.0" encoding="UTF-8"?>
<svg xmlns="http://www.w3.org/2000/svg" width="34" height="34" viewBox="0 0 34 34" fill="none">
  <path d="M20.0311 6.25L27.8253 19.75C29.1725 22.0833 27.4885 25 24.7942 25H9.20577C6.51147 25 4.82753 22.0833 6.17468 19.75L13.9689 6.25C15.3161 3.91666 18.6839 3.91667 20.0311 6.25Z" stroke="white"></path>
  <path d="M18.5 10V15C18.5 15.8284 17.8284 16.5 17 16.5C16.1716 16.5 15.5 15.8284 15.5 15V10C15.5 9.17157 16.1716 8.5 17 8.5C17.8284 8.5 18.5 9.17157 18.5 10ZM18.5 20C18.5 20.8284 17.8284 21.5 17 21.5C16.1716 21.5 15.5 20.8284 15.5 20C15.5 19.1716 16.1716 18.5 17 18.5C17.8284 18.5 18.5 19.1716 18.5 20Z" stroke="white"></path>
</svg>
