<?xml version="1.0" encoding="UTF-8"?>
<svg xmlns="http://www.w3.org/2000/svg" width="25" height="26" viewBox="0 0 25 26" fill="none">
  <path d="M4.87458 12.2222V12.3507V13.4904V13.6189H4.74608C4.62946 13.6189 4.51118 13.6203 4.39196 13.6216C4.12566 13.6247 3.85471 13.6278 3.58719 13.6159C1.87448 13.5406 0.665926 12.2776 0.662971 10.5623L0.662971 10.5622C0.660134 8.35857 0.659424 6.15559 0.662971 3.95188L0.662971 3.95187C0.665926 2.18019 1.94901 0.899562 3.72252 0.897346M4.87458 12.2222L13.2419 3.72656M4.87458 12.2222H4.74608C4.62633 12.2222 4.51067 12.2224 4.39765 12.2225C4.17925 12.2228 3.97071 12.2231 3.76155 12.2222L3.76146 12.2222C3.22058 12.2202 2.79583 12.0531 2.50644 11.7648C2.21715 11.4766 2.04971 11.0541 2.04904 10.5151M4.87458 12.2222L3.76097 12.3507M3.72252 0.897346L3.72268 1.02584M3.72252 0.897346L3.72268 1.02584M3.72252 0.897346C5.92544 0.894509 8.12841 0.893799 10.3314 0.897346L10.3314 0.897346C12.006 0.9003 13.2473 2.04747 13.37 3.71714M3.72268 1.02584C2.01984 1.02797 0.7943 2.25137 0.791463 3.95209C0.787917 6.15564 0.788627 8.35848 0.791463 10.562C0.7943 12.2088 1.94891 13.4152 3.59289 13.4876C3.85673 13.4993 4.12158 13.4962 4.38605 13.4932H4.38607H4.3861H4.38612L4.38635 13.4932C4.50638 13.4918 4.62634 13.4904 4.74608 13.4904V13.3619V12.4792V12.3507H4.61759V12.3507C4.5437 12.3508 4.47116 12.3509 4.39963 12.351H4.39919H4.39876H4.39833H4.39778H4.39774H4.39771C4.17928 12.3513 3.97028 12.3516 3.76097 12.3507M3.72268 1.02584C5.92552 1.023 8.12836 1.02229 10.3312 1.02584L3.76097 12.3507M13.37 3.71714L13.2419 3.72656M13.37 3.71714C13.37 3.71713 13.37 3.71712 13.37 3.71711L13.2419 3.72656M13.37 3.71714C13.3907 3.99808 13.3852 4.28478 13.3797 4.57255C13.3771 4.7049 13.3746 4.83748 13.3746 4.96982V5.09831H13.2461H12.1142H11.9857V4.96982C11.9857 4.8588 11.9859 4.74871 11.986 4.63917C11.9863 4.42184 11.9866 4.2067 11.9857 3.99095L11.9857 3.99087C11.9837 3.44923 11.8167 3.02553 11.5283 2.7374C11.24 2.4493 10.8166 2.28304 10.2751 2.2827L10.2751 2.2827C8.10775 2.28058 5.94045 2.28058 3.77316 2.2827L3.77311 2.2827C3.22843 2.28304 2.80073 2.4521 2.50933 2.7444C2.21787 3.03674 2.04938 3.46578 2.04904 4.01174V4.01175C2.04762 6.1798 2.04691 8.3478 2.04904 10.5151M13.2419 3.72656C13.2621 4.00151 13.2568 4.27811 13.2513 4.56259C13.2487 4.69637 13.2461 4.8319 13.2461 4.96982H13.1176H12.2427H12.1142V4.84133H12.1143C12.1143 4.77459 12.1144 4.70807 12.1145 4.64171V4.6411V4.64047V4.63985C12.1148 4.42228 12.1151 4.20649 12.1142 3.99039C12.1099 2.85421 11.4114 2.15492 10.2752 2.15421C8.1078 2.15208 5.94041 2.15208 3.77303 2.15421C2.62977 2.15492 1.92125 2.86627 1.92054 4.01166C1.91913 6.17975 1.91842 8.34784 1.92054 10.5152M2.04904 10.5151L1.92054 10.5152M2.04904 10.5151C2.04904 10.5151 2.04904 10.5151 2.04904 10.5151L1.92054 10.5152M1.92054 10.5152C1.92196 11.6471 2.62622 12.3464 3.76097 12.3507M18.9611 10.7689H18.8817H17.786H17.6575V10.6404V10.6385V10.6365V10.6346V10.6327V10.6307V10.6288V10.6269V10.625V10.623V10.6211V10.6192V10.6173V10.6153V10.6134V10.6115V10.6095V10.6076V10.6057V10.6038V10.6018V10.5999V10.598V10.5961V10.5941V10.5922V10.5903V10.5884V10.5864V10.5845V10.5826V10.5807V10.5787V10.5768V10.5749V10.573V10.571V10.5691V10.5672V10.5653V10.5633V10.5614V10.5595V10.5576V10.5557V10.5537V10.5518V10.5499V10.548V10.546V10.5441V10.5422V10.5403V10.5383V10.5364V10.5345V10.5326V10.5307V10.5287V10.5268V10.5249V10.523V10.521V10.5191V10.5172V10.5153V10.5134V10.5114V10.5095V10.5076V10.5057V10.5038V10.5018V10.4999V10.498V10.4961V10.4942V10.4922V10.4903V10.4884V10.4865V10.4846V10.4826V10.4807V10.4788V10.4769V10.475V10.473V10.4711V10.4692V10.4673V10.4654V10.4634V10.4615V10.4596V10.4577V10.4558V10.4538V10.4519V10.45V10.4481V10.4462V10.4443V10.4423V10.4404V10.4385V10.4366V10.4347V10.4327V10.4308V10.4289V10.427V10.4251V10.4232V10.4212V10.4193V10.4174V10.4155V10.4136V10.4117V10.4097V10.4078V10.4059V10.404V10.4021V10.4002V10.3982V10.3963V10.3944V10.3925V10.3906V10.3887V10.3868V10.3848V10.3829V10.381V10.3791V10.3772V10.3753V10.3733V10.3714V10.3695V10.3676V10.3657V10.3638V10.3619V10.3599V10.358V10.3561V10.3542V10.3523V10.3504V10.3485V10.3465V10.3446V10.3427V10.3408V10.3389V10.337V10.3351V10.3332V10.3312V10.3293V10.3274V10.3255V10.3236V10.3217V10.3198V10.3179V10.3159V10.314V10.3121V10.3102V10.3083V10.3064V10.3045V10.3026V10.3006V10.2987V10.2968V10.2949V10.293V10.2911V10.2892V10.2873V10.2853V10.2834V10.2815V10.2796V10.2777V10.2758V10.2739V10.272V10.2701V10.2681V10.2662V10.2643V10.2624V10.2605V10.2586V10.2567V10.2548V10.2529V10.2509V10.249V10.2471V10.2452V10.2433V10.2414V10.2395V10.2376V10.2357V10.2338V10.2318V10.2299V10.228V10.2261V10.2242V10.2223V10.2204V10.2185V10.2166V10.2147V10.2128V10.2108V10.2089V10.207V10.2051V10.2032V10.2013V10.1994V10.1975V10.1956V10.1937V10.1918V10.1898V10.1879V10.186V10.1841V10.1822V10.1803V10.1784V10.1765V10.1746V10.1727V10.1708V10.1689V10.1669V10.165V10.1631V10.1612V10.1593V10.1574V10.1555V10.1536V10.1517V10.1498V10.1479V10.146V10.1441V10.1422V10.1402V10.1383V10.1364V10.1345V10.1326V10.1307V10.1288V10.1269V10.125V10.1231V10.1212V10.1193V10.1174V10.1155V10.1135V10.1116V10.1097V10.1078V10.1059V10.104V10.1021V10.1002V10.0983V10.0964V10.0945V10.0926V10.0907V10.0888V10.0869V10.085V10.083V10.0811V10.0792V10.0773V10.0754V10.0735V10.0716V10.0697V10.0678V10.0659V10.064V10.0621V10.0602V10.0583V10.0564V10.0545V10.0526V10.0507V10.0487V10.0468V10.0449V10.043V10.0411V10.0392V10.0373V10.0354V10.0335V10.0316V10.0297V10.0278V10.0259V10.024V10.0221V10.0202V10.0183V10.0164V10.0145V10.0126V10.0107V10.0087V10.0068V10.0049V10.003V10.0011V9.99922V9.99732V9.99542V9.99351V9.99161V9.9897V9.9878V9.9859V9.98399V9.98209V9.98018V9.97828V9.97637V9.97447V9.97257V9.97066V9.96876V9.96685V9.96495V9.96305V9.96114V9.95924V9.95734V9.95543V9.95353V9.95162V9.94972V9.94782V9.94591V9.94401V9.94211V9.9402V9.9383V9.93639V9.93449V9.93259V9.93068V9.92878V9.92688V9.92497V9.92307V9.92117V9.91926V9.91736V9.91546V9.91355V9.91165V9.90975V9.90784V9.90594V9.90404V9.90213V9.90023V9.89833V9.89642V9.89452V9.89262V9.89071V9.88881V9.88691V9.885V9.8831V9.8812V9.8793V9.87739V9.87549V9.87359V9.87168V9.86978V9.86788V9.86598V9.86407V9.86217V9.86027V9.85836V9.85646V9.85456V9.85265V9.85075V9.84885V9.84695V9.84504V9.84314V9.84124V9.83933V9.83743V9.83553V9.83363V9.83172V9.82982V9.82792V9.82601V9.82411V9.82221V9.82031V9.8184V9.8165V9.8146V9.81269V9.81079V9.80889V9.80699V9.80508V9.80318V9.80128V9.79938V9.79747V9.79557V9.79367V9.79176V9.78986V9.78796V9.78606V9.78415V9.78225V9.78035V9.77845V9.77654V9.77464V9.77274V9.77083V9.76893V9.76703V9.76513V9.76322V9.76132V9.75942V9.75751V9.75561V9.75371V9.75181V9.7499V9.748V9.7461V9.7442V9.74229V9.74039V9.73849V9.73658V9.73468V9.73278V9.73088V9.72897V9.72707V9.72517V9.72326V9.72136V9.71946V9.71756V9.71565V9.71375V9.71185V9.70994V9.70804V9.70614V9.70424V9.70233V9.70043V9.69853V9.69662V9.69472V9.69282V9.69091V9.68901V9.68711V9.6852V9.6833V9.6814V9.6795V9.67759V9.67569V9.67379V9.67188V9.66998V9.66808V9.66617V9.66427V9.66261C17.6565 9.12234 17.4891 8.69768 17.2003 8.40838C16.9115 8.11913 16.488 7.95185 15.9491 7.95185C15.2235 7.95185 14.4979 7.95177 13.7723 7.95169C12.321 7.95153 10.8697 7.95138 9.41861 7.95185H9.41857C8.88882 7.95185 8.46708 8.11996 8.17801 8.4083C7.88897 8.69662 7.72044 9.11724 7.72011 9.64543C7.71869 11.8319 7.71869 14.0177 7.72011 16.2041V16.2042C7.72011 16.7243 7.889 17.143 8.17669 17.4317C8.46437 17.7204 8.88183 17.89 9.39975 17.8913C9.6156 17.8918 9.83129 17.8917 10.0532 17.8915C10.1665 17.8914 10.2814 17.8913 10.3987 17.8913H10.5272V18.0198V19.1071V19.2203L10.4149 19.2345C9.58328 19.3402 8.74765 19.3133 8.03885 19.0017C7.32358 18.6874 6.75156 18.0893 6.44255 17.0846L6.56537 17.0468L6.44255 17.0846C6.3551 16.8001 6.34043 16.4912 6.33901 16.2084L6.339 16.2082L18.9611 10.7689ZM18.9611 10.7689L18.9966 10.6978M18.9611 10.7689L18.9966 10.6978M18.9966 10.6978L18.9974 10.6964L19.0109 10.6693V10.639C19.0109 10.4692 19.0171 10.3045 19.0233 10.1389C19.027 10.0418 19.0306 9.94433 19.033 9.84548C19.0395 9.58269 19.0367 9.31856 18.9974 9.05745C18.7716 7.5571 17.5517 6.57091 15.9991 6.56649C13.9424 6.56053 11.8856 6.56322 9.82924 6.56592C9.68213 6.56611 9.53502 6.5663 9.38791 6.56649L9.3876 6.56649C9.19296 6.5672 8.98591 6.57278 8.78365 6.61051L8.78364 6.61052M18.9966 10.6978L8.78364 6.61052M8.78364 6.61052C7.29975 6.88759 6.33986 8.07108 6.33617 9.62232L8.78364 6.61052ZM21.6375 24.9493H21.6375L12.116 15.2903L11.9875 15.2898C11.9875 15.2898 11.9875 15.2898 11.9875 15.2898C11.979 17.493 11.9783 19.6969 11.9875 21.9001C11.9949 23.6749 13.2827 24.9471 15.0556 24.9493C17.2493 24.9522 19.4438 24.9522 21.6375 24.9493ZM18.3529 13.6245H18.4814V13.6232C18.7664 13.6237 19.0522 13.626 19.3383 13.6283C20.0898 13.6344 20.8442 13.6404 21.5962 13.6152C22.5747 13.5829 23.3366 14.2968 23.3273 15.3395C23.3145 16.7856 23.3169 18.2325 23.3192 19.6788C23.3204 20.4015 23.3216 21.124 23.3209 21.8462C23.3202 22.3826 23.1508 22.8086 22.8597 23.1003C22.5688 23.392 22.1439 23.5619 21.6088 23.5626C19.4316 23.5654 17.2551 23.5654 15.0779 23.5626C14.5472 23.5619 14.1271 23.3942 13.8396 23.106C13.5522 22.8177 13.3849 22.3962 13.3842 21.8639C13.3814 19.6775 13.3814 17.4918 13.3842 15.3054C13.3849 14.7772 13.55 14.3607 13.834 14.0762C14.1181 13.7917 14.534 13.6262 15.0611 13.6245C15.7924 13.6226 16.5238 13.6232 17.2553 13.6238C17.6211 13.6242 17.987 13.6245 18.3529 13.6245Z" fill="white" stroke="white" stroke-width="0.256986"></path>
</svg>
