<?xml version="1.0" encoding="UTF-8"?>
<svg xmlns="http://www.w3.org/2000/svg" width="24" height="24" viewBox="0 0 24 24" fill="none">
  <path d="M4.5 12.5H3C1.89543 12.5 1 11.6046 1 10.5V3C1 1.89543 1.89543 1 3 1H10.5C11.6046 1 12.5 1.89543 12.5 3V4.5M10 18H8.5C7.39543 18 6.5 17.1046 6.5 16V8.5C6.5 7.39543 7.39543 6.5 8.5 6.5H16C17.1046 6.5 18 7.39543 18 8.5V10M14 23.5C12.8954 23.5 12 22.6046 12 21.5V14C12 12.8954 12.8954 12 14 12H21.5C22.6046 12 23.5 12.8954 23.5 14V21.5C23.5 22.6046 22.6046 23.5 21.5 23.5H14Z" stroke="white"></path>
</svg>
