<svg xmlns="http://www.w3.org/2000/svg" width="20" height="21" viewBox="0 0 20 21" fill="none"><g clip-path="url(#clip0_1_1504)"><rect width="19.2" height="19.2" transform="translate(0.267822 0.857178)" fill="#2B2B2B"></rect><path d="M17.5038 6.0587C17.8694 7.4843 17.8694 10.4603 17.8694 10.4603C17.8694 10.4603 17.8694 13.4363 17.5038 14.8619C17.3006 15.6499 16.7062 16.2699 15.9534 16.4795C14.5862 16.8603 9.86938 16.8603 9.86938 16.8603C9.86938 16.8603 5.15498 16.8603 3.78538 16.4795C3.02938 16.2667 2.43578 15.6475 2.23498 14.8619C1.86938 13.4363 1.86938 10.4603 1.86938 10.4603C1.86938 10.4603 1.86938 7.4843 2.23498 6.0587C2.43818 5.2707 3.03258 4.6507 3.78538 4.4411C5.15498 4.0603 9.86938 4.0603 9.86938 4.0603C9.86938 4.0603 14.5862 4.0603 15.9534 4.4411C16.7094 4.6539 17.303 5.2731 17.5038 6.0587ZM8.26938 13.2603L13.0694 10.4603L8.26938 7.6603V13.2603Z" fill="white"></path></g><defs><clipPath id="clip0_1_1504"><rect width="19.2" height="19.2" fill="white" transform="translate(0.267822 0.857178)"></rect></clipPath></defs></svg>