<svg width="24" height="24" viewBox="0 0 24 24" fill="none" xmlns="http://www.w3.org/2000/svg">
<path d="M11.6766 0C5.23016 0 0 5.36078 0 11.9683C0 18.5757 5.23016 23.9365 11.6766 23.9365C18.1231 23.9365 23.3533 18.5757 23.3533 11.9683C23.3533 5.36078 18.1231 0 11.6766 0ZM17.6853 9.07593L10.8252 16.1322C10.6063 16.3566 10.29 16.5062 9.9738 16.5062C9.65756 16.5062 9.34132 16.3815 9.12238 16.1322L5.66804 12.5916C5.18151 12.0929 5.18151 11.32 5.66804 10.8213C6.15457 10.3226 6.90868 10.3226 7.39521 10.8213L9.9738 13.4643L15.9824 7.30562C16.4689 6.80694 17.2231 6.80694 17.7096 7.30562C18.1718 7.8043 18.1718 8.57725 17.6853 9.07593Z" fill="#1C43B9"/>
</svg>
