<svg width="19" height="15" viewBox="0 0 19 15" fill="none" xmlns="http://www.w3.org/2000/svg">
<path d="M17.5776 8.50389L18.0716 8.58111V8.58111L17.5776 8.50389ZM16.5974 3.94523L17.016 3.67178L16.5974 3.94523ZM12.8168 1.21588L12.689 1.69927L12.8168 1.21588ZM8.18136 1.7204L7.95257 1.27581L8.18136 1.7204ZM5.07645 5.19916L5.54408 5.37614L5.07645 5.19916ZM4.93754 10.4239C5.17164 10.5703 5.48015 10.4993 5.62661 10.2652L8.0134 6.45033C8.15986 6.21623 8.08882 5.90772 7.85472 5.76125C7.62062 5.61479 7.31211 5.68583 7.16565 5.91993L5.04406 9.31093L1.65306 7.18934C1.41896 7.04288 1.11046 7.11392 0.96399 7.34802C0.817525 7.58212 0.888567 7.89062 1.12267 8.03709L4.93754 10.4239ZM6.20585 12.4497C7.43017 13.6741 9.0648 14.4012 10.7939 14.4906L10.8456 13.492C9.36348 13.4153 7.96238 12.7921 6.91296 11.7426L6.20585 12.4497ZM10.7939 14.4906C12.5231 14.5801 14.224 14.0255 15.5681 12.9341L14.9378 12.1578C13.7857 13.0933 12.3277 13.5687 10.8456 13.492L10.7939 14.4906ZM15.5681 12.9341C16.9123 11.8427 17.8042 10.2918 18.0716 8.58111L17.0836 8.42667C16.8544 9.89296 16.0899 11.2223 14.9378 12.1578L15.5681 12.9341ZM18.0716 8.58111C18.339 6.87044 17.9629 5.12136 17.016 3.67178L16.1788 4.21867C16.9905 5.46117 17.3128 6.96038 17.0836 8.42667L18.0716 8.58111ZM17.016 3.67178C16.0691 2.2222 14.6186 1.175 12.9446 0.732485L12.689 1.69927C14.1239 2.07857 15.3672 2.97618 16.1788 4.21867L17.016 3.67178ZM12.9446 0.732485C11.2707 0.289969 9.49212 0.483545 7.95257 1.27581L8.41014 2.16498C9.72976 1.4859 11.2542 1.31997 12.689 1.69927L12.9446 0.732485ZM7.95257 1.27581C6.41301 2.06808 5.22172 3.40282 4.60882 5.02217L5.54408 5.37614C6.06941 3.98813 7.09053 2.84407 8.41014 2.16498L7.95257 1.27581ZM4.60882 5.02217C3.9801 6.68334 4.25671 8.11991 4.71549 10.1122L5.68999 9.8878C5.22766 7.88009 5.03457 6.72232 5.54408 5.37614L4.60882 5.02217Z" fill="#343434"/>
<path d="M11.1562 3.4375V7.90625L13.5938 9.53125" stroke="#343434"/>
</svg>
