<svg width="36" height="26" viewBox="0 0 36 26" fill="none" xmlns="http://www.w3.org/2000/svg">
<path d="M27.8373 0.918854C29.982 0.918854 31.7462 1.57609 33.1298 2.89057C34.4443 4.27423 35.1016 6.0384 35.1016 8.18307C35.1016 10.8812 33.9946 13.8215 31.7808 17.0039C29.4977 20.2555 26.4883 23.1266 22.7524 25.6172L21.1958 24.0606C22.6486 22.5385 23.7901 21.1203 24.6203 19.8058C25.4505 18.4913 25.8656 17.419 25.8656 16.5888C25.8656 16.1045 25.7273 15.6548 25.4505 15.2397C25.1046 14.8246 24.6203 14.375 23.9977 13.8907C23.0291 13.1297 22.2681 12.3341 21.7147 11.5039C21.1612 10.6737 20.8845 9.56673 20.8845 8.18307C20.8845 6.0384 21.5417 4.27423 22.8562 2.89057C24.1706 1.57609 25.831 0.918854 27.8373 0.918854ZM7.70509 0.918854C9.84977 0.918854 11.6139 1.57609 12.9976 2.89057C14.3121 4.27423 14.9693 6.0384 14.9693 8.18307C14.9693 10.8812 13.8624 13.8215 11.6485 17.0039C9.36548 20.2555 6.35602 23.1266 2.62014 25.6172L1.06352 24.0606C2.51637 22.5385 3.65789 21.1203 4.48808 19.8058C5.31828 18.4913 5.73338 17.419 5.73338 16.5888C5.73338 16.1045 5.59501 15.6548 5.31828 15.2397C4.97236 14.8246 4.48808 14.375 3.86544 13.8907C2.89687 13.1297 2.13586 12.3341 1.5824 11.5039C1.02893 10.6737 0.752201 9.56673 0.752201 8.18307C0.752201 6.0384 1.40944 4.27423 2.72392 2.89057C4.03839 1.57609 5.69879 0.918854 7.70509 0.918854Z" fill="#1C43B9"/>
</svg>
