<svg width="35" height="26" viewBox="0 0 35 26" fill="none" xmlns="http://www.w3.org/2000/svg">
<path d="M7.49859 25.3155C5.35392 25.3155 3.58975 24.6583 2.20609 23.3438C0.891614 21.9601 0.234375 20.196 0.234375 18.0513C0.234375 15.3532 1.3413 12.4129 3.55516 9.23047C5.8382 5.97887 8.84766 3.10778 12.5835 0.617188L14.1402 2.1738C12.6873 3.69583 11.5458 5.11408 10.7156 6.42856C9.8854 7.74304 9.47031 8.81537 9.47031 9.64557C9.47031 10.1298 9.60867 10.5795 9.8854 10.9946C10.2313 11.4097 10.7156 11.8594 11.3382 12.3437C12.3068 13.1047 13.0678 13.9003 13.6213 14.7305C14.1748 15.5607 14.4515 16.6676 14.4515 18.0513C14.4515 20.196 13.7942 21.9601 12.4798 23.3438C11.1653 24.6583 9.5049 25.3155 7.49859 25.3155ZM27.6308 25.3155C25.4862 25.3155 23.722 24.6583 22.3383 23.3438C21.0239 21.9601 20.3666 20.196 20.3666 18.0513C20.3666 15.3532 21.4736 12.4129 23.6874 9.23047C25.9705 5.97887 28.9799 3.10778 32.7158 0.617188L34.2724 2.1738C32.8196 3.69583 31.6781 5.11408 30.8479 6.42856C30.0177 7.74304 29.6026 8.81537 29.6026 9.64557C29.6026 10.1298 29.7409 10.5795 30.0177 10.9946C30.3636 11.4097 30.8479 11.8594 31.4705 12.3437C32.4391 13.1047 33.2001 13.9003 33.7535 14.7305C34.307 15.5607 34.5837 16.6676 34.5837 18.0513C34.5837 20.196 33.9265 21.9601 32.612 23.3438C31.2975 24.6583 29.6372 25.3155 27.6308 25.3155Z" fill="#1C43B9"/>
</svg>
