<svg width="19" height="16" viewBox="0 0 19 16" fill="none" xmlns="http://www.w3.org/2000/svg">
<path d="M1.59375 7.20312C1.04147 7.20313 0.59375 7.65084 0.59375 8.20313C0.59375 8.75541 1.04147 9.20313 1.59375 9.20312L1.59375 7.20312ZM18.7111 8.91023C19.1017 8.5197 19.1017 7.88654 18.7111 7.49602L12.3472 1.13206C11.9567 0.741531 11.3235 0.741531 10.933 1.13206C10.5424 1.52258 10.5424 2.15574 10.933 2.54627L16.5898 8.20312L10.933 13.86C10.5425 14.2505 10.5425 14.8837 10.933 15.2742C11.3235 15.6647 11.9567 15.6647 12.3472 15.2742L18.7111 8.91023ZM1.59375 9.20312L18.004 9.20312L18.004 7.20312L1.59375 7.20312L1.59375 9.20312Z" fill="white"/>
</svg>
