<svg width="38" height="38" viewBox="0 0 38 38" fill="none" xmlns="http://www.w3.org/2000/svg">
<g clip-path="url(#clip0_2544_715)">
<path d="M37.1848 31.5572L37.2922 31.1525L37.1876 31.2573V30.3802V30.3689L37.1854 30.3579C36.9942 29.4118 36.5339 28.5894 36.0644 27.7845L35.9673 27.8412L36.0644 27.7845C33.6777 23.6952 31.2974 19.6024 28.9171 15.5096C28.2334 14.3341 27.5497 13.1585 26.8659 11.983L26.7687 12.0396L26.8659 11.983C26.4418 11.2542 26.0188 10.5246 25.5957 9.79488C24.6461 8.15708 23.6963 6.51886 22.7334 4.88825C22.2108 4.00315 21.5535 3.35506 20.7654 2.96121C19.9772 2.56728 19.066 2.43165 18.0425 2.5586C16.5137 2.74774 15.4023 3.59635 14.6384 4.91197C12.7515 8.16095 10.8611 11.4089 8.97087 14.6566C8.27625 15.8501 7.58164 17.0435 6.88723 18.2369L6.98447 18.2935L6.88723 18.2369C6.33767 19.1815 5.78827 20.1261 5.23886 21.0708C3.79364 23.5558 2.34836 26.041 0.900045 28.5241C0.278001 29.5902 0.0341353 30.7262 0.316904 31.9479C0.828984 34.1633 2.65752 35.5773 4.99798 35.5773C11.0831 35.578 17.1682 35.5778 23.2532 35.5776C26.2958 35.5774 29.3383 35.5773 32.3809 35.5773C32.4764 35.5773 32.5736 35.5774 32.6721 35.5734C34.7398 35.4948 36.4415 34.1775 37.0105 32.209L36.9025 32.1777L37.0105 32.2089C37.0545 32.0567 37.0945 31.9031 37.134 31.7512C37.1509 31.6861 37.1678 31.6214 37.1848 31.5572ZM18.6635 34.0632H18.6169L18.6159 34.0642C17.322 34.0642 16.0281 34.0643 14.7343 34.0645C11.4611 34.0649 8.18814 34.0653 4.91467 34.0632C3.2786 34.0613 2.0319 33.0191 1.7536 31.418C1.62028 30.6493 1.81822 29.9424 2.21472 29.2628C3.76681 26.6029 5.3152 23.9414 6.86377 21.2795C7.39483 20.3667 7.92591 19.4538 8.45717 18.541C9.21467 17.2395 9.97161 15.9378 10.7285 14.6361C12.4772 11.6289 14.2258 8.62188 15.9809 5.61897L15.9809 5.61894C16.9812 3.90637 19.1363 3.48174 20.6221 4.69308L20.6222 4.69319C20.9282 4.94183 21.1997 5.26967 21.3998 5.61308L21.3998 5.61315C26.0144 13.5206 30.6233 21.4319 35.2177 29.3509L35.315 29.2944L35.2177 29.3509C36.4741 31.5153 34.9909 34.0576 32.4833 34.0613C29.2316 34.066 25.9805 34.065 22.729 34.064C21.3739 34.0636 20.0188 34.0632 18.6635 34.0632Z" fill="white" stroke="white" stroke-width="0.225"/>
<path d="M21.6846 17.3433H21.6884V17.4558C21.6884 17.8578 21.6904 18.2604 21.6925 18.6635C21.6972 19.5762 21.7019 20.491 21.6826 21.4043C21.6826 21.4043 21.6826 21.4043 21.6826 21.4043L21.5701 21.4019C21.5365 22.9999 20.2176 24.2325 18.6244 24.2018L21.6846 17.3433ZM21.6846 17.3433C21.6849 16.9722 21.6871 16.6005 21.6892 16.2286C21.6945 15.2979 21.6998 14.3655 21.6778 13.4351C21.6408 11.8507 20.2968 10.5956 18.7063 10.5906L18.7063 10.5906C17.0976 10.5857 15.7243 11.8418 15.7063 13.4442L15.7063 13.4442C15.6766 16.1116 15.6775 18.779 15.7063 21.4463L15.8188 21.4451L21.6846 17.3433ZM17.208 17.3078V17.4203C17.208 17.4206 17.208 17.421 17.208 17.4213H17.2022C17.2022 17.7287 17.2021 18.0362 17.2019 18.3437C17.2013 19.2669 17.2008 20.19 17.2051 21.1127L17.2051 21.1132C17.2051 21.3257 17.2122 21.534 17.2635 21.7224C17.4547 22.4241 18.1406 22.8764 18.8651 22.7951L18.8652 22.7951C19.5892 22.7145 20.166 22.1252 20.1713 21.3877C20.1713 21.3877 20.1713 21.3877 20.1713 21.3877L20.2838 21.3885C20.2977 19.2706 20.2936 17.1527 20.2895 15.0348C20.2885 14.5235 20.2875 14.0123 20.2867 13.5011L17.208 17.3078ZM17.208 17.3078H17.208M17.208 17.3078H17.208M17.208 17.3078C17.2077 16.9563 17.2064 16.6051 17.2051 16.2541C17.2017 15.3405 17.1983 14.4283 17.2137 13.5155L17.208 17.3078Z" fill="white" stroke="white" stroke-width="0.225"/>
<path d="M18.6946 32.3506C20.5226 32.3516 22.0321 30.8403 22.0271 29.014C22.0222 27.1995 20.5371 25.7112 18.716 25.6924C16.8959 25.6735 15.371 27.1841 15.3641 29.011L15.3641 29.011C15.3581 30.8363 16.8675 32.3506 18.6946 32.3506ZM18.6946 32.3506L18.6947 32.2381V32.3506C18.6946 32.3506 18.6946 32.3506 18.6946 32.3506ZM16.8773 29.0282C16.8728 28.0308 17.7121 27.1936 18.7062 27.2017C19.6942 27.2098 20.5122 28.031 20.5149 29.0156C20.5176 30.0165 19.69 30.841 18.6846 30.8365L18.627 30.8362C17.6642 30.8005 16.8817 29.9973 16.8773 29.0282ZM16.8773 29.0282L16.7648 29.0287L16.8773 29.0282Z" fill="white" stroke="white" stroke-width="0.225"/>
</g>
<defs>
<clipPath id="clip0_2544_715">
<rect width="36.8328" height="36.8328" fill="white" transform="translate(0.242188 0.65625)"/>
</clipPath>
</defs>
</svg>
