<svg width="40" height="41" viewBox="0 0 40 41" fill="none" xmlns="http://www.w3.org/2000/svg">
<path d="M33.0912 37.753H33.0912C29.89 37.7572 26.6878 37.7572 23.4867 37.753C20.8996 37.7498 19.0205 35.8934 19.0097 33.3035C18.9963 30.0885 18.9973 26.8725 19.0097 23.6576L33.0912 37.753ZM33.0912 37.753C34.3911 37.7509 35.5117 37.2876 36.3083 36.49C37.1049 35.6925 37.5675 34.5707 37.5702 33.27C37.5723 32.2113 37.5716 31.152 37.5709 30.0932C37.5706 29.5639 37.5702 29.0348 37.5702 28.5059V28.5048C37.5702 27.9674 37.5707 27.4297 37.5711 26.8918C37.5721 25.8156 37.573 24.739 37.5702 23.663C37.5638 21.0761 35.7116 19.2002 33.1176 19.1894C29.9026 19.1759 26.6887 19.177 23.4738 19.1894L23.4737 19.1894M33.0912 37.753L23.4737 19.1894M23.4737 19.1894C20.8817 19.2002 19.0194 21.0658 19.0097 23.6576L23.4737 19.1894ZM28.4857 21.2275H28.2982C27.7643 21.2275 27.2303 21.227 26.6965 21.2266C25.629 21.2257 24.5617 21.2247 23.4947 21.2275M28.4857 21.2275L23.4947 21.2275M28.4857 21.2275V21.2256M28.4857 21.2275V21.2256M23.4947 21.2275C22.7255 21.23 22.1186 21.4715 21.7041 21.8867C21.2896 22.3019 21.0488 22.9095 21.0478 23.6803C21.0437 26.8708 21.0437 30.0602 21.0478 33.2507C21.0488 34.0275 21.2929 34.6425 21.7123 35.0632C22.1318 35.4838 22.7449 35.7284 23.5193 35.7294C26.6963 35.7335 29.8723 35.7335 33.0493 35.7294C33.8302 35.7284 34.4501 35.4805 34.8747 35.0549C35.2994 34.6292 35.5467 34.0075 35.5476 33.2249C35.5487 32.171 35.547 31.1165 35.5452 30.0619C35.5418 27.9515 35.5383 25.8402 35.557 23.7301C35.5705 22.2085 34.4588 21.1668 33.031 21.2139C31.9336 21.2507 30.8327 21.2419 29.7362 21.2331C29.3186 21.2298 28.9017 21.2264 28.4857 21.2256M23.4947 21.2275L28.4857 21.2256" fill="white" stroke="white" stroke-width="0.375"/>
<path d="M8.63356 19.1853V19.3728V21.0359V21.2234H8.44606C8.27588 21.2234 8.10329 21.2254 7.92934 21.2274C7.54076 21.2318 7.1454 21.2364 6.75505 21.2191C6.75503 21.2191 6.755 21.2191 6.75498 21.2191L6.76329 21.0317L8.63356 19.1853ZM8.63356 19.1853H8.44606M8.63356 19.1853H8.44606M8.44606 19.1853C8.27131 19.1853 8.10252 19.1855 7.93758 19.1857C7.6189 19.1862 7.3146 19.1866 7.0094 19.1853H7.00927C6.22001 19.1823 5.6002 18.9385 5.17792 18.5178C4.75578 18.0973 4.51145 17.4807 4.51046 16.6942M8.44606 19.1853L4.51046 16.6942M4.51046 16.6942C4.50736 13.5317 4.50839 10.3681 4.51046 7.20437C4.51096 6.40767 4.75683 5.78162 5.18213 5.35502C5.60736 4.9285 6.23146 4.6818 7.02628 4.6813L7.02634 4.6813C10.1889 4.6782 13.3515 4.6782 16.5141 4.6813L16.5141 4.6813C17.3043 4.6818 17.9221 4.9244 18.3429 5.3448C18.7637 5.76526 19.0073 6.38353 19.0103 7.1739V7.17402C19.0117 7.48884 19.0112 7.80276 19.0108 8.11989C19.0105 8.27974 19.0103 8.4404 19.0103 8.60241V8.78991H19.1978H20.8495H21.037V8.60241C21.037 8.40929 21.0407 8.21583 21.0444 8.0227C21.0525 7.60279 21.0605 7.18442 21.0303 6.77447C21.0303 6.77446 21.0303 6.77444 21.0303 6.77443L20.8433 6.78821C20.6715 4.45034 18.9422 2.85139 16.596 2.84725C13.3816 2.84208 10.1671 2.84311 6.95268 2.84725C4.46785 2.85036 2.67952 4.63559 2.67538 7.11731L4.51046 16.6942ZM16.5143 4.4938C13.3516 4.4907 10.1889 4.4907 7.02616 4.4938C5.35788 4.49484 4.324 5.53286 4.32296 7.20424C4.32089 10.368 4.31986 13.5317 4.32296 16.6944C4.32503 18.3461 5.3527 19.3666 7.00857 19.3728L16.5143 4.4938Z" fill="white" stroke="white" stroke-width="0.375"/>
<path d="M29.1858 17.0671H29.07H27.4711H27.2836V16.8796V16.8768V16.874V16.8712V16.8684V16.8656V16.8628V16.8599V16.8571V16.8543V16.8515V16.8487V16.8459V16.8431V16.8403V16.8375V16.8346V16.8318V16.829V16.8262V16.8234V16.8206V16.8178V16.815V16.8122V16.8093V16.8065V16.8037V16.8009V16.7981V16.7953V16.7925V16.7897V16.7869V16.7841V16.7813V16.7785V16.7756V16.7728V16.77V16.7672V16.7644V16.7616V16.7588V16.756V16.7532V16.7504V16.7476V16.7448V16.742V16.7392V16.7363V16.7335V16.7307V16.7279V16.7251V16.7223V16.7195V16.7167V16.7139V16.7111V16.7083V16.7055V16.7027V16.6999V16.6971V16.6943V16.6915V16.6887V16.6859V16.6831V16.6803V16.6775V16.6747V16.6719V16.6691V16.6663V16.6634V16.6606V16.6578V16.655V16.6522V16.6494V16.6466V16.6438V16.641V16.6382V16.6354V16.6326V16.6298V16.627V16.6242V16.6214V16.6186V16.6158V16.613V16.6102V16.6074V16.6046V16.6018V16.599V16.5962V16.5934V16.5906V16.5878V16.585V16.5822V16.5794V16.5767V16.5739V16.5711V16.5683V16.5655V16.5627V16.5599V16.5571V16.5543V16.5515V16.5487V16.5459V16.5431V16.5403V16.5375V16.5347V16.5319V16.5291V16.5263V16.5235V16.5207V16.5179V16.5151V16.5123V16.5095V16.5067V16.5039V16.5012V16.4984V16.4956V16.4928V16.49V16.4872V16.4844V16.4816V16.4788V16.476V16.4732V16.4704V16.4676V16.4648V16.462V16.4592V16.4565V16.4537V16.4509V16.4481V16.4453V16.4425V16.4397V16.4369V16.4341V16.4313V16.4285V16.4257V16.4229V16.4202V16.4174V16.4146V16.4118V16.409V16.4062V16.4034V16.4006V16.3978V16.395V16.3922V16.3895V16.3867V16.3839V16.3811V16.3783V16.3755V16.3727V16.3699V16.3671V16.3643V16.3616V16.3588V16.356V16.3532V16.3504V16.3476V16.3448V16.342V16.3392V16.3365V16.3337V16.3309V16.3281V16.3253V16.3225V16.3197V16.3169V16.3142V16.3114V16.3086V16.3058V16.303V16.3002V16.2974V16.2946V16.2919V16.2891V16.2863V16.2835V16.2807V16.2779V16.2751V16.2723V16.2696V16.2668V16.264V16.2612V16.2584V16.2556V16.2528V16.2501V16.2473V16.2445V16.2417V16.2389V16.2361V16.2333V16.2306V16.2278V16.225V16.2222V16.2194V16.2166V16.2138V16.2111V16.2083V16.2055V16.2027V16.1999V16.1971V16.1944V16.1916V16.1888V16.186V16.1832V16.1804V16.1777V16.1749V16.1721V16.1693V16.1665V16.1637V16.161V16.1582V16.1554V16.1526V16.1498V16.147V16.1443V16.1415V16.1387V16.1359V16.1331V16.1303V16.1276V16.1248V16.122V16.1192V16.1164V16.1136V16.1109V16.1081V16.1053V16.1025V16.0997V16.097V16.0942V16.0914V16.0886V16.0858V16.083V16.0803V16.0775V16.0747V16.0719V16.0691V16.0664V16.0636V16.0608V16.058V16.0552V16.0525V16.0497V16.0469V16.0441V16.0413V16.0386V16.0358V16.033V16.0302V16.0274V16.0246V16.0219V16.0191V16.0163V16.0135V16.0107V16.008V16.0052V16.0024V15.9996V15.9968V15.9941V15.9913V15.9885V15.9857V15.983V15.9802V15.9774V15.9746V15.9718V15.9691V15.9663V15.9635V15.9607V15.9579V15.9552V15.9524V15.9496V15.9468V15.944V15.9413V15.9385V15.9357V15.9329V15.9301V15.9274V15.9246V15.9218V15.919V15.9163V15.9135V15.9107V15.9079V15.9051V15.9024V15.8996V15.8968V15.894V15.8913V15.8885V15.8857V15.8829V15.8801V15.8774V15.8746V15.8718V15.869V15.8662V15.8635V15.8607V15.8579V15.8551V15.8524V15.8496V15.8468V15.844V15.8412V15.8385V15.8357V15.8329V15.8301V15.8274V15.8246V15.8218V15.819V15.8163V15.8135V15.8107V15.8079V15.8051V15.8024V15.7996V15.7968V15.794V15.7913V15.7885V15.7857V15.7829V15.7801V15.7774V15.7746V15.7718V15.769V15.7663V15.7635V15.7607V15.7579V15.7552V15.7524V15.7496V15.7468V15.744V15.7413V15.7385V15.7357V15.7329V15.7302V15.7274V15.7246V15.7218V15.7191V15.7163V15.7135V15.7107V15.7079V15.7052V15.7024V15.6996V15.6968V15.6941V15.6913V15.6885V15.6857V15.683V15.6802V15.6774V15.6746V15.6719V15.6691V15.6663V15.6635V15.6607V15.658V15.6552V15.6524V15.6496V15.6469V15.6441V15.6413V15.6385V15.6358V15.633V15.6302V15.6274V15.6247V15.6219V15.6191V15.6163V15.6135V15.6108V15.608V15.6052V15.6024V15.5997V15.5969V15.5941V15.5913V15.5886V15.5858V15.583V15.5802V15.5775V15.5747V15.5719V15.5691V15.5663V15.5636V15.5608V15.558V15.5552V15.5525V15.5497V15.5469V15.5441V15.5414V15.5386V15.5358V15.533V15.5302V15.5275V15.5247V15.5219V15.5191V15.5164V15.5136V15.5108V15.508V15.5053V15.5025V15.4997V15.4969V15.4941V15.4914V15.4886V15.4858V15.483V15.4803V15.4775V15.4747V15.4719V15.4692V15.4664V15.4636V15.4608V15.458V15.4553V15.4528C27.2821 14.6645 27.0379 14.0448 26.6164 13.6226C26.195 13.2006 25.5771 12.9565 24.7907 12.9565C23.7319 12.9565 22.6731 12.9563 21.6143 12.9562C19.4965 12.956 17.3787 12.9558 15.2612 12.9565H15.2612C14.4881 12.9565 13.8727 13.2018 13.4509 13.6225C13.0291 14.0432 12.7832 14.657 12.7827 15.4278C12.7807 18.6183 12.7807 21.8079 12.7827 24.9984V24.9985C12.7827 25.7575 13.0292 26.3685 13.449 26.7897C13.8688 27.2109 14.4779 27.4585 15.2337 27.4604C15.5487 27.4611 15.8634 27.4609 16.1872 27.4607C16.3525 27.4605 16.5202 27.4604 16.6914 27.4604H16.8789V27.6479V29.2345V29.3996L16.715 29.4205C15.5015 29.5746 14.2821 29.5353 13.2478 29.0808C12.2041 28.622 11.3694 27.7493 10.9185 26.2831L10.9185 26.2831C10.7909 25.8681 10.7695 25.4173 10.7674 25.0047L10.7674 25.0044C10.756 21.8009 10.755 18.5975 10.7632 15.3941L29.1858 17.0671ZM29.1858 17.0671L29.2377 16.9637M29.1858 17.0671L29.2377 16.9637M29.2377 16.9637L29.2387 16.9616L29.2586 16.9219V16.8776C29.2586 16.6299 29.2676 16.3894 29.2767 16.1479C29.282 16.0061 29.2873 15.8639 29.2909 15.7197C29.3003 15.3362 29.2962 14.9508 29.2389 14.5698L29.2389 14.5697M29.2377 16.9637L29.2389 14.5697M14.3347 10.9992L14.3347 10.9991C14.6298 10.9441 14.9319 10.9359 15.216 10.9349L15.2164 10.9349C15.4308 10.9346 15.6452 10.9344 15.8596 10.9341C18.8606 10.9301 21.8621 10.9262 24.8636 10.9349L14.3347 10.9992ZM14.3347 10.9992C12.1693 11.4035 10.7686 13.1304 10.7632 15.3941L14.3347 10.9992ZM29.2389 14.5697C28.9094 12.3804 27.1293 10.9414 24.8636 10.9349L29.2389 14.5697Z" fill="white" stroke="white" stroke-width="0.375"/>
</svg>
