<svg width="39" height="38" viewBox="0 0 39 38" fill="none" xmlns="http://www.w3.org/2000/svg">
<g clip-path="url(#clip0_2544_686)">
<path d="M37.2067 36.9314L37.2066 36.9313C36.864 36.5456 36.6791 36.1478 36.6164 35.7206C36.5541 35.2959 36.6138 34.8509 36.7456 34.372L36.8613 34.4038L36.7456 34.372C37.2732 32.4554 37.7515 30.5185 37.6619 28.5397C37.6022 27.22 37.4385 25.9061 37.2742 24.5871C37.2257 24.1975 37.1771 23.8076 37.1311 23.4169C36.9853 22.179 36.8137 20.9432 36.642 19.7063C36.617 19.5265 36.592 19.3466 36.5671 19.1668L36.5671 19.1667C36.5306 18.9016 36.4611 18.6362 36.3812 18.3728L36.5009 18.3366M37.2067 36.9314L32.7289 14.9103C32.8027 15.0879 32.8703 15.2642 32.9222 15.4439C33.375 17.0203 33.6664 18.6067 33.5338 20.2418L33.5338 20.2418C33.5146 20.4797 33.5624 20.689 33.6793 20.8453C33.7977 21.0037 33.9764 21.0933 34.1881 21.1081C34.4024 21.1231 34.5965 21.0667 34.7394 20.9308C34.8815 20.7957 34.9573 20.597 34.9666 20.3577L34.9666 20.3576C34.9896 19.7628 34.9977 19.1643 34.9706 18.5676C34.9539 18.2006 34.9091 17.832 34.8643 17.4628C34.8506 17.3501 34.8369 17.2373 34.824 17.1246C35.2029 17.1781 35.5174 17.2915 35.7673 17.4712C36.0485 17.6733 36.2569 17.9657 36.3813 18.3731L36.5009 18.3366M37.2067 36.9314C37.4251 37.1768 37.6169 37.4402 37.8128 37.7095C37.8924 37.8189 37.9728 37.9294 38.0559 38.0399M37.2067 36.9314L38.0559 38.0399M36.5009 18.3366C36.5815 18.6024 36.6531 18.8751 36.691 19.1496L34.8098 16.9965C35.6659 17.1091 36.2503 17.516 36.5009 18.3366ZM38.0559 38.0399V38.125H38.1809H39H39.125V38V37.2723V37.2349L39.1044 37.2036C39.0144 37.0667 38.9241 36.9303 38.8339 36.7941C38.5829 36.4152 38.333 36.0379 38.0928 35.6537C38.0649 35.6089 38.0396 35.5511 38.0249 35.4927C38.0098 35.4329 38.0084 35.3834 38.0165 35.3505C38.0165 35.3504 38.0165 35.3503 38.0166 35.3502L37.8952 35.3201M38.0559 38.0399L39.0803 29.747M37.8952 35.3201C38.3571 33.4766 38.7641 31.6234 38.9562 29.7314C38.9582 29.7076 38.9709 29.6852 38.9835 29.6628C38.9894 29.6524 38.9952 29.642 39 29.6314V27.5939C38.9884 27.4946 38.9773 27.3952 38.9663 27.2958C38.9442 27.097 38.922 26.8982 38.8955 26.7003M37.8952 35.3201C37.8654 35.4404 37.9171 35.6083 37.9868 35.7199L37.8952 35.3201ZM38.8955 26.7003L39.0194 26.6838M38.8955 26.7003L39.0194 26.6837C39.0194 26.6837 39.0194 26.6837 39.0194 26.6838M38.8955 26.7003C38.6795 25.0789 38.4626 23.4567 38.2456 21.8353C38.2013 21.5046 38.1607 21.1734 38.1201 20.8422C38.0265 20.0783 37.9329 19.3148 37.7947 18.5587C37.5519 17.2334 36.8363 16.2544 35.424 15.908M39.0194 26.6838C39.0461 26.883 39.0685 27.0842 39.0907 27.2838C39.1017 27.3829 39.1127 27.4816 39.1242 27.5794L39.125 27.5866V27.5939V29.6314V29.6584L39.1139 29.683C39.1079 29.6962 39.1013 29.7082 39.0964 29.717C39.0945 29.7204 39.0929 29.7232 39.0915 29.7257C39.0886 29.7309 39.0865 29.7347 39.0842 29.739C39.0821 29.743 39.0809 29.7455 39.0803 29.747M39.0194 26.6838C38.8034 25.0624 38.5864 23.4401 38.3695 21.8188C38.3256 21.491 38.2852 21.1615 38.2447 20.8312C38.1509 20.0656 38.0565 19.296 37.9177 18.5363L37.9177 18.5362C37.7934 17.8579 37.5466 17.2597 37.1431 16.7853C36.7387 16.3097 36.183 15.9654 35.4538 15.7866M39.0803 29.747C39.0804 29.746 39.0805 29.745 39.0806 29.744L39.0808 29.742C39.0807 29.7427 39.0806 29.7434 39.0805 29.744C39.0801 29.7469 39.0796 29.7486 39.0796 29.7486C39.0796 29.7486 39.0798 29.7481 39.0803 29.747ZM35.4538 15.7866L35.424 15.908M35.4538 15.7866C35.4538 15.7866 35.4538 15.7866 35.4538 15.7866L35.424 15.908M35.4538 15.7866C35.2154 15.728 34.9635 15.6992 34.7324 15.6729C34.6617 15.6648 34.5929 15.657 34.5271 15.6486M35.424 15.908C35.1936 15.8513 34.9555 15.8242 34.7277 15.7983C34.6279 15.7869 34.53 15.7757 34.4357 15.7624L34.553 15.7192C34.5443 15.6957 34.5357 15.6721 34.5271 15.6486M34.5271 15.6486C34.4753 15.5067 34.4248 15.3646 34.3744 15.2228C34.247 14.8643 34.1203 14.5079 33.9757 14.1618L33.9757 14.1616C33.6066 13.282 32.9014 12.7613 31.9811 12.5607C31.7622 12.5129 31.539 12.4941 31.3213 12.4807C31.2696 12.4775 31.2184 12.4746 31.1676 12.4718C31.0016 12.4624 30.8399 12.4534 30.6792 12.4345L30.6787 12.4344C30.6349 12.4294 30.5784 12.4154 30.5313 12.3951C30.5079 12.3851 30.4903 12.375 30.4788 12.3662C30.4732 12.362 30.4704 12.3592 30.4692 12.3579C30.4687 12.3574 30.4685 12.3571 30.4685 12.3571C30.4684 12.357 30.4693 12.3582 30.4705 12.361M34.5271 15.6486L26.6419 11.1332C26.645 11.1754 26.6481 11.2176 26.6513 11.2597C26.7246 11.2416 26.7965 11.2231 26.8676 11.2049C27.102 11.1447 27.3263 11.0871 27.5543 11.0528C28.7536 10.8723 29.8713 11.2934 30.356 12.4111M30.4705 12.361L30.356 12.4111M30.4705 12.361C30.4706 12.3611 30.4707 12.3613 30.4707 12.3614L30.356 12.4111M30.4705 12.361L30.6646 12.5586M30.356 12.4111C30.3909 12.4907 30.5541 12.546 30.6646 12.5586M15.9251 17.1299C16.3981 17.102 16.9113 17.1545 17.362 17.3071L17.3621 17.3071C19.2838 17.9591 20.8401 19.0744 21.7072 20.9633L15.9251 17.1299ZM15.9251 17.1299C15.9251 17.1299 15.9252 17.1299 15.9252 17.1299L15.9325 17.2547L15.9251 17.1299ZM15.9251 17.1299C15.0545 17.181 14.4 17.5853 14.0833 18.1775C13.7661 18.7705 13.8009 19.5272 14.2582 20.2535L14.2582 20.2535C14.6002 20.796 15.0177 21.297 15.4422 21.7721L15.4422 21.7721C16.4742 22.9271 17.2359 24.2243 17.7301 25.6762C18.1818 27.0041 18.8137 28.2424 19.5693 29.4279C20.3073 30.586 21.0076 31.7702 21.6671 32.9739C22.0937 33.7533 22.6299 34.4327 23.3654 34.9453C24.0459 35.4197 24.762 35.847 25.4711 36.2703L25.4977 36.2861L25.4978 36.2862M15.9251 17.1299L25.4978 36.2862M30.6646 12.5586C30.8294 12.578 30.9963 12.5874 31.1631 12.5967C31.4303 12.6117 31.6971 12.6267 31.9544 12.6828L30.6646 12.5586ZM31.2649 19.7983L31.2649 19.7985C31.282 20.0128 31.2267 20.205 31.109 20.3492C30.9911 20.4937 30.818 20.5806 30.618 20.5967L31.2649 19.7983ZM31.2649 19.7983C31.1703 18.6383 31.0667 17.4783 30.9632 16.3189C30.9095 15.7131 30.8528 15.1071 30.7962 14.5036C30.7767 14.2948 30.7571 14.0863 30.7378 13.8782M31.2649 19.7983L30.7378 13.8782M29.4861 15.9813L29.4861 15.9812C29.4724 15.8287 29.459 15.6763 29.4455 15.524C29.3832 14.8186 29.3211 14.115 29.2435 13.4126L29.2435 13.4125C29.1927 12.9498 29.0569 12.5586 28.6205 12.4048L28.6205 12.4048C28.0536 12.2047 27.4918 12.2448 26.9894 12.5845L26.9893 12.5846C26.7768 12.728 26.739 12.9582 26.7545 13.2574C26.8441 14.9165 26.9317 16.5749 27.0143 18.2342C27.0572 19.0829 27.093 19.9315 27.1229 20.7802C27.1316 21.0272 27.0746 21.2417 26.9503 21.398C26.8239 21.557 26.6385 21.6423 26.4214 21.6469C26.204 21.6515 26.0199 21.5729 25.8893 21.4186C25.7619 21.2681 25.6952 21.0576 25.6818 20.8128C25.6277 19.8298 25.5744 18.8469 25.5211 17.864C25.3538 14.7792 25.1866 11.6949 24.9941 8.61159L24.9941 8.61157C24.9216 7.44636 24.7559 6.28407 24.5899 5.11952C24.5813 5.05943 24.5727 4.99935 24.5642 4.93925L24.5642 4.93918C24.5062 4.53036 24.3732 4.36287 24.2203 4.31317C24.0521 4.25849 23.7921 4.31833 23.4185 4.53752L23.3553 4.42971M29.4861 15.9813L23.192 4.79744L23.317 4.80135C23.317 4.80132 23.317 4.80129 23.317 4.80126C23.3185 4.75387 23.3316 4.69098 23.3546 4.63479C23.3794 4.57438 23.4059 4.54499 23.419 4.53723L23.3553 4.42971M29.4861 15.9813C29.5293 16.4619 29.5711 16.943 29.6129 17.4242C29.6856 18.2598 29.7582 19.096 29.8385 19.931C29.8594 20.1487 29.9449 20.3272 30.0878 20.4463M29.4861 15.9813L30.0878 20.4463M23.3553 4.42971C24.1077 3.98824 24.5685 4.07944 24.6879 4.92163L23.3553 4.42971ZM23.0671 23.8555L23.0671 23.8557C23.0654 23.897 23.0638 23.9386 23.0622 23.9804C23.0546 24.1809 23.0468 24.3859 23.0258 24.5899L23.0671 23.8555ZM23.0671 23.8555C23.0924 23.2154 23.1225 22.5746 23.1526 21.9331C23.2221 20.4543 23.2917 18.9726 23.3021 17.4914L23.0671 23.8555ZM22.2728 25.2465L22.2727 25.2465C21.9015 25.2267 21.6022 24.9463 21.601 24.5466L21.601 24.5463C21.601 24.3605 21.614 24.1753 21.6267 23.9953L21.6282 23.9744C21.6414 23.7863 21.6537 23.6038 21.6518 23.4224C21.6503 23.327 21.589 23.2036 21.508 23.0877L21.6105 23.0162M22.2728 25.2465L22.6909 31.8794C22.4492 31.3693 22.1568 30.8843 21.8579 30.4077C21.7918 30.3023 21.7255 30.1974 21.6593 30.0928C21.4249 29.7223 21.1924 29.3547 20.9789 28.9771L20.9789 28.9771C20.842 28.7351 20.7014 28.4957 20.5613 28.2572C20.1014 27.4741 19.6466 26.6997 19.3443 25.8715L19.3443 25.8714C18.604 23.8459 17.6221 21.984 16.118 20.3874L16.1179 20.3872C15.836 20.089 15.6028 19.7337 15.3905 19.3708L15.2826 19.4339M22.2728 25.2465C22.6701 25.2675 22.9843 24.9985 23.0258 24.5901L22.2728 25.2465ZM21.6105 23.0162L21.5081 23.0878C21.3777 22.9014 21.2385 22.7218 21.0972 22.5396C21.0334 22.4572 20.9692 22.3744 20.9051 22.2901C20.7015 22.0221 20.5035 21.7442 20.3463 21.4431C19.5378 19.8971 18.2241 19.02 16.5504 18.5767L16.5504 18.5767C16.2993 18.5101 15.9817 18.5442 15.7026 18.6202L15.7025 18.6202C15.4863 18.6789 15.3662 18.7862 15.3178 18.904C15.2694 19.0218 15.2799 19.1811 15.3906 19.371L15.2826 19.4339M21.6105 23.0162C21.4784 22.8272 21.336 22.6436 21.1938 22.4601C20.9249 22.1131 20.6562 21.7666 20.457 21.3851L21.7515 24.0026C21.7652 23.8085 21.7788 23.6145 21.7768 23.4208C21.7748 23.2849 21.6932 23.1345 21.6105 23.0162ZM15.2826 19.4339C15.0348 19.009 15.187 18.6305 15.6697 18.4996C15.9584 18.421 16.3008 18.3812 16.5824 18.4559L15.2826 19.4339ZM25.4978 36.2862C25.7042 36.4091 25.919 36.4498 26.1129 36.4074C26.3077 36.3648 26.4695 36.2407 26.57 36.0577M25.4978 36.2862L26.57 36.0577M30.7378 13.8782C31.6405 13.7225 32.4019 14.1288 32.7288 14.91L30.7378 13.8782ZM30.0878 20.4463C30.2304 20.5651 30.4167 20.6134 30.6178 20.5967L30.0878 20.4463ZM26.57 36.0577C26.5701 36.0576 26.5701 36.0576 26.5701 36.0575L26.4605 35.9974L26.57 36.0577ZM21.9529 4.16152C21.9409 4.28496 21.9278 4.40928 21.9146 4.53425C21.8693 4.96384 21.8231 5.40118 21.82 5.8376C21.8029 8.10915 21.8012 10.3807 21.7996 12.6517C21.7994 12.8907 21.7992 13.1297 21.7991 13.3687V13.3687C21.7986 14.5625 21.7998 15.7563 21.801 16.9499L21.8011 16.9507C21.8023 18.1446 21.8035 19.3384 21.803 20.5322V20.5323C21.803 20.72 21.79 20.9055 21.7765 21.0959L21.9529 4.16152ZM25.1893 34.4892C24.1068 33.838 23.2388 33.0347 22.6909 31.8794L26.183 35.0508C26.0958 35.0021 26.0088 34.954 25.9221 34.9061C25.6748 34.7694 25.43 34.634 25.1893 34.4892Z" fill="white" stroke="white" stroke-width="0.25"/>
<path d="M13.9539 37.8193L13.9406 37.8164C13.7943 37.7842 13.6488 37.7576 13.5009 37.7306C13.4134 37.7146 13.3251 37.6984 13.2353 37.6809C12.9976 37.6345 12.7573 37.5796 12.5254 37.4951L12.5253 37.495C11.1229 36.9824 10.2234 35.875 9.83092 34.2568H9.50742H9.49252H9.47761H9.46271H9.44781H9.43291H9.41801H9.4031H9.3882H9.3733H9.3584H9.3435H9.3286H9.31369H9.29879H9.28389H9.26899H9.25409H9.23919H9.22428H9.20938H9.19448H9.17958H9.16468H9.14978H9.13487H9.11997H9.10507H9.09017H9.07527H9.06037H9.04546H9.03056H9.01566H9.00076H8.98586H8.97095H8.95605H8.94115H8.92625H8.91135H8.89645H8.88154H8.86664H8.85174H8.83684H8.82194H8.80704H8.79213H8.77723H8.76233H8.74743H8.73253H8.71763H8.70272H8.68782H8.67292H8.65802H8.64312H8.62821H8.61331H8.59841H8.58351H8.56861H8.55371H8.5388H8.5239H8.509H8.4941H8.4792H8.4643H8.44939H8.43449H8.41959H8.40469H8.38979H8.37489H8.35998H8.34508H8.33018H8.31528H8.30038H8.28548H8.27057H8.25567H8.24077H8.22587H8.21097H8.19606H8.18116H8.16626H8.15136H8.13646H8.12156H8.10665H8.09175H8.07685H8.06195H8.04705H8.03215H8.01724H8.00234H7.98744H7.97254H7.95764H7.94274H7.92783H7.91293H7.89803H7.88313H7.86823H7.85332H7.83842H7.82352H7.80862H7.79372H7.77882H7.76391H7.74901H7.73411H7.71921H7.70431H7.68941H7.6745H7.6596H7.6447H7.6298H7.6149H7.6H7.58509H7.57019H7.55529H7.54039H7.52549H7.51058H7.49568H7.48078H7.46588H7.45098H7.43608H7.42117H7.40627H7.39137H7.37647H7.36157H7.34667H7.33176H7.31686H7.30196H7.28706H7.27216H7.25726H7.24235H7.22745H7.21255H7.19765H7.18275H7.16785H7.15294H7.13804H7.12314H7.10824H7.09334H7.07843H7.06353H7.04863H7.03373H7.01883H7.00393H6.98902H6.97412H6.95922H6.94432H6.92942H6.91452H6.89961H6.88471H6.86981H6.85491H6.84001H6.82511H6.8102H6.7953H6.7804H6.7655H6.7506H6.73569H6.72079H6.70589H6.69099H6.67609H6.66119H6.64628H6.63138H6.61648H6.60158H6.58668H6.57178H6.55687H6.54197H6.52707H6.51217H6.49727H6.48237H6.46746H6.45256H6.43766H6.42276H6.40786H6.39296H6.37805H6.36315H6.34825H6.33335H6.31845H6.30354H6.28864H6.27374H6.25884H6.24394H6.22904H6.21413H6.19923H6.18433H6.16943H6.15453H6.13963H6.12472H6.10982H6.09492H6.08002H6.06512H6.05022H6.03531H6.02041H6.00551H5.99061H5.97571H5.9608H5.9459H5.931H5.9161H5.9012H5.8863H5.87139H5.85649H5.84159H5.82669H5.81179H5.79689H5.78198H5.76708H5.75218H5.73728H5.72238H5.70748H5.69257H5.67767H5.66277H5.64787H5.63297H5.61806H5.60316H5.58826H5.57336H5.55846H5.54356H5.52865H5.51375H5.49885H5.48395H5.46905H5.45415H5.43924H5.42434H5.40944H5.39454H5.37964H5.36474H5.34983H5.33493H5.32003H5.30513H5.29023H5.27533H5.26042H5.24552H5.23062H5.21572H5.20082H5.18591H5.17101H5.15611H5.14121H5.12631H5.11141H5.0965H5.0816H5.0667H5.0518H5.0369H5.022H5.00709H4.99219H4.97729H4.96239H4.94749H4.93259H4.91768H4.90278H4.88788H4.87298H4.85808H4.84317H4.82827H4.81337H4.79847H4.78357H4.76867H4.75376H4.73886H4.72396H4.70906H4.69416H4.67926H4.66435H4.64945H4.63455H4.61965H4.60475H4.58985H4.57494H4.56004H4.54514H4.53024H4.51534H4.50044H4.48553H4.47063H4.45573H4.44083H4.42593H4.41102H4.39612H4.38122H4.36632H4.35142H4.33652H4.32161H4.30671H4.29181H4.27691H4.26201H4.24711H4.2322H4.2173H4.2024H4.1875H4.1726H4.1577H4.14279H4.12789H4.11299H4.09809H4.08319H4.06828H4.05338H4.03848H4.02358H4.00868H3.99378H3.97887H3.96397H3.94907H3.93417H3.91927H3.90437H3.88946H3.87456H3.85966H3.84476H3.82986H3.81496H3.80005H3.78515H3.77025H3.75535H3.74045H3.72554H3.71064H3.69574H3.68084H3.66594H3.65104H3.63613H3.62123H3.60633H3.59143H3.57653H3.56163H3.54672H3.53182H3.51692H3.50202H3.48712H3.47222H3.45731H3.44241H3.42751H3.41261H3.39771H3.38281H3.3679H3.353H3.3381H3.3232H3.3083H3.29339H3.27849H3.26359H3.24869H3.23379H3.21889H3.20398H3.18908H3.17418H3.15928H3.14438H3.12948H3.11457H3.09967H3.08477H3.06987H3.05497H3.04007H3.02516H3.01026H2.99536H2.98046H2.96556H2.95065H2.93575H2.92085H2.90595H2.89105H2.87615H2.86124H2.84634H2.83144H2.81654H2.80164H2.78674H2.77183H2.75693H2.74203H2.72713H2.71223H2.69733H2.68242H2.66752H2.65262H2.63772H2.62282H2.60792H2.59301H2.57811H2.56321H2.54831H2.53341H2.5185H2.5036H2.4887H2.4738H2.4589H2.444H2.42909H2.41419H2.39929H2.38439H2.36949H2.35459H2.33968H2.32478H2.30988H2.29498H2.28008H2.26518H2.25027H2.23537H2.22047H2.20557H2.19067H2.17576H2.16086H2.14596H2.13106H2.11616H2.10126H2.08635H2.07145H2.05655H2.04165H2.02675H2.01185H1.99694H1.98204H1.96714H1.95224H1.93734H1.92244H1.90753H1.89263H1.87773C1.85336 34.2568 1.82735 34.2572 1.80022 34.2577C1.71563 34.259 1.62018 34.2606 1.5297 34.25L1.52897 34.2499C1.15012 34.2033 0.860801 33.8963 0.884107 33.5156M13.9539 37.8193L14.1945 29.3025C13.2764 29.2555 12.4306 29.5053 11.6692 30.0173L11.6692 30.0173C10.6639 30.6934 10.0729 31.6455 9.82653 32.8203H9.4995H9.4846H9.4697H9.45479H9.43989H9.42499H9.41009H9.39519H9.38029H9.36539H9.35048H9.33558H9.32068H9.30578H9.29088H9.27597H9.26107H9.24617H9.23127H9.21637H9.20147H9.18656H9.17166H9.15676H9.14186H9.12696H9.11206H9.09715H9.08225H9.06735H9.05245H9.03755H9.02264H9.00774H8.99284H8.97794H8.96304H8.94814H8.93323H8.91833H8.90343H8.88853H8.87363H8.85873H8.84382H8.82892H8.81402H8.79912H8.78422H8.76932H8.75441H8.73951H8.72461H8.70971H8.69481H8.6799H8.665H8.6501H8.6352H8.6203H8.6054H8.59049H8.57559H8.56069H8.54579H8.53089H8.51599H8.50108H8.48618H8.47128H8.45638H8.44148H8.42658H8.41167H8.39677H8.38187H8.36697H8.35207H8.33717H8.32226H8.30736H8.29246H8.27756H8.26266H8.24776H8.23285H8.21795H8.20305H8.18815H8.17325H8.15834H8.14344H8.12854H8.11364H8.09874H8.08384H8.06893H8.05403H8.03913H8.02423H8.00933H7.99443H7.97952H7.96462H7.94972H7.93482H7.91992H7.90501H7.89011H7.87521H7.86031H7.84541H7.83051H7.8156H7.8007H7.7858H7.7709H7.756H7.7411H7.72619H7.71129H7.69639H7.68149H7.66659H7.65169H7.63678H7.62188H7.60698H7.59208H7.57718H7.56227H7.54737H7.53247H7.51757H7.50267H7.48777H7.47286H7.45796H7.44306H7.42816H7.41326H7.39836H7.38345H7.36855H7.35365H7.33875H7.32385H7.30895H7.29404H7.27914H7.26424H7.24934H7.23444H7.21954H7.20463H7.18973H7.17483H7.15993H7.14503H7.13013H7.11522H7.10032H7.08542H7.07052H7.05562H7.04071H7.02581H7.01091H6.99601H6.98111H6.96621H6.9513H6.9364H6.9215H6.9066H6.8917H6.8768H6.86189H6.84699H6.83209H6.81719H6.80229H6.78738H6.77248H6.75758H6.74268H6.72778H6.71288H6.69797H6.68307H6.66817H6.65327H6.63837H6.62347H6.60856H6.59366H6.57876H6.56386H6.54896H6.53406H6.51915H6.50425H6.48935H6.47445H6.45955H6.44465H6.42974H6.41484H6.39994H6.38504H6.37014H6.35524H6.34033H6.32543H6.31053H6.29563H6.28073H6.26582H6.25092H6.23602H6.22112H6.20622H6.19132H6.17641H6.16151H6.14661H6.13171H6.11681H6.10191H6.087H6.0721H6.0572H6.0423H6.0274H6.0125H5.99759H5.98269H5.96779H5.95289H5.93799H5.92308H5.90818H5.89328H5.87838H5.86348H5.84858H5.83367H5.81877H5.80387H5.78897H5.77407H5.75917H5.74426H5.72936H5.71446H5.69956H5.68466H5.66975H5.65485H5.63995H5.62505H5.61015H5.59525H5.58034H5.56544H5.55054H5.53564H5.52074H5.50584H5.49093H5.47603H5.46113H5.44623H5.43133H5.41643H5.40152H5.38662H5.37172H5.35682H5.34192H5.32702H5.31211H5.29721H5.28231H5.26741H5.25251H5.23761H5.2227H5.2078H5.1929H5.178H5.1631H5.14819H5.13329H5.11839H5.10349H5.08859H5.07369H5.05878H5.04388H5.02898H5.01408H4.99918H4.98428H4.96937H4.95447H4.93957H4.92467H4.90977H4.89487H4.87996H4.86506H4.85016H4.83526H4.82036H4.80545H4.79055H4.77565H4.76075H4.74585H4.73095H4.71604H4.70114H4.68624H4.67134H4.65644H4.64154H4.62663H4.61173H4.59683H4.58193H4.56703H4.55213H4.53722H4.52232H4.50742H4.49252H4.47762H4.46271H4.44781H4.43291H4.41801H4.40311H4.38821H4.3733H4.3584H4.3435H4.3286H4.3137H4.2988H4.28389H4.26899H4.25409H4.23919H4.22429H4.20939H4.19448H4.17958H4.16468H4.14978H4.13488H4.11998H4.10507H4.09017H4.07527H4.06037H4.04547H4.03056H4.01566H4.00076H3.98586H3.97096H3.95606H3.94115H3.92625H3.91135H3.89645H3.88155H3.86665H3.85174H3.83684H3.82194H3.80704H3.79214H3.77724H3.76233H3.74743H3.73253H3.71763H3.70273H3.68782H3.67292H3.65802H3.64312H3.62822H3.61332H3.59841H3.58351H3.56861H3.55371H3.53881H3.52391H3.509H3.4941H3.4792H3.4643H3.4494H3.4345H3.41959H3.40469H3.38979H3.37489H3.35999H3.34508H3.33018H3.31528H3.30038H3.28548H3.27058H3.25567H3.24077H3.22587H3.21097H3.19607H3.18117H3.16626H3.15136H3.13646H3.12156H3.10666H3.09176H3.07685H3.06195H3.04705H3.03215H3.01725H3.00235H2.98744H2.97254H2.95764H2.94274H2.92784H2.91293H2.89803H2.88313H2.86823H2.85333H2.83843H2.82352H2.80862H2.79372H2.77882H2.76392H2.74902H2.73411H2.71921H2.70431H2.68941H2.67451H2.65961H2.6447H2.6298H2.6149H2.6H2.5851H2.57019H2.55529H2.54039H2.52549H2.51059H2.49569H2.48078H2.46588H2.45098H2.43608H2.42118H2.40628H2.39137H2.37647H2.36157H2.34667H2.33177H2.31687H2.30196H2.28706H2.27216H2.25726H2.24236H2.22746H2.21255H2.19765H2.18275H2.16785H2.15295H2.13804H2.12314H2.10824H2.09334H2.07844H2.06354H2.04863H2.03373H2.01883H2.00393H1.98903H1.97413H1.95922H1.94432H1.92942H1.91452H1.89962H1.88472H1.86981C1.84636 32.8203 1.8203 32.8196 1.7925 32.8188C1.70872 32.8165 1.60914 32.8138 1.51751 32.8288C1.33709 32.8577 1.1821 32.9283 1.06916 33.0486C0.955737 33.1694 0.895395 33.3289 0.884107 33.5156M13.9539 37.8193H13.9675M13.9539 37.8193H13.9675M0.884107 33.5156C0.884108 33.5156 0.884109 33.5156 0.88411 33.5155L1.0086 33.5232L0.884104 33.5157C0.884105 33.5156 0.884106 33.5156 0.884107 33.5156ZM13.9675 37.8193H14.1159H14.1273L14.1385 37.8172C14.1815 37.8093 14.2206 37.8011 14.2576 37.7932C14.3254 37.7789 14.3865 37.7659 14.4529 37.7593L14.4533 37.7593C15.7998 37.6209 16.8717 36.9836 17.5986 35.8478C17.7609 35.5946 17.8867 35.321 18.0034 35.0411C18.0472 34.9362 18.0893 34.8315 18.1315 34.7265C18.1938 34.5715 18.2564 34.4159 18.3251 34.2578H18.3255H18.326H18.3266H18.3272H18.3278H18.3284H18.3291H18.3297H18.3303H18.3309H18.3315H18.3321H18.3327H18.3333H18.3339H18.3345H18.3351H18.3357H18.3364H18.337H18.3376H18.3382H18.3388H18.3395H18.3401H18.3407H18.3413H18.3419H18.3426H18.3432H18.3438H18.3445H18.3451H18.3457H18.3463H18.347H18.3476H18.3482H18.3489H18.3495H18.3502H18.3508H18.3514H18.3521H18.3527H18.3534H18.354H18.3546H18.3553H18.3559H18.3566H18.3572H18.3579H18.3585H18.3592H18.3598H18.3605H18.3611H18.3618H18.3624H18.3631H18.3637H18.3644H18.3651H18.3657H18.3664H18.367H18.3677H18.3684H18.369H18.3697H18.3704H18.371H18.3717H18.3724H18.373H18.3737H18.3744H18.3751H18.3757H18.3764H18.3771H18.3777H18.3784H18.3791H18.3798H18.3805H18.3811H18.3818H18.3825H18.3832H18.3839H18.3845H18.3852H18.3859H18.3866H18.3873H18.388H18.3887H18.3893H18.39H18.3907H18.3914H18.3921H18.3928H18.3935H18.3942H18.3949H18.3956H18.3963H18.397H18.3977H18.3984H18.3991H18.3998H18.4005H18.4012H18.4019H18.4026H18.4033H18.404H18.4047H18.4054H18.4061H18.4068H18.4075H18.4082H18.4089H18.4097H18.4104H18.4111H18.4118H18.4125H18.4132H18.4139H18.4146H18.4154H18.4161H18.4168H18.4175H18.4182H18.419H18.4197H18.4204H18.4211H18.4218H18.4226H18.4233H18.424H18.4247H18.4255H18.4262H18.4269H18.4276H18.4284H18.4291H18.4298H18.4305H18.4313H18.432H18.4327H18.4335H18.4342H18.4349H18.4357H18.4364H18.4371H18.4379H18.4386H18.4393H18.4401H18.4408H18.4416H18.4423H18.443H18.4438H18.4445H18.4453H18.446H18.4467H18.4475H18.4482H18.449H18.4497H18.4505H18.4512H18.4519H18.4527H18.4534H18.4542H18.4549H18.4557H18.4564H18.4572H18.4579H18.4587H18.4594H18.4602H18.4609H18.4617H18.4624H18.4632H18.4639H18.4647H18.4655H18.4662H18.467H18.4677H18.4685H18.4692H18.47H18.4707H18.4715H18.4723H18.473H18.4738H18.4745H18.4753H18.4761H18.4768H18.4776H18.4783H18.4791H18.4799H18.4806H18.4814H18.4822H18.4829H18.4837H18.4845H18.4852H18.486H18.4867H18.4875H18.4883H18.489H18.4898H18.4906H18.4914H18.4921H18.4929H18.4937H18.4944H18.4952H18.496H18.4967H18.4975H18.4983H18.4991H18.4998H18.5006H18.5014H18.5021H18.5029H18.5037H18.5045H18.5052H18.506H18.5068H18.5076H18.5083H18.5091H18.5099H18.5107H18.5114H18.5122H18.513H18.5138H18.5146H18.5153H18.5161H18.5169H18.5177H18.5184H18.5192H18.52H18.5208H18.5216H18.5223H18.5231H18.5239H18.5247H18.5255H18.5262H18.527H18.5278H18.5286H18.5294H18.5302H18.5309H18.5317H18.5325H18.5333H18.5341H18.5348H18.5356H18.5364H18.5372H18.538H18.5388H18.5396H18.5403H18.5411H18.5419H18.5427H18.5435H18.5443H18.545H18.5458H18.5466H18.5474H18.5482H18.549H18.5498H18.5506H18.5513H18.5521H18.5529H18.5537H18.5545H18.5553H18.5561H18.5568H18.5576H18.5584H18.5592H18.56H18.5608H18.5616H18.5624H18.5631H18.5639H18.5647H18.5655H18.5663H18.5671H18.5679H18.5687H18.5695H18.5702H18.571H18.5718H18.5726H18.5734H18.5742H18.575C18.7294 34.2578 18.8843 34.2583 19.0395 34.2589C19.4401 34.2603 19.8426 34.2617 20.2439 34.2538L20.244 34.2538C20.6423 34.2457 20.9468 33.9848 20.9737 33.6063L20.9737 33.6061M13.9675 37.8193L20.9737 33.6061M20.9737 33.6061C20.9862 33.4283 20.9497 33.2676 20.8596 33.1357C20.7696 33.0041 20.6338 32.9124 20.4674 32.8582C20.3475 32.8186 20.2138 32.8199 20.1083 32.821C20.0923 32.8211 20.077 32.8213 20.0625 32.8213C19.5825 32.8198 19.1025 32.82 18.6273 32.8202C18.5022 32.8202 18.3776 32.8203 18.2533 32.8203M20.9737 33.6061L18.2533 32.8203M18.2533 32.8203C17.9848 31.7651 17.498 30.92 16.8221 30.3212C16.1251 29.7039 15.2346 29.3552 14.1945 29.3025L18.2533 32.8203ZM14.042 30.6953L14.0936 30.6952L14.0942 30.6946C15.6336 30.7186 16.8813 31.9897 16.8785 33.5467C16.8747 35.1021 15.6119 36.3703 14.0587 36.3798C12.4902 36.3893 11.2039 35.1113 11.2039 33.5469C11.2039 31.9709 12.4704 30.6991 14.042 30.6953Z" fill="white" stroke="white" stroke-width="0.25"/>
<path d="M23.1831 -0.139271L23.2526 -0.120816C23.3465 -0.0958935 23.4426 -0.0719432 23.5397 -0.0477387C23.7656 0.00857093 23.9971 0.0662559 24.2192 0.140761L24.2192 0.14077C24.4475 0.217403 24.6244 0.345212 24.728 0.511593C24.833 0.680171 24.856 0.878161 24.7922 1.07553L24.7921 1.07573C24.7238 1.28575 24.5902 1.43902 24.4002 1.51354C24.2145 1.5864 23.9923 1.57723 23.7546 1.50156L23.7546 1.50155C22.2501 1.0223 20.798 1.68874 20.2779 3.09041C19.9142 4.07072 20.0878 4.96775 20.7285 5.79149L20.7287 5.79183C20.755 5.82578 20.7847 5.85803 20.8189 5.89519L20.8191 5.89533C20.852 5.93111 20.8895 5.97171 20.9233 6.01627L20.9235 6.01648C21.1701 6.34266 21.1481 6.75836 20.8496 7.01922L20.8494 7.01943C20.5713 7.26119 20.1588 7.25256 19.8751 6.97953L19.875 6.97943C19.3488 6.47161 19.0028 5.85384 18.8054 5.15506L18.8054 5.15476C18.7854 5.08325 18.7656 5.01091 18.7447 4.93452C18.7394 4.91496 18.734 4.89514 18.7285 4.875H18.3745H18.3424H18.3102H18.278H18.2458H18.2137H18.1815H18.1493H18.1171H18.085H18.0528H18.0206H17.9884H17.9563H17.9241H17.8919H17.8597H17.8276H17.7954H17.7632H17.731H17.6989H17.6667H17.6345H17.6023H17.5702H17.538H17.5058H17.4736H17.4415H17.4093H17.3771H17.3449H17.3128H17.2806H17.2484H17.2162H17.1841H17.1519H17.1197H17.0875H17.0554H17.0232H16.991H16.9588H16.9267H16.8945H16.8623H16.8301H16.798H16.7658H16.7336H16.7014H16.6693H16.6371H16.6049H16.5727H16.5406H16.5084H16.4762H16.444H16.4119H16.3797H16.3475H16.3153H16.2832H16.251H16.2188H16.1866H16.1545H16.1223H16.0901H16.0579H16.0258H15.9936H15.9614H15.9292H15.8971H15.8649H15.8327H15.8005H15.7684H15.7362H15.704H15.6718H15.6397H15.6075H15.5753H15.5431H15.511H15.4788H15.4466H15.4144H15.3823H15.3501H15.3179H15.2857H15.2536H15.2214H15.1892H15.157H15.1249H15.0927H15.0605H15.0283H14.9962H14.964H14.9318H14.8996H14.8675H14.8353H14.8031H14.7709H14.7388H14.7066H14.6744H14.6422H14.6101H14.5779H14.5457H14.5135H14.4814H14.4492H14.417H14.3848H14.3527H14.3205H14.2883H14.2561H14.224H14.1918H14.1596H14.1274H14.0953H14.0631H14.0309H13.9987H13.9666H13.9344H13.9022H13.87H13.8379H13.8057H13.7735H13.7413H13.7092H13.677H13.6448H13.6126H13.5805H13.5483H13.5161H13.4839H13.4518H13.4196H13.3874H13.3552H13.3231H13.2909H13.2587H13.2265H13.1944H13.1622H13.13H13.0978H13.0657H13.0335H13.0013H12.9691H12.937H12.9048H12.8726H12.8404H12.8083H12.7761H12.7439H12.7117H12.6796H12.6474H12.6152H12.583H12.5509H12.5187H12.4865H12.4543H12.4222H12.39H12.3578H12.3256H12.2935H12.2613H12.2291H12.1969H12.1648H12.1326H12.1004H12.0682H12.0361H12.0039H11.9717H11.9395H11.9074H11.8752H11.843H11.8108H11.7787H11.7465H11.7143H11.6821H11.65H11.6178H11.5856H11.5534H11.5213H11.4891H11.4569H11.4247H11.3926H11.3604H11.3282H11.296H11.2639H11.2317H11.1995H11.1673H11.1352H11.103H11.0708H11.0386H11.0065H10.9743H10.9421H10.9099H10.8778H10.8456H10.8134H10.7812H10.7491H10.7169H10.6847H10.6525H10.6204H10.5882H10.556H10.5238H10.4917H10.4595H10.4273H10.3951H10.363H10.3308H10.2986H10.2664H10.2343H10.2021H10.1699H10.1377H10.1056H10.0734H10.0412H10.009H9.97687H9.94469H9.91252H9.88034H9.84817H9.816H9.78382H9.75165H9.71947H9.68729H9.65512H9.62294H9.59077H9.55859H9.52642H9.49424H9.46207H9.4299H9.39772H9.36555H9.33337H9.3012H9.26902H9.23685H9.20467H9.17249H9.14032H9.10814H9.07597H9.0438H9.01162H8.97944H8.94727H8.9151H8.88292H8.85075H8.81857H8.7864H8.75422H8.72205H8.68987H8.6577H8.62552H8.59335H8.56117H8.529H8.49682H8.46465H8.43247H8.4003H8.36812H8.33595H8.30377H8.2716H8.23942H8.20725H8.17507H8.1429H8.11072H8.07855H8.04637H8.0142H7.98202H7.94985H7.91767H7.8855H7.85332H7.82115H7.78897H7.7568H7.72462H7.69245H7.66027H7.6281H7.59592H7.56375H7.53157H7.4994H7.46722H7.43505H7.40287H7.3707H7.33852H7.30635H7.27417H7.242H7.20982H7.17765H7.14547H7.1133H7.08112H7.04895H7.01677H6.9846H6.95242H6.92025H6.88807H6.8559H6.82372H6.79155H6.75937H6.7272H6.69502H6.66285H6.63067H6.5985H6.56632H6.53415H6.50197H6.4698H6.43762H6.40545H6.37327H6.3411H6.30892H6.27675H6.24457H6.2124H6.18022H6.14805H6.11587H6.0837H6.05152H6.01935H5.98717H5.955H5.92282H5.89065H5.85847H5.8263H5.79412H5.76195H5.72977H5.6976H5.66542H5.63325H5.60107H5.5689H5.53672H5.50455H5.47237H5.4402H5.40802H5.37585H5.34367H5.3115H5.27932H5.24715H5.21497H5.1828H5.15062H5.11845H5.08627H5.0541H5.02192H4.98975H4.95757H4.9254H4.89322H4.86105H4.82887H4.7967H4.76452H4.73235H4.70017H4.668H4.63582H4.60365H4.57147H4.5393H4.50712H4.47495H4.44277H4.4106H4.37842H4.34625H4.31407H4.2819H4.24972H4.21755H4.18537H4.1532H4.12102H4.08885H4.05667H4.0245H3.99232H3.96015H3.92797H3.8958H3.86362H3.83145H3.79927H3.7671H3.73492H3.70275H3.67057H3.6384H3.60622H3.57405H3.54187H3.5097H3.47752H3.44535H3.41317H3.381H3.34882H3.31665H3.28447H3.2523H3.22012H3.18795H3.15577H3.1236H3.09142H3.05925H3.02707H2.9949H2.96272H2.93055H2.89837H2.8662H2.83402H2.80185H2.76967H2.7375H2.70532H2.67315H2.64097H2.6088H2.57662H2.54445H2.51227H2.4801H2.44792H2.41575H2.38357H2.3514H2.31922H2.28705H2.25487H2.2227H2.19052H2.15835H2.12617H2.094H2.06182H2.02965H1.99747H1.9653H1.93312H1.90095C1.87349 4.875 1.84439 4.87549 1.81418 4.87599C1.72019 4.87756 1.61543 4.87931 1.51571 4.86715L1.5151 4.86708C1.13718 4.81911 0.849727 4.50589 0.876732 4.12659L0.876746 4.1264C0.890268 3.94047 0.952068 3.78135 1.06653 3.66157C1.18064 3.54215 1.33644 3.47295 1.5179 3.4467M23.1831 -0.139271L1.53579 3.57042M23.1831 -0.139271L23.1678 -0.12401M23.1831 -0.139271L23.1678 -0.12401M1.5179 3.4467L1.53579 3.57042M1.5179 3.4467C1.51778 3.44672 1.51766 3.44674 1.51755 3.44676L1.53579 3.57042M1.5179 3.4467C1.61686 3.43215 1.72364 3.43474 1.81659 3.43699C1.84825 3.43776 1.8783 3.43849 1.9059 3.43849H1.938H1.97011H2.00221H2.03432H2.06642H2.09853H2.13063H2.16274H2.19484H2.22695H2.25905H2.29116H2.32326H2.35537H2.38747H2.41958H2.45168H2.48379H2.51589H2.548H2.5801H2.61221H2.64431H2.67642H2.70852H2.74063H2.77273H2.80484H2.83694H2.86905H2.90115H2.93326H2.96536H2.99747H3.02957H3.06168H3.09378H3.12589H3.15799H3.19009H3.2222H3.2543H3.28641H3.31851H3.35062H3.38272H3.41483H3.44693H3.47904H3.51114H3.54324H3.57535H3.60745H3.63956H3.67166H3.70377H3.73587H3.76797H3.80008H3.83218H3.86429H3.89639H3.9285H3.9606H3.9927H4.02481H4.05691H4.08902H4.12112H4.15322H4.18533H4.21743H4.24954H4.28164H4.31374H4.34585H4.37795H4.41006H4.44216H4.47426H4.50637H4.53847H4.57057H4.60268H4.63478H4.66689H4.69899H4.73109H4.7632H4.7953H4.82741H4.85951H4.89161H4.92372H4.95582H4.98792H5.02003H5.05213H5.08423H5.11634H5.14844H5.18055H5.21265H5.24475H5.27686H5.30896H5.34106H5.37317H5.40527H5.43737H5.46948H5.50158H5.53368H5.56579H5.59789H5.62999H5.6621H5.6942H5.7263H5.75841H5.79051H5.82261H5.85472H5.88682H5.91892H5.95103H5.98313H6.01523H6.04734H6.07944H6.11154H6.14365H6.17575H6.20785H6.23996H6.27206H6.30416H6.33627H6.36837H6.40047H6.43257H6.46468H6.49678H6.52888H6.56099H6.59309H6.62519H6.6573H6.6894H6.7215H6.7536H6.78571H6.81781H6.84991H6.88202H6.91412H6.94622H6.97833H7.01043H7.04253H7.07463H7.10674H7.13884H7.17094H7.20305H7.23515H7.26725H7.29935H7.33146H7.36356H7.39566H7.42777H7.45987H7.49197H7.52407H7.55618H7.58828H7.62038H7.65249H7.68459H7.71669H7.74879H7.7809H7.813H7.8451H7.8772H7.90931H7.94141H7.97351H8.00562H8.03772H8.06982H8.10192H8.13403H8.16613H8.19823H8.23033H8.26244H8.29454H8.32664H8.35874H8.39085H8.42295H8.45505H8.48716H8.51926H8.55136H8.58346H8.61557H8.64767H8.67977H8.71187H8.74398H8.77608H8.80818H8.84028H8.87239H8.90449H8.93659H8.96869H9.0008H9.0329H9.065H9.0971H9.12921H9.16131H9.19341H9.22551H9.25762H9.28972H9.32182H9.35392H9.38603H9.41813H9.45023H9.48234H9.51444H9.54654H9.57864H9.61074H9.64285H9.67495H9.70705H9.73915H9.77126H9.80336H9.83546H9.86757H9.89967H9.93177H9.96387H9.99597H10.0281H10.0602H10.0923H10.1244H10.1565H10.1886H10.2207H10.2528H10.2849H10.317H10.3491H10.3812H10.4133H10.4454H10.4775H10.5096H10.5417H10.5738H10.6059H10.638H10.6701H10.7022H10.7343H10.7664H10.7985H10.8306H10.8627H10.8948H10.9269H10.9591H10.9912H11.0233H11.0554H11.0875H11.1196H11.1517H11.1838H11.2159H11.248H11.2801H11.3122H11.3443H11.3764H11.4085H11.4406H11.4727H11.5048H11.5369H11.569H11.6011H11.6332H11.6653H11.6974H11.7295H11.7616H11.7937H11.8258H11.8579H11.89H11.9221H11.9542H11.9863H12.0184H12.0505H12.0826H12.1147H12.1468H12.1789H12.2111H12.2432H12.2753H12.3074H12.3395H12.3716H12.4037H12.4358H12.4679H12.5H12.5321H12.5642H12.5963H12.6284H12.6605H12.6926H12.7247H12.7568H12.7889H12.821H12.8531H12.8852H12.9173H12.9494H12.9815H13.0136H13.0457H13.0778H13.1099H13.142H13.1741H13.2062H13.2383H13.2704H13.3025H13.3347H13.3668H13.3989H13.431H13.4631H13.4952H13.5273H13.5594H13.5915H13.6236H13.6557H13.6878H13.7199H13.752H13.7841H13.8162H13.8483H13.8804H13.9125H13.9446H13.9767H14.0088H14.0409H14.073H14.1051H14.1372H14.1693H14.2014H14.2335H14.2656H14.2977H14.3298H14.3619H14.3941H14.4262H14.4583H14.4904H14.5225H14.5546H14.5867H14.6188H14.6509H14.683H14.7151H14.7472H14.7793H14.8114H14.8435H14.8756H14.9077H14.9398H14.9719H15.004H15.0361H15.0682H15.1003H15.1324H15.1645H15.1966H15.2287H15.2608H15.2929H15.3251H15.3572H15.3893H15.4214H15.4535H15.4856H15.5177H15.5498H15.5819H15.614H15.6461H15.6782H15.7103H15.7424H15.7745H15.8066H15.8387H15.8708H15.9029H15.935H15.9671H15.9992H16.0313H16.0634H16.0955H16.1277H16.1598H16.1919H16.224H16.2561H16.2882H16.3203H16.3524H16.3845H16.4166H16.4487H16.4808H16.5129H16.545H16.5771H16.6092H16.6413H16.6734H16.7055H16.7376H16.7697H16.8018H16.8339H16.866H16.8982H16.9303H16.9624H16.9945H17.0266H17.0587H17.0908H17.1229H17.155H17.1871H17.2192H17.2513H17.2834H17.3155H17.3476H17.3797H17.4118H17.4439H17.476H17.5081H17.5402H17.5724H17.6045H17.6366H17.6687H17.7008H17.7329H17.765H17.7971H17.8292H17.8613H17.8934H17.9255H17.9576H17.9897H18.0218H18.0539H18.086H18.1181H18.1502H18.1823H18.2145H18.2466H18.2787H18.3108H18.3429H18.6863M1.53579 3.57042C1.62333 3.5575 1.71346 3.55967 1.80356 3.56184C1.83772 3.56267 1.87189 3.56349 1.9059 3.56349H18.3429H18.7852M18.6863 3.43849C18.679 3.4703 18.6715 3.5021 18.6638 3.53384L18.7852 3.56349M18.6863 3.43849C18.6963 3.39488 18.7061 3.35126 18.7157 3.30778C18.7532 3.13959 18.7902 2.97344 18.843 2.81775L18.843 2.81761C19.3798 1.24182 20.4712 0.279204 22.1032 -0.0512635L22.1035 -0.0513229C22.1278 -0.0561772 22.1539 -0.0648367 22.1856 -0.0769258C22.1948 -0.0804441 22.2055 -0.0846935 22.217 -0.089253C22.2399 -0.0983429 22.266 -0.108665 22.2893 -0.116884L22.3095 -0.12401H22.3309H22.3326H22.3344H22.3361H22.3378H22.3396H22.3413H22.343H22.3448H22.3465H22.3482H22.35H22.3517H22.3534H22.3552H22.3569H22.3586H22.3604H22.3621H22.3638H22.3656H22.3673H22.369H22.3708H22.3725H22.3742H22.376H22.3777H22.3794H22.3812H22.3829H22.3847H22.3864H22.3881H22.3899H22.3916H22.3933H22.3951H22.3968H22.3985H22.4003H22.402H22.4037H22.4055H22.4072H22.4089H22.4107H22.4124H22.4141H22.4159H22.4176H22.4193H22.4211H22.4228H22.4245H22.4263H22.428H22.4298H22.4315H22.4332H22.435H22.4367H22.4384H22.4402H22.4419H22.4436H22.4454H22.4471H22.4488H22.4506H22.4523H22.454H22.4558H22.4575H22.4592H22.461H22.4627H22.4645H22.4662H22.4679H22.4697H22.4714H22.4731H22.4749H22.4766H22.4783H22.4801H22.4818H22.4835H22.4853H22.487H22.4887H22.4905H22.4922H22.494H22.4957H22.4974H22.4992H22.5009H22.5026H22.5044H22.5061H22.5078H22.5096H22.5113H22.513H22.5148H22.5165H22.5182H22.52H22.5217H22.5235H22.5252H22.5269H22.5287H22.5304H22.5321H22.5339H22.5356H22.5373H22.5391H22.5408H22.5425H22.5443H22.546H22.5478H22.5495H22.5512H22.553H22.5547H22.5564H22.5582H22.5599H22.5616H22.5634H22.5651H22.5669H22.5686H22.5703H22.5721H22.5738H22.5755H22.5773H22.579H22.5807H22.5825H22.5842H22.5859H22.5877H22.5894H22.5912H22.5929H22.5946H22.5964H22.5981H22.5998H22.6016H22.6033H22.605H22.6068H22.6085H22.6103H22.612H22.6137H22.6155H22.6172H22.6189H22.6207H22.6224H22.6241H22.6259H22.6276H22.6294H22.6311H22.6328H22.6346H22.6363H22.638H22.6398H22.6415H22.6432H22.645H22.6467H22.6485H22.6502H22.6519H22.6537H22.6554H22.6571H22.6589H22.6606H22.6623H22.6641H22.6658H22.6676H22.6693H22.671H22.6728H22.6745H22.6762H22.678H22.6797H22.6814H22.6832H22.6849H22.6867H22.6884H22.6901H22.6919H22.6936H22.6953H22.6971H22.6988H22.7005H22.7023H22.704H22.7058H22.7075H22.7092H22.711H22.7127H22.7144H22.7162H22.7179H22.7196H22.7214H22.7231H22.7249H22.7266H22.7283H22.7301H22.7318H22.7335H22.7353H22.737H22.7388H22.7405H22.7422H22.744H22.7457H22.7474H22.7492H22.7509H22.7526H22.7544H22.7561H22.7579H22.7596H22.7613H22.7631H22.7648H22.7665H22.7683H22.77H22.7717H22.7735H22.7752H22.777H22.7787H22.7804H22.7822H22.7839H22.7856H22.7874H22.7891H22.7908H22.7926H22.7943H22.7961H22.7978H22.7995H22.8013H22.803H22.8047H22.8065H22.8082H22.8099H22.8117H22.8134H22.8152H22.8169H22.8186H22.8204H22.8221H22.8238H22.8256H22.8273H22.8291H22.8308H22.8325H22.8343H22.836H22.8377H22.8395H22.8412H22.8429H22.8447H22.8464H22.8482H22.8499H22.8516H22.8534H22.8551H22.8568H22.8586H22.8603H22.862H22.8638H22.8655H22.8673H22.869H22.8707H22.8725H22.8742H22.8759H22.8777H22.8794H22.8811H22.8829H22.8846H22.8864H22.8881H22.8898H22.8916H22.8933H22.895H22.8968H22.8985H22.9002H22.902H22.9037H22.9055H22.9072H22.9089H22.9107H22.9124H22.9141H22.9159H22.9176H22.9193H22.9211H22.9228H22.9246H22.9263H22.928H22.9298H22.9315H22.9332H22.935H22.9367H22.9384H22.9402H22.9419H22.9437H22.9454H22.9471H22.9489H22.9506H22.9523H22.9541H22.9558H22.9575H22.9593H22.961H22.9628H22.9645H22.9662H22.968H22.9697H22.9714H22.9732H22.9749H22.9766H22.9784H22.9801H22.9818H22.9836H22.9853H22.9871H22.9888H22.9905H22.9923H22.994H22.9957H22.9975H22.9992H23.0009H23.0027H23.0044H23.0062H23.0079H23.0096H23.0114H23.0131H23.0148H23.0166H23.0183H23.02H23.0218H23.0235H23.0252H23.027H23.0287H23.0305H23.0322H23.0339H23.0357H23.0374H23.0391H23.0409H23.0426H23.0443H23.0461H23.0478H23.0495H23.0513H23.053H23.0547H23.0565H23.0582H23.06H23.0617H23.0634H23.0652H23.0669H23.0686H23.0704H23.0721H23.0738H23.0756H23.0773H23.079H23.0808H23.0825H23.0842H23.086H23.0877H23.0895H23.0912H23.0929H23.0947H23.0964H23.0981H23.0999H23.1016H23.1033H23.1051H23.1068H23.1085H23.1103H23.112H23.1137H23.1155H23.1172H23.1189H23.1207H23.1224H23.1242H23.1259H23.1276H23.1294H23.1311H23.1328H23.1346H23.1363H23.138H23.1398H23.1415H23.1432H23.145H23.1467H23.1484H23.1502H23.1519H23.1536H23.1554H23.1571H23.1588H23.1606H23.1623H23.1641H23.1658H23.1675H23.1678M18.6863 3.43849H18.7852V3.56349M18.7852 3.56349L23.1678 -0.12401" fill="white" stroke="white" stroke-width="0.25"/>
<path d="M27.5731 4.862C27.668 4.88027 27.7719 4.87761 27.8576 4.8754C27.8833 4.87474 27.9074 4.87412 27.9291 4.87412C28.641 4.87412 29.3529 4.87395 30.0648 4.87377C32.734 4.87312 35.4026 4.87246 38.0719 4.88105L38.072 4.88105C38.4547 4.8821 38.7908 4.79687 39.0337 4.44969L39.0563 4.41742V4.37803V3.93272V3.89369L39.0341 3.8616C38.7919 3.51153 38.454 3.42865 38.0729 3.4297L38.0729 3.4297C35.4036 3.43829 32.735 3.43763 30.0658 3.43697C29.3539 3.4368 28.642 3.43662 27.9301 3.43662C27.9078 3.43662 27.8831 3.43598 27.8568 3.43529C27.7715 3.43306 27.6688 3.43038 27.575 3.44758L27.575 3.44758L27.5747 3.44765C27.396 3.48094 27.2405 3.55484 27.1295 3.67772C27.0174 3.80179 26.961 3.96436 26.9609 4.1542M27.5731 4.862C27.573 4.86199 27.573 4.86198 27.5729 4.86197L27.5966 4.73923M27.5731 4.862C27.5731 4.86201 27.5732 4.86202 27.5732 4.86203L27.5966 4.73923M27.5731 4.862C27.3951 4.82815 27.2398 4.75399 27.129 4.63112C27.0169 4.50694 26.9604 4.3443 26.9609 4.1542M27.5966 4.73923C27.6769 4.7547 27.7605 4.75262 27.8437 4.75055C27.8723 4.74983 27.9008 4.74912 27.9291 4.74912C28.641 4.74912 29.3528 4.74895 30.0647 4.74877C32.7339 4.74812 35.4028 4.74746 38.0723 4.75605L38.9313 3.93272C38.7225 3.63089 38.4345 3.55371 38.0733 3.5547C35.4038 3.56329 32.7349 3.56263 30.0657 3.56197C29.3538 3.5618 28.642 3.56162 27.9301 3.56162C27.9011 3.56162 27.8719 3.56088 27.8427 3.56013C27.7601 3.55803 27.6772 3.55591 27.5976 3.57053C27.2789 3.62991 27.0859 3.82584 27.0859 4.15438C27.085 4.48293 27.2789 4.67886 27.5966 4.73923ZM26.9609 4.1542C26.9609 4.15413 26.9609 4.15407 26.9609 4.15401L27.0859 4.15438H26.9609C26.9609 4.15432 26.9609 4.15426 26.9609 4.1542Z" fill="white" stroke="white" stroke-width="0.25"/>
<path d="M9.37492 17.9763C9.00252 16.7517 8.37249 15.7966 7.56389 15.1816C6.73382 14.5502 5.72214 14.2826 4.62744 14.4448C2.38987 14.7764 0.857862 16.5455 0.875145 18.784L9.37492 17.9763ZM9.37492 17.9763H9.37587H9.38086H9.38586H9.39086H9.39585H9.40085H9.40585H9.41084H9.41584H9.42084H9.42584H9.43084H9.43583H9.44083H9.44583H9.45083H9.45583H9.46083H9.46583H9.47083H9.47583H9.48083H9.48583H9.49083H9.49583H9.50083H9.50583H9.51083H9.51583H9.52084H9.52584H9.53084H9.53584H9.54084H9.54585H9.55085H9.55585H9.56086H9.56586H9.57086H9.57587H9.58087H9.58588H9.59088H9.59588H9.60089H9.60589H9.6109H9.6159H9.62091H9.62591H9.63092H9.63593H9.64093H9.64594H9.65094H9.65595H9.66096H9.66597H9.67097H9.67598H9.68099H9.68599H9.691H9.69601H9.70102H9.70603H9.71103H9.71604H9.72105H9.72606H9.73107H9.73608H9.74109H9.7461H9.75111H9.75612H9.76113H9.76614H9.77115H9.77616H9.78117H9.78618H9.79119H9.79621H9.80122H9.80623H9.81124H9.81625H9.82127H9.82628H9.83129H9.8363H9.84132H9.84633H9.85134H9.85636H9.86137H9.86638H9.8714H9.87641H9.88142H9.88644H9.89145H9.89647H9.90148H9.9065H9.91151H9.91653H9.92154H9.92656H9.93158H9.93659H9.94161H9.94662H9.95164H9.95666H9.96167H9.96669H9.97171H9.97672H9.98174H9.98676H9.99178H9.9968H10.0018H10.0068H10.0118H10.0169H10.0219H10.0269H10.0319H10.0369H10.042H10.047H10.052H10.057H10.062H10.0671H10.0721H10.0771H10.0821H10.0871H10.0922H10.0972H10.1022H10.1072H10.1122H10.1173H10.1223H10.1273H10.1323H10.1374H10.1424H10.1474H10.1524H10.1574H10.1625H10.1675H10.1725H10.1775H10.1826H10.1876H10.1926H10.1976H10.2027H10.2077H10.2127H10.2177H10.2228H10.2278H10.2328H10.2378H10.2428H10.2479H10.2529H10.2579H10.263H10.268H10.273H10.278H10.2831H10.2881H10.2931H10.2981H10.3032H10.3082H10.3132H10.3182H10.3233H10.3283H10.3333H10.3383H10.3434H10.3484H10.3534H10.3585H10.3635H10.3685H10.3735H10.3786H10.3836H10.3886H10.3937H10.3987H10.4037H10.4087H10.4138H10.4188H10.4238H10.4289H10.4339H10.4389H10.444H10.449H10.454H10.459H10.4641H10.4691H10.4741H10.4792H10.4842H10.4892H10.4943H10.4993H10.5043H10.5094H10.5144H10.5194H10.5245H10.5295H10.5345H10.5395H10.5446H10.5496H10.5546H10.5597H10.5647H10.5697H10.5748H10.5798H10.5848H10.5899H10.5949H10.5999H10.605H10.61H10.615H10.6201H10.6251H10.6301H10.6352H10.6402H10.6453H10.6503H10.6553H10.6604H10.6654H10.6704H10.6755H10.6805H10.6855H10.6906H10.6956H10.7006H10.7057H10.7107H10.7157H10.7208H10.7258H10.7309H10.7359H10.7409H10.746H10.751H10.756H10.7611H10.7661H10.7712H10.7762H10.7812H10.7863H10.7913H10.7963H10.8014H10.8064H10.8115H10.8165H10.8215H10.8266H10.8316H10.8366H10.8417H10.8467H10.8518H10.8568H10.8618H10.8669H10.8719H10.877H10.882H10.887H10.8921H10.8971H10.9022H10.9072H10.9122H10.9173H10.9223H10.9274H10.9324H10.9374H10.9425H10.9475H10.9526H10.9576H10.9626H10.9677H10.9727H10.9778H10.9828H10.9878H10.9929H10.9979H11.003H11.008H11.0131H11.0181H11.0231H11.0282H11.0332H11.0383H11.0433H11.0483H11.0534H11.0584H11.0635H11.0685H11.0736H11.0786H11.0836H11.0887H11.0937H11.0988H11.1038H11.1089H11.1139H11.1189H11.124H11.129H11.1341H11.1391H11.1442H11.1492H11.1542H11.1593H11.1643H11.1694H11.1744H11.1795H11.1845H11.1896H11.1946H11.1996H11.2047H11.2097H11.2148H11.2198H11.2249H11.2299H11.235H11.24H11.245H11.2501H11.2551H11.2602H11.2652H11.2703H11.2753H11.2804H11.2854H11.2905H11.2955H11.3005H11.3056H11.3106H11.3157H11.3207H11.3258H11.3308H11.3359H11.3409H11.346H11.351H11.3561H11.3611H11.3661H11.3712H11.3762H11.3813H11.3863H11.3914H11.3964H11.4015H11.4065H11.4116H11.4166H11.4217H11.4267H11.4318H11.4368H11.4418H11.4469H11.4519H11.457H11.462H11.4671H11.4721H11.4772H11.4822H11.4873H11.4923H11.4974H11.5024H11.5075H11.5125H11.5176H11.5226H11.5277H11.5327H11.5378H11.5428H11.5479H11.5529H11.558H11.563H11.568H11.5731H11.5781H11.5832H11.5882H11.5933H11.5983H11.6034H11.6084H11.6135H11.6185H11.6236H11.6286H11.6337H11.6387H11.6438H11.6488H11.6539H11.6589H11.664H11.669H11.6741H11.6791H11.6842H11.6892H11.6943H11.6993H11.7044H11.7094H11.7145H11.7195H11.7246H11.7296H11.7347H11.7397H11.7448H11.7498H11.7549H11.7599H11.765H11.77H11.7751H11.7801H11.7852H11.7902H11.7953H11.8003H11.8054H11.8104H11.8155H11.8205H11.8256H11.8306H11.8357H11.8407H11.8458H11.8508H11.8559C11.8891 17.9763 11.9237 17.9759 11.959 17.9754C12.0478 17.9744 12.1416 17.9733 12.2326 17.9784C12.4459 17.9891 12.6324 18.0632 12.7663 18.1918C12.9011 18.3213 12.9751 18.499 12.9734 18.6998M9.37492 17.9763L0.875145 18.7841C0.890495 20.9119 2.51172 22.6881 4.69312 22.9516L4.69317 22.9516C6.40338 23.1576 8.7412 22.2115 9.37094 19.4148H9.37159H9.37235H9.3731H9.37386H9.37462H9.37537H9.37613H9.37688H9.37764H9.3784H9.37915H9.37991H9.38067H9.38142H9.38218H9.38294H9.3837H9.38445H9.38521H9.38597H9.38673H9.38749H9.38824H9.389H9.38976H9.39052H9.39128H9.39204H9.39279H9.39355H9.39431H9.39507H9.39583H9.39659H9.39735H9.39811H9.39887H9.39963H9.40039H9.40115H9.40191H9.40267H9.40343H9.40419H9.40495H9.40571H9.40647H9.40723H9.40799H9.40875H9.40952H9.41028H9.41104H9.4118H9.41256H9.41332H9.41409H9.41485H9.41561H9.41637H9.41713H9.4179H9.41866H9.41942H9.42018H9.42095H9.42171H9.42247H9.42324H9.424H9.42476H9.42553H9.42629H9.42705H9.42782H9.42858H9.42935H9.43011H9.43087H9.43164H9.4324H9.43317H9.43393H9.4347H9.43546H9.43623H9.43699H9.43776H9.43852H9.43929H9.44005H9.44082H9.44158H9.44235H9.44311H9.44388H9.44465H9.44541H9.44618H9.44694H9.44771H9.44848H9.44924H9.45001H9.45078H9.45154H9.45231H9.45308H9.45385H9.45461H9.45538H9.45615H9.45691H9.45768H9.45845H9.45922H9.45999H9.46075H9.46152H9.46229H9.46306H9.46383H9.46459H9.46536H9.46613H9.4669H9.46767H9.46844H9.46921H9.46998H9.47075H9.47151H9.47228H9.47305H9.47382H9.47459H9.47536H9.47613H9.4769H9.47767H9.47844H9.47921H9.47998H9.48075H9.48152H9.48229H9.48306H9.48383H9.4846H9.48538H9.48615H9.48692H9.48769H9.48846H9.48923H9.49H9.49077H9.49154H9.49232H9.49309H9.49386H9.49463H9.4954H9.49617H9.49695H9.49772H9.49849H9.49926H9.50004H9.50081H9.50158H9.50235H9.50313H9.5039H9.50467H9.50544H9.50622H9.50699H9.50776H9.50854H9.50931H9.51008H9.51085H9.51163H9.5124H9.51318H9.51395H9.51472H9.5155H9.51627H9.51704H9.51782H9.51859H9.51937H9.52014H9.52092H9.52169H9.52246H9.52324H9.52401H9.52479H9.52556H9.52634H9.52711H9.52789H9.52866H9.52944H9.53021H9.53099H9.53176H9.53254H9.53331H9.53409H9.53486H9.53564H9.53642H9.53719H9.53797H9.53874H9.53952H9.54029H9.54107H9.54185H9.54262H9.5434H9.54418H9.54495H9.54573H9.5465H9.54728H9.54806H9.54883H9.54961H9.55039H9.55116H9.55194H9.55272H9.5535H9.55427H9.55505H9.55583H9.5566H9.55738H9.55816H9.55894H9.55971H9.56049H9.56127H9.56205H9.56283H9.5636H9.56438H9.56516H9.56594H9.56671H9.56749H9.56827H9.56905H9.56983H9.57061H9.57138H9.57216H9.57294H9.57372H9.5745H9.57528H9.57605H9.57683H9.57761H9.57839H9.57917H9.57995H9.58073H9.58151H9.58229H9.58307H9.58384H9.58462H9.5854H9.58618H9.58696H9.58774H9.58852H9.5893H9.59008H9.59086H9.59164H9.59242H9.5932H9.59398H9.59476H9.59554H9.59632H9.5971H9.59788H9.59866H9.59944H9.60022H9.601H9.60178H9.60256H9.60334H9.60412H9.6049H9.60568H9.60646H9.60724H9.60802H9.6088H9.60958H9.61036H9.61114H9.61192H9.61271H9.61349H9.61427H9.61505H9.61583H9.61661H9.61739H9.61817H9.61895H9.61973H9.62052H9.6213H9.62208H9.62286H9.62364H9.62442H9.6252H9.62599H9.62677H9.62755H9.62833H9.62911H9.62989H9.63067H9.63146H9.63224H9.63302H9.6338H9.63458H9.63536H9.63615H9.63693H9.63771H9.63849H9.63927H9.64006H9.64084H9.64162H9.6424H9.64318H9.64397H9.64475H9.64553H9.64631H9.6471H9.64788H9.64866H9.64944H9.65023H9.65101H9.65179H9.65257H9.65335H9.65414H9.65492H9.6557H9.65649H9.65727H9.65805H9.65883H9.65962H9.6604H9.66118H9.66196H9.66211C9.93254 19.4144 10.2033 19.4148 10.4742 19.4152C11.0554 19.416 11.6374 19.4169 12.2184 19.4108C12.4351 19.4085 12.624 19.3362 12.76 19.2075C12.8964 19.0785 12.9722 18.8996 12.9734 18.6998M12.9734 18.6998C12.9734 18.6998 12.9734 18.6998 12.9734 18.6997L12.8484 18.699L12.9734 18.7001C12.9734 18.7 12.9734 18.6999 12.9734 18.6998ZM7.9853 18.7056L7.98512 18.7795C7.94117 20.3146 6.67824 21.5424 5.12907 21.5378C3.58227 21.533 2.3107 20.2543 2.31165 18.703C2.3126 17.1129 3.59594 15.8399 5.18709 15.8523L5.18714 15.8523C6.7293 15.8636 7.98909 17.1454 7.9853 18.7056Z" fill="white" stroke="white" stroke-width="0.25"/>
</g>
<defs>
<clipPath id="clip0_2544_686">
<rect width="39" height="38" fill="white"/>
</clipPath>
</defs>
</svg>
