<svg width="45" height="46" viewBox="0 0 45 46" fill="none" xmlns="http://www.w3.org/2000/svg">
<path d="M3.63281 23.3022C3.74185 17.8285 5.58978 13.3934 9.27874 9.74122C9.91346 9.11338 10.7686 9.08698 11.3401 9.66432C11.9094 10.2405 11.8808 11.0853 11.2357 11.7234C8.9895 13.9444 7.45492 16.5728 6.82938 19.6741C5.7344 25.1077 7.11288 29.8687 10.8719 33.9398C11.0073 34.0868 11.1565 34.2222 11.2931 34.3691C11.8601 34.9774 11.8566 35.7889 11.2885 36.3708C10.7582 36.9137 9.91346 36.9114 9.3258 36.3421C7.00843 34.0959 5.36137 31.4331 4.44314 28.3364C4.19178 27.4893 3.99551 26.6182 3.86122 25.7458C3.72119 24.8437 3.68791 23.9255 3.63281 23.3022Z" fill="white"/>
<path d="M42.1427 23.0148C42.0658 28.1947 40.2294 32.6343 36.5278 36.2819C35.8919 36.9086 35.0712 36.9373 34.5042 36.3669C33.9407 35.7987 33.9659 34.9608 34.5972 34.341C37.0385 31.9387 38.6167 29.0704 39.1619 25.6833C39.9964 20.4954 38.5674 15.9766 35.0081 12.1235C34.8337 11.9341 34.6362 11.7642 34.4778 11.5622C34.0141 10.9746 34.0796 10.1987 34.6202 9.70396C35.1573 9.21272 35.955 9.20698 36.4853 9.72462C39.5659 12.7249 41.4116 16.353 41.99 20.6193C42.0578 21.1152 42.1025 21.6145 42.1381 22.1137C42.1599 22.4133 42.1416 22.7152 42.1416 23.0159L42.1427 23.0148Z" fill="white"/>
<path d="M33.913 23.008C33.8361 26.581 32.5735 29.649 30.0289 32.1707C29.4757 32.7193 28.7698 32.794 28.1982 32.3922C27.6587 32.0123 27.4544 31.3156 27.7368 30.7153C27.832 30.5145 27.9847 30.3308 28.1431 30.1701C32.1626 26.0806 32.1661 19.9698 28.1488 15.8745C27.6197 15.3351 27.4785 14.7727 27.731 14.2068C27.9583 13.6972 28.4863 13.3196 29.0315 13.4126C29.3873 13.4734 29.7844 13.6467 30.0392 13.8958C32.585 16.3945 33.8315 19.4568 33.913 23.0091V23.008Z" fill="white"/>
<path d="M11.9074 22.6691C11.9728 19.5012 13.2021 16.4665 15.6893 13.9575C16.308 13.3331 17.1344 13.2964 17.7117 13.8542C18.273 14.3982 18.25 15.2625 17.6406 15.8823C15.6583 17.8989 14.638 20.3196 14.6712 23.1466C14.7034 25.8588 15.7088 28.1888 17.6153 30.1193C18.0239 30.5325 18.2879 30.9802 18.1513 31.5736C17.9045 32.6433 16.6374 32.9899 15.8202 32.206C14.4038 30.847 13.3616 29.2379 12.6856 27.3945C12.1679 25.985 11.9154 24.5262 11.9062 22.6703L11.9074 22.6691Z" fill="white"/>
<path d="M25.662 23.0212C25.6597 24.542 24.4247 25.7759 22.9038 25.7736C21.3899 25.7725 20.1561 24.526 20.1641 23.004C20.1721 21.5039 21.4014 20.278 22.9004 20.2734C24.4224 20.27 25.6643 21.505 25.6631 23.0201L25.662 23.0212Z" fill="white"/>
</svg>
