<svg width="38" height="38" viewBox="0 0 38 38" fill="none" xmlns="http://www.w3.org/2000/svg">
<g clip-path="url(#clip0_2544_695)">
<path d="M20.3697 37.3811C19.6842 37.2086 19.1524 36.7612 18.5495 36.1479L18.5492 36.1476C17.7024 35.2874 16.8471 34.4364 15.9942 33.588L15.9399 33.534C15.1044 32.703 14.2713 31.8744 13.4465 31.038C12.2738 29.8487 12.64 27.9701 14.1035 27.3256C14.9668 26.9454 15.9269 27.1168 16.6801 27.8604L16.6804 27.8607C17.7144 28.8801 18.7376 29.9107 19.7635 30.9441C19.8422 31.0234 19.9209 31.1027 19.9997 31.182L20.3953 30.7891L20.6846 31.0939L21.1131 30.8039L21.2022 30.7435C21.1807 30.7118 21.1675 30.6898 21.1491 30.6594C21.1476 30.657 21.1461 30.6544 21.1445 30.6519C22.4345 29.3618 23.7245 28.0716 25.0144 26.7813C27.6558 24.1392 30.2973 21.4971 32.9396 18.8567M20.3697 37.3811L13.0015 31.4769C11.531 29.9856 11.9753 27.5799 13.8516 26.7536C14.9639 26.2637 16.1949 26.5032 17.1192 27.4156C18.1557 28.4375 19.1812 29.4704 20.2067 30.5034C20.2378 30.5347 20.2689 30.566 20.3 30.5974C20.2855 30.6111 20.2703 30.6255 20.2543 30.6406L20.3952 30.7891L19.9989 31.1812C19.9965 31.1788 20.0059 31.1876 20.0371 31.2374C20.0477 31.2542 20.0567 31.2691 20.068 31.2877C20.0745 31.2983 20.0817 31.3102 20.0904 31.3243C20.1115 31.3587 20.1374 31.4003 20.1671 31.4442L20.5803 32.0547L21.115 31.5471C21.1692 31.4957 21.2181 31.4497 21.2628 31.4076C21.3532 31.3226 21.4269 31.2533 21.4947 31.1855C22.8154 29.8648 24.136 28.5439 25.4565 27.223C28.0979 24.581 30.7392 21.9391 33.3814 19.2988M20.3697 37.3811H21.1165M20.3697 37.3811H21.1165M32.9396 18.8567L33.3814 19.2988C33.3814 19.2988 33.3814 19.2988 33.3814 19.2988M32.9396 18.8567L33.3814 19.2988M32.9396 18.8567C34.1182 17.6791 35.7916 17.5693 36.9771 18.5757C37.5382 19.0517 37.8292 19.6771 38.0004 20.3727M33.3814 19.2988C34.3525 18.3286 35.6588 18.2763 36.5727 19.0521L36.5728 19.0523C36.9824 19.3997 37.2217 19.8637 37.3754 20.4508M37.3754 20.4508V20.3727H38.0004M37.3754 20.4508V21.1847M37.3754 20.4508C37.3815 20.4743 37.3876 20.4981 37.3935 20.5221L38.0004 20.3727M38.0004 20.3727V21.2614M37.3754 21.1847C37.3812 21.1628 37.3867 21.1407 37.3919 21.1185L38.0004 21.2614M37.3754 21.1847C37.1894 21.8852 36.7066 22.4045 36.0622 23.046M37.3754 21.1847V21.2614H38.0004M38.0004 21.2614C37.7817 22.1926 37.1553 22.8398 36.5031 23.4889M36.0622 23.046C36.0622 23.046 36.0623 23.0459 36.0623 23.0459L36.5031 23.4889M36.0622 23.046C31.6709 27.4155 27.2875 31.794 22.9129 36.1814L22.9129 36.1814C22.3068 36.7894 21.7911 37.2254 21.1165 37.3811M36.0622 23.046L36.5031 23.4889M36.5031 23.4889L21.1165 37.3811M21.1165 37.3811C21.0972 37.3856 21.0779 37.3898 21.0584 37.3938L21.1834 38.0061V37.3811H21.1165Z" fill="white" stroke="#1C43B9" stroke-width="1.25"/>
<path d="M27.2926 20.908C28.0159 20.1828 28.74 19.4583 29.464 18.734C30.0467 18.1511 30.6292 17.5682 31.2112 16.9852C31.944 16.2502 32.8136 15.7273 33.8404 15.4959C33.8405 15.4959 33.8405 15.4959 33.8406 15.4959L33.9093 15.8007L27.2926 20.908ZM27.2926 20.908C28.0123 18.5227 27.9167 16.1382 26.8549 13.7585C25.9013 11.6213 24.3426 10.0258 22.2544 8.97922L22.2544 8.97918C18.0176 6.85722 12.9438 8.06192 9.98918 11.8051C7.16214 15.3865 7.00238 21.6629 11.3635 25.3746C10.561 26.1086 9.96934 27.0089 9.75069 28.1232C9.63839 28.6925 9.63606 29.2854 9.63389 29.836C9.63365 29.8972 9.63341 29.9579 9.63302 30.018L9.63302 30.0186C9.63278 30.0699 9.63156 30.1028 9.62878 30.1275C9.62751 30.1388 9.62615 30.146 9.62517 30.1502C9.61966 30.1547 9.6074 30.1635 9.58381 30.1756C9.17256 30.3868 8.75903 30.6103 8.34883 30.8321C8.06098 30.9877 7.77477 31.1424 7.49213 31.2913L7.49202 31.2913C7.24505 31.4216 7.07327 31.4521 6.93637 31.4322C6.79989 31.4123 6.64564 31.3348 6.44937 31.1407L6.44923 31.1406C5.8089 30.5082 5.17258 29.8718 4.54027 29.2306L4.53996 29.2303C4.3455 29.0337 4.27038 28.8823 4.25206 28.7488C4.23353 28.6137 4.26543 28.4417 4.39984 28.1884C4.39984 28.1884 4.39985 28.1883 4.39985 28.1883L4.46032 28.0744C4.85098 27.3382 5.23989 26.6052 5.64202 25.8797L5.64206 25.8797C5.77668 25.6366 5.84444 25.3906 5.8446 25.1358C5.84476 24.8837 5.77875 24.6414 5.67281 24.4043L5.67258 24.4038C5.28748 23.5462 4.92942 22.6738 4.5885 21.7949C4.403 21.3144 4.09828 20.9516 3.55092 20.7946C3.02417 20.6435 2.50232 20.4848 1.97782 20.3254C1.69009 20.2379 1.40156 20.1502 1.11098 20.0633L27.2926 20.908ZM3.53717 14.8938C2.75212 15.1194 1.96944 15.3572 1.18428 15.5958C1.13193 15.6117 1.07956 15.6276 1.02718 15.6435L1.02699 15.6436C0.759683 15.7246 0.612943 15.8273 0.527016 15.9436C0.440799 16.0603 0.384825 16.2326 0.383954 16.5152L0.0714552 16.5142L0.383954 16.5149C0.381977 17.3782 0.382965 18.2425 0.383955 19.1065L3.53717 14.8938ZM3.53717 14.8938C4.09946 14.7322 4.40635 14.3584 4.59493 13.8636L4.59498 13.8634C4.92536 12.9952 5.28109 12.1354 5.66505 11.2909L5.66522 11.2905C5.77622 11.0455 5.84362 10.7969 5.84187 10.5386C5.84011 10.2779 5.76804 10.0275 5.62953 9.77991L5.6295 9.77985C5.27569 9.14781 4.9367 8.50755 4.59564 7.86339C4.53246 7.74407 4.46922 7.62462 4.4058 7.50506L4.4057 7.50489C4.26539 7.24079 4.23313 7.06706 4.25245 6.93153C4.27164 6.79688 4.34996 6.64252 4.55626 6.43489L4.55642 6.43473C5.18225 5.80396 5.81011 5.1761 6.44001 4.55015C6.64678 4.34522 6.80138 4.26685 6.93658 4.2476C7.07262 4.22823 7.24668 4.26047 7.50979 4.4005L7.50997 4.40059L7.57849 4.437C8.32882 4.83569 9.07715 5.23331 9.81774 5.64283L3.53717 14.8938ZM13.791 4.28693L13.9048 4.57798C13.9048 4.57798 13.9048 4.57798 13.9048 4.57798C13.0153 4.92572 12.1328 5.29211 11.2593 5.67812L11.2592 5.67817C10.7818 5.88892 10.3099 5.91563 9.81789 5.64292L16.5556 0.376873L16.5549 0.0643737M13.791 4.28693C14.2037 4.12562 14.4719 3.87328 14.5956 3.44479C14.782 2.79637 14.9776 2.15097 15.1732 1.50528C15.2278 1.3252 15.2824 1.14509 15.3368 0.964895C15.5357 0.305832 15.8612 0.0663528 16.5549 0.0643737M13.791 4.28693C12.8974 4.63625 12.0108 5.00437 11.133 5.39229L13.791 4.28693ZM16.5549 0.0643737C17.4317 0.0623945 18.3085 0.0614049 19.1843 0.0643737H16.5549ZM20.0317 1.0018C19.9503 0.739633 19.8492 0.597376 19.7366 0.51461C19.6236 0.431604 19.4573 0.377741 19.1833 0.376872L19.1832 0.376872C18.3084 0.373906 17.4324 0.374894 16.5558 0.376872L20.0317 1.0018ZM20.0317 1.0018C20.2936 1.84905 20.5513 2.69604 20.7969 3.5454C20.9551 4.09262 21.3179 4.39605 21.798 4.58142L21.7985 4.58159C22.6687 4.91607 23.5306 5.2627 24.372 5.64863C24.6233 5.76394 24.8775 5.83474 25.1414 5.83443C25.4081 5.83411 25.6641 5.76123 25.9175 5.61952L25.9177 5.6194C26.4748 5.3073 27.0376 5.00656 27.6036 4.70404C27.7773 4.61123 27.9513 4.51824 28.1255 4.42471L28.1255 4.4247C28.4255 4.26364 28.6082 4.22664 28.7485 4.24633C28.8877 4.26587 29.0495 4.35031 29.2862 4.58562C29.8987 5.19515 30.5106 5.80511 31.1184 6.41789C31.3318 6.63302 31.4137 6.79282 31.4339 6.93247C31.4542 7.07249 31.4209 7.25055 31.2772 7.5205L31.2772 7.52051C31.1945 7.67583 31.1123 7.83096 31.0302 7.98582C30.7137 8.58295 30.3992 9.17614 30.0696 9.76129L30.0695 9.76148C29.927 10.0146 29.8524 10.2706 29.8502 10.5372C29.848 10.8016 29.9171 11.0563 30.0317 11.3079M20.0317 1.0018L30.0317 11.3079M30.0317 11.3079C30.0317 11.3079 30.0316 11.3078 30.0316 11.3077L30.3161 11.1784L30.0317 11.3079ZM30.0317 11.3079C30.4156 12.1522 30.7703 13.012 31.1018 13.8805C31.1951 14.125 31.3207 14.3426 31.5003 14.5197C31.6816 14.6985 31.904 14.8221 32.17 14.8979L32.1703 14.898C32.7948 15.0755 33.4161 15.264 34.0386 15.4557L30.0317 11.3079ZM31.5531 7.66734C31.8707 7.07062 31.8133 6.67479 31.3403 6.19781L31.5531 7.66734ZM31.5531 7.66734C31.471 7.82159 31.3891 7.97601 31.3072 8.13044M31.5531 7.66734L31.3072 8.13044M31.3072 8.13044C30.9905 8.72798 30.6737 9.32571 30.3418 9.91469L31.3072 8.13044ZM0.529044 19.7409C0.44086 19.6245 0.38442 19.4452 0.383955 19.1066L1.11095 20.0633C0.779214 19.9641 0.618115 19.8584 0.529044 19.7409Z" fill="white" stroke="#1C43B9" stroke-width="0.625"/>
</g>
<defs>
<clipPath id="clip0_2544_695">
<rect width="38" height="38" fill="white"/>
</clipPath>
</defs>
</svg>
