<svg width="20" height="20" viewBox="0 0 20 20" fill="none" xmlns="http://www.w3.org/2000/svg">
<g clip-path="url(#clip0_4674_48)">
<path d="M10 20C15.5228 20 20 15.5228 20 10C20 4.47715 15.5228 0 10 0C4.47715 0 0 4.47715 0 10C0 15.5228 4.47715 20 10 20Z" fill="#F0F0F0"/>
<path d="M9.99992 0C6.03531 0 2.60969 2.30723 0.992188 5.65219H19.0076C17.3902 2.30723 13.9645 0 9.99992 0Z" fill="#FF9811"/>
<path d="M9.99992 20.0038C13.9645 20.0038 17.3902 17.6965 19.0077 14.3516H0.992188C2.60969 17.6965 6.03531 20.0038 9.99992 20.0038Z" fill="#6DA544"/>
<path d="M10.002 12.1759C11.2026 12.1759 12.1759 11.2026 12.1759 10.002C12.1759 8.80142 11.2026 7.82812 10.002 7.82812C8.80142 7.82812 7.82812 8.80142 7.82812 10.002C7.82812 11.2026 8.80142 12.1759 10.002 12.1759Z" fill="#F0F0F0"/>
</g>
<defs>
<clipPath id="clip0_4674_48">
<rect width="20" height="20" fill="white"/>
</clipPath>
</defs>
</svg>
