<svg width="20" height="20" viewBox="0 0 20 20" fill="none" xmlns="http://www.w3.org/2000/svg">
<g clip-path="url(#clip0_4752_83)">
<path d="M10 20C15.5228 20 20 15.5228 20 10C20 4.47715 15.5228 0 10 0C4.47715 0 0 4.47715 0 10C0 15.5228 4.47715 20 10 20Z" fill="#F0F0F0"/>
<path d="M9.99992 0C6.03531 0 2.60969 2.30723 0.992188 5.65219H19.0076C17.3902 2.30723 13.9645 0 9.99992 0Z" fill="#FF9811"/>
<path d="M9.99992 19.9959C13.9645 19.9959 17.3902 17.6887 19.0077 14.3438H0.992188C2.60969 17.6887 6.03531 19.9959 9.99992 19.9959Z" fill="#6DA544"/>
<path d="M10.0017 13.4799C11.9227 13.4799 13.4799 11.9227 13.4799 10.0017C13.4799 8.0807 11.9227 6.52344 10.0017 6.52344C8.0807 6.52344 6.52344 8.0807 6.52344 10.0017C6.52344 11.9227 8.0807 13.4799 10.0017 13.4799Z" fill="#0052B4"/>
<path d="M9.99422 12.1681C11.1948 12.1681 12.1681 11.1948 12.1681 9.99422C12.1681 8.7936 11.1948 7.82031 9.99422 7.82031C8.7936 7.82031 7.82031 8.7936 7.82031 9.99422C7.82031 11.1948 8.7936 12.1681 9.99422 12.1681Z" fill="#F0F0F0"/>
<path d="M10.0029 7.3125L10.6735 8.83352L12.326 8.65379L11.3441 9.99508L12.326 11.3364L10.6735 11.1566L10.0029 12.6777L9.33219 11.1566L7.67969 11.3363L8.66156 9.99508L7.67969 8.65379L9.33219 8.83352L10.0029 7.3125Z" fill="#0052B4"/>
</g>
<defs>
<clipPath id="clip0_4752_83">
<rect width="20" height="20" fill="white"/>
</clipPath>
</defs>
</svg>
