<svg width="20" height="21" viewBox="0 0 20 21" fill="none" xmlns="http://www.w3.org/2000/svg">
<g clip-path="url(#clip0_1_1509)">
<rect width="19.2" height="19.2" transform="translate(0.808838 0.857178)" fill="#2B2B2B"/>
<path d="M10.4104 2.45093C12.584 2.45093 12.8552 2.45893 13.708 2.49893C14.56 2.53893 15.14 2.67253 15.6504 2.87093C16.1784 3.07413 16.6232 3.34933 17.068 3.79333C17.4748 4.19324 17.7896 4.677 17.9904 5.21093C18.188 5.72053 18.3224 6.30133 18.3624 7.15333C18.4 8.00613 18.4104 8.27733 18.4104 10.4509C18.4104 12.6245 18.4024 12.8957 18.3624 13.7485C18.3224 14.6005 18.188 15.1805 17.9904 15.6909C17.7901 16.2252 17.4753 16.709 17.068 17.1085C16.668 17.5152 16.1842 17.8299 15.6504 18.0309C15.1408 18.2285 14.56 18.3629 13.708 18.4029C12.8552 18.4405 12.584 18.4509 10.4104 18.4509C8.2368 18.4509 7.9656 18.4429 7.1128 18.4029C6.2608 18.3629 5.6808 18.2285 5.1704 18.0309C4.63626 17.8305 4.15242 17.5157 3.7528 17.1085C3.34593 16.7087 3.03115 16.2249 2.8304 15.6909C2.632 15.1813 2.4984 14.6005 2.4584 13.7485C2.4208 12.8957 2.4104 12.6245 2.4104 10.4509C2.4104 8.27733 2.4184 8.00613 2.4584 7.15333C2.4984 6.30053 2.632 5.72133 2.8304 5.21093C3.03059 4.67667 3.34544 4.19279 3.7528 3.79333C4.15254 3.38631 4.63634 3.07151 5.1704 2.87093C5.6808 2.67253 6.26 2.53893 7.1128 2.49893C7.9656 2.46133 8.2368 2.45093 10.4104 2.45093ZM10.4104 6.45093C9.34953 6.45093 8.33212 6.87236 7.58197 7.6225C6.83183 8.37265 6.4104 9.39006 6.4104 10.4509C6.4104 11.5118 6.83183 12.5292 7.58197 13.2794C8.33212 14.0295 9.34953 14.4509 10.4104 14.4509C11.4713 14.4509 12.4887 14.0295 13.2388 13.2794C13.989 12.5292 14.4104 11.5118 14.4104 10.4509C14.4104 9.39006 13.989 8.37265 13.2388 7.6225C12.4887 6.87236 11.4713 6.45093 10.4104 6.45093ZM15.6104 6.25093C15.6104 5.98571 15.505 5.73136 15.3175 5.54382C15.13 5.35629 14.8756 5.25093 14.6104 5.25093C14.3452 5.25093 14.0908 5.35629 13.9033 5.54382C13.7158 5.73136 13.6104 5.98571 13.6104 6.25093C13.6104 6.51615 13.7158 6.7705 13.9033 6.95804C14.0908 7.14557 14.3452 7.25093 14.6104 7.25093C14.8756 7.25093 15.13 7.14557 15.3175 6.95804C15.505 6.7705 15.6104 6.51615 15.6104 6.25093ZM10.4104 8.05093C11.0469 8.05093 11.6574 8.30379 12.1075 8.75387C12.5575 9.20396 12.8104 9.81441 12.8104 10.4509C12.8104 11.0874 12.5575 11.6979 12.1075 12.148C11.6574 12.5981 11.0469 12.8509 10.4104 12.8509C9.77388 12.8509 9.16343 12.5981 8.71334 12.148C8.26326 11.6979 8.0104 11.0874 8.0104 10.4509C8.0104 9.81441 8.26326 9.20396 8.71334 8.75387C9.16343 8.30379 9.77388 8.05093 10.4104 8.05093Z" fill="white"/>
</g>
<defs>
<clipPath id="clip0_1_1509">
<rect width="19.2" height="19.2" fill="white" transform="translate(0.808838 0.857178)"/>
</clipPath>
</defs>
</svg>
