<svg width="20" height="21" viewBox="0 0 20 21" fill="none" xmlns="http://www.w3.org/2000/svg">
<rect width="19.2" height="19.2" transform="translate(0.726562 0.857178)" fill="#2B2B2B"/>
<path d="M4.35156 5.1859C4.35156 4.67853 4.75716 4.26733 5.2576 4.26733H15.783C16.2834 4.26733 16.689 4.67853 16.689 5.1859V16.1735C16.689 16.6809 16.2834 17.092 15.783 17.092H5.2576C4.75716 17.092 4.35156 16.6809 4.35156 16.1735V5.1859ZM7.23738 15.0032C7.74862 15.0032 8.16307 14.5888 8.16307 14.0775V10.1378C8.16307 9.62651 7.74862 9.21206 7.23738 9.21206C6.72613 9.21206 6.31168 9.62651 6.31168 10.1378V14.0775C6.31168 14.5888 6.72613 15.0032 7.23738 15.0032ZM7.23776 8.42094C7.88317 8.42094 8.2849 7.97688 8.2849 7.42061C8.27334 6.85231 7.88394 6.42028 7.2501 6.42028C6.61626 6.42028 6.20218 6.85312 6.20218 7.42061C6.20218 7.97688 6.60392 8.42094 7.22542 8.42094H7.23776ZM10.099 15.0032C10.6089 15.0032 11.0223 14.5899 11.0223 14.0799V11.769C11.0223 11.5959 11.0346 11.4227 11.084 11.2993C11.2174 10.9538 11.522 10.5955 12.034 10.5955C12.704 10.5955 12.9716 11.1262 12.9716 11.9053V14.0775C12.9716 14.5888 13.3861 15.0032 13.8973 15.0032C14.4085 15.0032 14.823 14.5888 14.823 14.0775V11.6816C14.823 9.90219 13.91 9.075 12.6917 9.075C11.7093 9.075 11.269 9.63608 11.0223 10.0312V10.0469C11.0223 10.0493 11.0203 10.0513 11.0179 10.0513C11.0144 10.0513 11.0123 10.0475 11.0141 10.0445L11.0223 10.0312C11.0223 9.57882 10.6555 9.21206 10.2031 9.21206H10.1167C9.60138 9.21206 9.17952 9.64117 9.18097 10.1564C9.18408 11.2531 9.17905 13.0077 9.17526 14.0778C9.17345 14.5893 9.58751 15.0032 10.099 15.0032Z" fill="white"/>
</svg>
