<svg width="19" height="18" viewBox="0 0 19 18" fill="none" xmlns="http://www.w3.org/2000/svg">
<g clip-path="url(#clip0_4674_115)">
<path d="M9.5 18C14.4706 18 18.5 13.9706 18.5 9C18.5 4.02944 14.4706 0 9.5 0C4.52944 0 0.5 4.02944 0.5 9C0.5 13.9706 4.52944 18 9.5 18Z" fill="#F0F0F0"/>
<path d="M9.4968 0V9L3.13281 15.364C4.7615 16.9926 7.0115 18 9.4968 18C14.4673 18 18.4968 13.9705 18.4968 9C18.4968 4.02947 9.4968 0 9.4968 0Z" fill="#D80027"/>
<path d="M9.4968 0C7.0115 0 4.7615 1.00737 3.13281 2.63602C5.34098 4.84418 6.12486 5.62809 9.4968 9H18.4968C18.4968 4.02947 14.4673 0 9.4968 0Z" fill="#0052B4"/>
<path d="M6.66121 9.00423L5.56209 8.48722L6.1474 7.42273L4.95385 7.65107L4.80261 6.44531L3.97123 7.33209L3.13989 6.44531L2.98861 7.65107L1.79509 7.42269L2.38041 8.48722L1.28125 9.00423L2.38041 9.52124L1.79509 10.5857L2.98872 10.3574L3.13986 11.5631L3.97123 10.6764L4.80261 11.5631L4.95385 10.3574L6.14733 10.5858L5.56205 9.52127L6.66121 9.00423Z" fill="#FFDA44"/>
<path d="M2.90086 3.52344L3.26663 4.03471L3.86586 3.84491L3.49257 4.35073L3.85834 4.86201L3.26188 4.66334L2.88863 5.16914L2.8933 4.54054L2.29688 4.34184L2.89622 4.15203L2.90086 3.52344Z" fill="#FFDA44"/>
<path d="M2.90086 12.8359L3.26663 13.3472L3.86586 13.1574L3.49257 13.6632L3.85834 14.1745L3.26188 13.9758L2.88863 14.4816L2.8933 13.853L2.29688 13.6543L2.89622 13.4645L2.90086 12.8359Z" fill="#FFDA44"/>
<path d="M8.11344 8.17969L7.74771 8.69096L7.14844 8.50109L7.52173 9.00695L7.15596 9.51826L7.75242 9.31956L8.12571 9.82535L8.121 9.19679L8.71743 8.99809L8.11812 8.80828L8.11344 8.17969Z" fill="#FFDA44"/>
</g>
<defs>
<clipPath id="clip0_4674_115">
<rect width="18" height="18" fill="white" transform="translate(0.5)"/>
</clipPath>
</defs>
</svg>
